<svg xmlns="http://www.w3.org/2000/svg" viewBox="0 0 176.62 271.55"><defs><style>.cls-1{fill:#f7e543;}.cls-2{fill:#231f20;}.cls-3{fill:#fff;}.cls-4{fill:#ee8e9a;}.cls-5{fill:#8b5e3c;}.cls-6{fill:none;stroke:#231f20;stroke-miterlimit:10;stroke-width:0.57px;}.cls-7{fill:#f9f4a8;}</style></defs><title>faceyellow2</title><g id="Layer_2" data-name="Layer 2"><g id="Layer_1-2" data-name="Layer 1"><rect class="cls-1" width="176.62" height="271.55"/></g><g id="Layer_2-2" data-name="Layer 2"><path class="cls-2" d="M79.76,72.94a1,1,0,0,1,.66,0h0A1.1,1.1,0,0,1,81,74.56a1.06,1.06,0,1,1-1.19-1.62Z"/><path class="cls-3" d="M110.91,81l0,.18a4.77,4.77,0,0,0-.94,4.92,19.47,19.47,0,0,1-3.93-2.94l.3-.3A13.12,13.12,0,0,1,110.91,81Z"/><path class="cls-3" d="M117.24,81.45c2.23,1.09,3.43,3.52,5.1,5.37L122,87a9.74,9.74,0,0,1-7.92.84l.07-.24a4.35,4.35,0,0,0,1.8-6.44l0-.15A6.07,6.07,0,0,1,117.24,81.45Z"/><path class="cls-4" d="M102,114.43l.09.16c-2.72,1.69-5,4.14-8,5.41-4.65,2-10.26.66-14.31-2.39-3.69-2.79-6.26-6.82-8.16-11.06l.17-.07a48.83,48.83,0,0,0,12.37,8.91c3,1.48,6.28,2.69,9.5,2C96.56,116.72,99.05,114.58,102,114.43Z"/><path class="cls-2" d="M113.94,84.68a1,1,0,0,1-1.09.38l0,0a1,1,0,1,1,1-1.53l.06,0A1,1,0,0,1,113.94,84.68Z"/><path class="cls-3" d="M84.17,115.39a48.83,48.83,0,0,1-12.37-8.91l-.17.07c-.18-.4-.36-.8-.53-1.2.42.11.83.21,1.26.29l-.09.46q15,4.34,30.09,8.18l.07.11-.33.2-.09-.16c-3,.15-5.45,2.29-8.34,2.93C90.45,118.08,87.12,116.87,84.17,115.39Z"/><path class="cls-3" d="M41.65,81.72a3.12,3.12,0,0,0-1.32,2.84,3.06,3.06,0,0,0,.45,1.49A2.77,2.77,0,0,0,45.14,86a3.38,3.38,0,0,0-.44-4.12l-.26.17A2.27,2.27,0,0,0,41.65,81.72Zm57,52c15.91-11.08,30.92-29.43,33.61-48h0c.17-8.88,4.17-17.69,2.76-26.5-1.56-9.76-10.54-17.74-20.35-18.45v-.11A45.59,45.59,0,0,0,93.38,27.85V27.7a33.39,33.39,0,0,0-23.7,10.58c-4.51,4.89-7.43,11-10.28,17L49.74,75.68h0c-.6,3.11.29,6.54-.33,9.64l.14,0c-1.21,6.15-2.39,12.52-1,18.61a32.67,32.67,0,0,0,4.2,9.52l-.92.77c-1.72,6.63.52,13.55,2.14,20.2a111.37,111.37,0,0,1,2.46,38.29c-.14,1.32-.31,2.63-.5,3.94-.79,5.4-2,10.74-3.17,16.07l-4.26,19.11a88,88,0,0,1-4.37,15.25A12.92,12.92,0,0,1,34.6,235C22,229.34,16.26,214.14,16.41,200.33s4.76-27.15,6.82-40.8c2.75-18.22.95-37,4.5-55,1.76-9,4.84-17.74,6.84-26.72,1.93-8.69,2.86-17.67,6-26,5.57-14.85,17.63-26.35,30.61-35.45C78.71,11,87.27,6.22,96.46,6.63a13.76,13.76,0,0,1,9,1.47c2.67,1.36,6.06,3.43,8.63,4.2,4,1.72,7.2,5,11.17,6.79,1.65.76,3.42,1.25,5,2.07,5.45,2.71,8.56,8.45,11.34,13.86l-.17.09C149,49.3,145.85,67,148.76,83c1.28,7.08,3.79,13.94,4.43,21.11.68,7.47-.68,15-1.39,22.45-2.73,28.6,4.07,57.19,5.27,85.9.33,7.93.22,16-1.85,23.62a48.11,48.11,0,0,1-25.88,30.71c-.15-1.79-.31-6.58-.46-8.37a26.76,26.76,0,0,1-20.56,3.69c3.68-6.36,7.44-12.94,8.35-20.23,2.63-21-18.59-38.34-19.52-59.48-.22-4.93.69-9.82,1.2-14.72a46.79,46.79,0,0,0,.28-7c-.42-9-4.29-19,1.1-26.15Z"/><path class="cls-3" d="M78.1,70.4a7.64,7.64,0,0,0-1.18,1.95,4.46,4.46,0,0,0,.36,4.49l-.13.23a20.31,20.31,0,0,1-5.22-5.2,18.87,18.87,0,0,1,5.2-1.6,7.77,7.77,0,0,1,1-.08Z"/><path class="cls-3" d="M77.13,70.27a18.87,18.87,0,0,0-5.2,1.6,20.31,20.31,0,0,0,5.22,5.2,10.28,10.28,0,0,0,.93.49,10,10,0,0,0,2.54.74A20.75,20.75,0,0,0,88,77.78l.27-.31a22.82,22.82,0,0,0-3.82-4.76,12,12,0,0,0-1.22-1,5.83,5.83,0,0,0-.8-.53,8.14,8.14,0,0,0-4.34-1A7.77,7.77,0,0,0,77.13,70.27Zm11.42,38.47c-4.66-3-10.73-2-16.19-3.1-.43-.08-.84-.18-1.26-.29.17.4.35.8.53,1.2,1.9,4.24,4.47,8.27,8.16,11.06,4,3,9.66,4.38,14.31,2.39,3-1.27,5.28-3.72,8-5.41l.33-.2c.42-.24.85-.47,1.29-.67a17.16,17.16,0,0,1-4.25-1c-1.38-.62-2.56-1.61-3.89-2.34a12.57,12.57,0,0,0-7-1.59Zm33.79-21.92c-1.67-1.85-2.87-4.28-5.1-5.37A6.07,6.07,0,0,0,116,81a8.82,8.82,0,0,0-1.7-.24,12.46,12.46,0,0,0-3.39.26,13.12,13.12,0,0,0-4.53,1.86l-.3.3A19.47,19.47,0,0,0,110,86.14a19,19,0,0,0,2.13,1,13.32,13.32,0,0,0,2,.67A9.74,9.74,0,0,0,122,87Zm-29-59a45.59,45.59,0,0,1,21.33,12.84v.11c9.81.71,18.79,8.69,20.35,18.45,1.41,8.81-2.59,17.62-2.76,26.5h0c-2.69,18.56-17.7,36.91-33.61,48-1.35.94-2.71,1.83-4.06,2.66-3.21,2-6.65,3.83-10.4,4-5.85.3-11.07-3.49-15.35-7.48a96.85,96.85,0,0,1-14.77-17.43c-.45-.67-.88-1.35-1.31-2a32.67,32.67,0,0,1-4.2-9.52c-1.44-6.09-.26-12.46,1-18.61l-.14,0c.62-3.1-.27-6.53.33-9.64h0L59.4,55.3c2.85-6,5.77-12.13,10.28-17A33.39,33.39,0,0,1,93.38,27.7Z"/><path class="cls-4" d="M99.47,112.68a17.16,17.16,0,0,0,4.25,1c-.44.2-.87.43-1.29.67l-.07-.11q-15.1-3.84-30.09-8.18l.09-.46c5.46,1.1,11.53.09,16.19,3.1h0a12.57,12.57,0,0,1,7,1.59C96.91,111.07,98.09,112.06,99.47,112.68Z"/><path class="cls-5" d="M112.85,85.06a1,1,0,0,0,1.09-.38,1,1,0,0,0,0-1.15l-.06,0a1,1,0,1,0-1,1.53ZM116,81.17a4.35,4.35,0,0,1-1.8,6.44l-.07.24a13.32,13.32,0,0,1-2-.67,19,19,0,0,1-2.13-1,4.77,4.77,0,0,1,.94-4.92l0-.18a12.46,12.46,0,0,1,3.39-.26A8.82,8.82,0,0,1,116,81Z"/><path class="cls-3" d="M84.45,72.71a22.82,22.82,0,0,1,3.82,4.76l-.27.31a20.75,20.75,0,0,1-7.38.52v-.07a5.81,5.81,0,0,0,2.57-2.66,4.21,4.21,0,0,0,0-3.62l.07-.28A12,12,0,0,1,84.45,72.71Z"/><path class="cls-3" d="M56.46,172.74A111.37,111.37,0,0,0,54,134.45c-1.62-6.65-3.86-13.57-2.14-20.2l.92-.77c.43.69.86,1.37,1.31,2A96.85,96.85,0,0,0,68.86,133c4.28,4,9.5,7.78,15.35,7.48,3.75-.2,7.19-2.07,10.4-4,1.35-.83,2.71-1.72,4.06-2.66l1.06.82c-5.39,7.16-1.52,17.2-1.1,26.15a46.79,46.79,0,0,1-.28,7l-.27,0c-3.82,2.9-9.21,1.84-14,2.56-3.76.56-7.23,2.3-10.89,3.3a28.42,28.42,0,0,1-14.76,0c-.33-.09-.71-.25-.73-.59v-.07Z"/><path class="cls-5" d="M78.1,70.4v-.21a8.14,8.14,0,0,1,4.34,1,5.83,5.83,0,0,1,.8.53l-.07.28a4.21,4.21,0,0,1,0,3.62,5.81,5.81,0,0,1-2.57,2.66v.07a10,10,0,0,1-2.54-.74,10.28,10.28,0,0,1-.93-.49l.13-.23a4.46,4.46,0,0,1-.36-4.49A7.64,7.64,0,0,1,78.1,70.4Zm2.32,2.54h0a1,1,0,0,0-.66,0,1.06,1.06,0,1,0,.66,0Z"/><path class="cls-4" d="M44.44,82l.26-.17A3.38,3.38,0,0,1,45.14,86a2.77,2.77,0,0,1-4.36.08,3.06,3.06,0,0,1-.45-1.49,3.12,3.12,0,0,1,1.32-2.84A2.27,2.27,0,0,1,44.44,82Z"/><path class="cls-6" d="M88.27,77.47a22.82,22.82,0,0,0-3.82-4.76,12,12,0,0,0-1.22-1,5.83,5.83,0,0,0-.8-.53,8.14,8.14,0,0,0-4.34-1,7.77,7.77,0,0,0-1,.08,18.87,18.87,0,0,0-5.2,1.6,20.31,20.31,0,0,0,5.22,5.2,10.28,10.28,0,0,0,.93.49,10,10,0,0,0,2.54.74A20.75,20.75,0,0,0,88,77.78"/><path class="cls-6" d="M106.38,82.9A13.12,13.12,0,0,1,110.91,81a12.46,12.46,0,0,1,3.39-.26A8.82,8.82,0,0,1,116,81a6.07,6.07,0,0,1,1.24.43c2.23,1.09,3.43,3.52,5.1,5.37"/><path class="cls-6" d="M122,87a9.74,9.74,0,0,1-7.92.84,13.32,13.32,0,0,1-2-.67,19,19,0,0,1-2.13-1,19.47,19.47,0,0,1-3.93-2.94"/><path class="cls-6" d="M121.25,83.08a14.08,14.08,0,0,0-6.09-3.82,8.52,8.52,0,0,0-7,.94"/><path class="cls-6" d="M72,70c3.3-1.19,6.92-2.38,10.25-1.25a15.86,15.86,0,0,1,5.52,4"/><path class="cls-6" d="M109,76.94a22.92,22.92,0,0,1,7.72-2,13.32,13.32,0,0,1,4.18.09c2.91.65,5.17,2.85,7.27,5"/><path class="cls-6" d="M91.48,68.71A27.93,27.93,0,0,0,81.19,63a18.18,18.18,0,0,0-11.66.38"/><path class="cls-6" d="M111,81.22a4.77,4.77,0,0,0-.94,4.92"/><path class="cls-6" d="M116,81.17a4.35,4.35,0,0,1-1.8,6.44"/><path class="cls-6" d="M78.1,70.4a7.64,7.64,0,0,0-1.18,1.95,4.46,4.46,0,0,0,.36,4.49"/><path class="cls-6" d="M83.16,72a4.21,4.21,0,0,1,0,3.62,5.81,5.81,0,0,1-2.57,2.66"/><path class="cls-6" d="M103,82.72c-2.25,4.47-.68,9.86-1.42,14.81a7.14,7.14,0,0,1-1.4,3.63c-1.61,1.94-4.41,2.26-6.92,2.36"/><path class="cls-6" d="M99.7,103.38a6.79,6.79,0,0,0,3.59-.48"/><path class="cls-6" d="M90,100.6A8,8,0,0,0,87.84,99c-.8-.42-1.66-.72-2.45-1.15a3.92,3.92,0,0,1-1.85-1.9,2,2,0,0,1,.63-2.42"/><path class="cls-6" d="M113.86,83.57h0a1,1,0,1,0-1,1.53h0"/><path class="cls-6" d="M113.92,83.53a1,1,0,0,1,0,1.15,1,1,0,0,1-1.09.38"/><path class="cls-6" d="M80.64,73.06a.91.91,0,0,0-.22-.11,1,1,0,0,0-.66,0,1.06,1.06,0,1,0,.66,0"/><path class="cls-6" d="M77.9,96.24a6,6,0,0,1-3.14,2.63c-1.28.57-2.64.91-3.89,1.54A5.36,5.36,0,0,0,68,103.34"/><path class="cls-6" d="M106.68,108.63a5,5,0,0,1,1,5.22"/><path class="cls-6" d="M88.55,108.74c-4.66-3-10.73-2-16.19-3.1-.43-.08-.84-.18-1.26-.29.17.4.35.8.53,1.2,1.9,4.24,4.47,8.27,8.16,11.06,4,3,9.66,4.38,14.31,2.39,3-1.27,5.28-3.72,8-5.41l.33-.2c.42-.24.85-.47,1.29-.67a17.16,17.16,0,0,1-4.25-1c-1.38-.62-2.56-1.61-3.89-2.34a12.57,12.57,0,0,0-7-1.59h-.14"/><path class="cls-6" d="M102,114.43c-3,.15-5.45,2.29-8.34,2.93-3.22.72-6.55-.49-9.5-2a48.83,48.83,0,0,1-12.37-8.91"/><path class="cls-6" d="M72.27,106.1q15,4.34,30.09,8.18"/><path class="cls-6" d="M112.68,40.76a17,17,0,0,1,2,0c9.81.71,18.79,8.69,20.35,18.45,1.41,8.81-2.59,17.62-2.76,26.5a24.49,24.49,0,0,0,.05,2.57c.51,6.93,3.86,13.55,3.58,20.5-.4,9.48-7.36,17.25-11,26a39.45,39.45,0,0,0,0,30.07"/><path class="cls-6" d="M132.28,85.75c-2.69,18.56-17.7,36.91-33.61,48-1.35.94-2.71,1.83-4.06,2.66-3.21,2-6.65,3.83-10.4,4-5.85.3-11.07-3.49-15.35-7.48a96.85,96.85,0,0,1-14.77-17.43c-.45-.67-.88-1.35-1.31-2a32.67,32.67,0,0,1-4.2-9.52c-1.44-6.09-.26-12.46,1-18.61l.06-.32"/><path class="cls-6" d="M51.86,114.25c-1.72,6.63.52,13.55,2.14,20.2a111.37,111.37,0,0,1,2.46,38.29c-.14,1.32-.31,2.63-.5,3.94-.79,5.4-2,10.74-3.17,16.07l-4.26,19.11a88,88,0,0,1-4.37,15.25A12.92,12.92,0,0,1,34.6,235"/><path class="cls-6" d="M44.6,82.21a1.46,1.46,0,0,0-.16-.19,2.27,2.27,0,0,0-2.79-.3,3.12,3.12,0,0,0-1.32,2.84,3.06,3.06,0,0,0,.45,1.49A2.77,2.77,0,0,0,45.14,86a3.38,3.38,0,0,0-.44-4.12,3.63,3.63,0,0,0-.47-.41"/><path class="cls-6" d="M94.17,27.69h-.79a33.39,33.39,0,0,0-23.7,10.58c-4.51,4.89-7.43,11-10.28,17L49.74,75.68"/><path class="cls-6" d="M96.46,6.63C87.27,6.22,78.71,11,71.17,16.31c-13,9.1-25,20.6-30.61,35.45-3.13,8.34-4.06,17.32-6,26-2,9-5.08,17.7-6.84,26.72-3.55,18.08-1.75,36.82-4.5,55-2.06,13.65-6.67,27-6.82,40.8S22,229.34,34.6,235"/><path class="cls-6" d="M49.05,85.64A4.82,4.82,0,0,1,41,88.17"/><path class="cls-6" d="M50.17,74.11a7.82,7.82,0,0,0-.45,1.57c-.6,3.11.29,6.54-.33,9.64a8.84,8.84,0,0,1-.47,1.57"/><path class="cls-6" d="M46.65,55c-1.12-.31-2,1-2.45,2a57.35,57.35,0,0,0-4.32,20.68"/><path class="cls-6" d="M84.65,17.81C73.09,22.48,63.77,31.49,56.29,41.47a36.09,36.09,0,0,0-5.35,9.14"/><path class="cls-6" d="M48,63.57c-1.14,4.76-3.93,8.92-6.13,13.28-7.09,14-8.27,30.15-9.32,45.81"/><path class="cls-6" d="M111.29,133.31c-4.31,8.39-2.4,18.46-.85,27.77a286,286,0,0,1,3.6,34.8"/><path class="cls-6" d="M93.38,27.85a45.59,45.59,0,0,1,21.33,12.84"/><path class="cls-6" d="M99.73,134.56c-5.39,7.16-1.52,17.2-1.1,26.15a46.79,46.79,0,0,1-.28,7c-.51,4.9-1.42,9.79-1.2,14.72.93,21.14,22.15,38.48,19.52,59.48-.91,7.29-4.67,13.87-8.35,20.23a26.76,26.76,0,0,0,20.56-3.69A27.78,27.78,0,0,0,135.1,253c6.41-7.6,8.52-18.41,6.16-28.06-1.69-6.92-5.43-13.14-8-19.77s-4-14.3-1-20.75"/><path class="cls-6" d="M128.88,258.45c.15,1.79.31,6.58.46,8.37a48.11,48.11,0,0,0,25.88-30.71c2.07-7.65,2.18-15.69,1.85-23.62-1.2-28.71-8-57.3-5.27-85.9.71-7.49,2.07-15,1.39-22.45-.64-7.17-3.15-14-4.43-21.11-2.91-16,.19-33.73-7.29-47.92-.37-.7-.76-1.39-1.19-2.07"/><path class="cls-6" d="M141.67,35.06s0,0,0,0c-2.78-5.41-5.89-11.15-11.34-13.86-1.62-.82-3.39-1.31-5-2.07-4-1.82-7.16-5.07-11.17-6.79"/><path class="cls-6" d="M104,26.18c2.71-3.58,7.94-4.42,12.26-3.19s7.94,4.1,11.45,6.92"/><path class="cls-6" d="M58.27,172.92c.13-.28-.45-.29-.53,0V173c0,.34.4.5.73.59a28.42,28.42,0,0,0,14.76,0c3.66-1,7.13-2.74,10.89-3.3,4.75-.72,10.14.34,14-2.56"/><path class="cls-6" d="M43.63,125.88c-3,10.65,1.57,21.79,2.71,32.8A53,53,0,0,1,37,194.29"/><path class="cls-6" d="M96.46,6.63a13.76,13.76,0,0,1,9,1.47c2.67,1.36,6.06,3.43,8.63,4.2"/><path class="cls-7" d="M77.43,160.47a3.42,3.42,0,0,0-4.21,3.18,3.86,3.86,0,0,0,4.11,3.61,3.8,3.8,0,0,0,3.4-3.32,3.32,3.32,0,0,0-3-3.49"/><path class="cls-2" d="M77.53,160.13A3.79,3.79,0,0,0,72.94,163a4.1,4.1,0,0,0,3.48,4.59,4.17,4.17,0,0,0,4.6-3.16,3.69,3.69,0,0,0-3.33-4.33c-.45,0-.45.67,0,.72,4.43.43,2.63,7.07-1.48,6A3.32,3.32,0,0,1,73.67,163a3.08,3.08,0,0,1,3.67-2.18.35.35,0,0,0,.19-.68Z"/><path class="cls-2" d="M80.64,163.28c5.86-2.69,12.75-2.63,17.83-6.94.35-.29-.16-.8-.51-.5C93,160.07,86,160,80.28,162.66c-.42.19-.06.81.36.62Z"/><path class="cls-2" d="M73,162.75c-5.08-2.33-10.9,1.84-15.67-1.33-.38-.26-.74.36-.36.62,4.88,3.24,10.6-1,15.67,1.33.42.19.78-.42.36-.62Z"/></g></g></svg>