<svg xmlns="http://www.w3.org/2000/svg" viewBox="0 0 372.59 527.06"><defs><style>.cls-1{fill:#ee8e9a;}.cls-2{fill:#493118;}.cls-3{fill:#231f20;}.cls-4{fill:#211f1e;}.cls-5{fill:#fff;}.cls-10,.cls-6,.cls-7,.cls-8,.cls-9{fill:none;stroke-miterlimit:10;stroke-width:2.1px;}.cls-6{stroke:#2b2827;}.cls-7{stroke:#121111;}.cls-8{stroke:#000;}.cls-9{stroke:#231f20;}.cls-10{stroke:#fff;}</style></defs><title>pug3</title><g id="Layer_2" data-name="Layer 2"><g id="Layer_1-2" data-name="Layer 1"><rect class="cls-1" width="372.59" height="527.06"/></g><g id="Layer_2-2" data-name="Layer 2"><path class="cls-2" d="M244.05,134.31c.26.48,1.09-.3.63-.58v-.07C244.34,133.65,243.92,134,244.05,134.31Zm4.13,1.71a3.8,3.8,0,0,0-3.9-1.28l-.75-.47c-.38-.38-1-.18-1.49.08-2,1.09-3.54,3.33-3,5.54a5.69,5.69,0,0,0,.72,1.68,6.13,6.13,0,0,0,1.59,1.91,4.58,4.58,0,0,0,4.24.59,5.56,5.56,0,0,0,3.12-3A5,5,0,0,0,248.18,136Zm13.49.26c.44,5.56-1.49,11.11-4.49,15.82a17.29,17.29,0,0,1-6.39,6.4c-2.73,1.39-6.25,1.53-8.7-.29l-.4.3a103.63,103.63,0,0,0-10.3-12.34h0c-1.63-3.47-4.6-10.31-3.95-14.09a11.65,11.65,0,0,1,5.08-7.39,21.34,21.34,0,0,1,8.57-3.15c4.06-.66,8.39-.6,12.07,1.23C258.15,125.23,261.24,130.73,261.67,136.28Z"/><path class="cls-3" d="M205.28,159.1a59.84,59.84,0,0,0-9.2-7.72c-3.9-2.85-7.86-5.74-12.41-7.38a1.89,1.89,0,0,0-1.86,0,1.38,1.38,0,0,0,0,1.83l-1,.55a10.26,10.26,0,0,0-4.39,1.61,6,6,0,0,0-2.08,1.07,5.27,5.27,0,0,0-1.1,1.22,7.82,7.82,0,0,0-2.49,2.25c-.91.83-1.8,1.69-2.71,2.53a11.06,11.06,0,0,0-3.94,3.54c-.42.36-.85.7-1.29,1-1.49,1.13-3.2,2.41-3.33,4.27a.77.77,0,0,1-.39-.17.92.92,0,0,1,.1-.42c-.16,0-.25.23-.15.37a.12.12,0,0,0,.05,0,1.67,1.67,0,0,0,.55,1.07,4.81,4.81,0,0,0,1.87,3.44l-.52.1c-.46-.36-1-.59-1.42-1a17.9,17.9,0,0,1-3-2.33,2.41,2.41,0,0,1-.53-1.76,1.81,1.81,0,0,1,.48-1.06c.45-.44,1-.75,1.4-1.21s1-.82,1.47-1.28,1.08-.79,1.58-1.22.9-.92,1.35-1.37a17.21,17.21,0,0,1,2.39-2,23.49,23.49,0,0,0,1.85-1.75c.51-.44,1.14-.71,1.66-1.16s.73-.67,1.15-1,.74-.76,1.15-1.11,1-.69,1.46-1.11,1.34-.91,1.94-1.46a6.1,6.1,0,0,1,1.51-1.05c.77-.4,1.56-.73,2.34-1.11a15.34,15.34,0,0,0,4-3l.94-.7c.5-.68,1,.14,1.4.47a9.33,9.33,0,0,0,1.81,1.17c.92.47,1.85,1,2.79,1.39a15.43,15.43,0,0,1,3.1,2.11c1.09.8,2.4,1.24,3.38,2.21a15.34,15.34,0,0,0,3.38,2A29.57,29.57,0,0,1,201,153a13.73,13.73,0,0,0,1.55,1.11,9.69,9.69,0,0,1,1.55,1,28.35,28.35,0,0,1,2.63,2.39c.38.41.66.88,1,1.29a3.06,3.06,0,0,1,.77,1.17,2.45,2.45,0,0,1,.18,1.08,3,3,0,0,1-.64,1.5,21.75,21.75,0,0,1-2.72,2.42,9.29,9.29,0,0,1-1.43.94,14.79,14.79,0,0,0-1.43,1.19c-.9.73-2,1.22-2.9,2a17.11,17.11,0,0,1-2.77,2.1c-1.11.59-2.19,1.09-3.27,1.74-.58.35-1,.84-1.65,1.19s-1.09.58-1.61.92c-1,.62-1.68,1.46-2.58,2.16a5.31,5.31,0,0,1-1.42,1,1.14,1.14,0,0,1-.37,0,2.63,2.63,0,0,1-.72-.43,25.77,25.77,0,0,0-2.86-1.36,5.25,5.25,0,0,0-.81-.32l.19-.57a4,4,0,0,0,1.14.15,5.12,5.12,0,0,0,1.88-.38,3.48,3.48,0,0,0,.62.21,1,1,0,0,1,0,.17,1.77,1.77,0,0,0,.05.69.19.19,0,0,0,.11-.12,2.15,2.15,0,0,0,.12-.69,2.22,2.22,0,0,0,.37,0l-.06.42a2.79,2.79,0,0,0,1.32-.63,3.73,3.73,0,0,0,1.18-.77,11.71,11.71,0,0,1,1.11-1,5.54,5.54,0,0,0,1.56-1.07L192,172c1.31-.83,2.32-2,3.58-2.87l.09-.07c.19-.11.38-.22.56-.34h0a4.63,4.63,0,0,0,1.79-1.24,8.07,8.07,0,0,0,.8-.75,1.49,1.49,0,0,0,.81-.07,9.93,9.93,0,0,0,4.65-3,5.65,5.65,0,0,0,1-2,1,1,0,0,0,.86-.94,2.4,2.4,0,0,0-.78-1.47s0,0,0,0a2.55,2.55,0,0,0-.4-.83A3.08,3.08,0,0,1,205.28,159.1Z"/><path class="cls-3" d="M108.21,146.91a4.83,4.83,0,0,1-.13,4,2,2,0,0,1-.88,1,1.68,1.68,0,0,1-2-.77,3.85,3.85,0,0,1-.44-2.15h.12a4.1,4.1,0,0,1,.57-2c.39-.67,1.12-1.32,1.85-1.08A1.7,1.7,0,0,1,108.21,146.91Z"/><path class="cls-3" d="M244.91,142.5a2.09,2.09,0,0,0,1.39-1.28,3.56,3.56,0,0,0,.13-1.94,5.44,5.44,0,0,0-1.19-2.53,1.63,1.63,0,0,0-1.59-.72,1.4,1.4,0,0,0-.79.81l-.63-.24a4.84,4.84,0,0,0,0,4.31A2.6,2.6,0,0,0,244.91,142.5ZM242,134.35c.47-.26,1.11-.46,1.49-.08l.75.47a3.8,3.8,0,0,1,3.9,1.28,5,5,0,0,1,.49,5,5.56,5.56,0,0,1-3.12,3,4.58,4.58,0,0,1-4.24-.59,6.13,6.13,0,0,1-1.59-1.91,5.69,5.69,0,0,1-.72-1.68C238.5,137.68,240.06,135.44,242,134.35Z"/><path class="cls-3" d="M107.27,145.89c-.73-.24-1.46.41-1.85,1.08a4.1,4.1,0,0,0-.57,2h-.12a3.85,3.85,0,0,0,.44,2.15,1.68,1.68,0,0,0,2,.77,2,2,0,0,0,.88-1,4.83,4.83,0,0,0,.13-4A1.7,1.7,0,0,0,107.27,145.89Zm-.56-1.89.16.3a2.44,2.44,0,0,1,.43-.21A3.45,3.45,0,0,1,111,145.2a5,5,0,0,1,1,3.81,9,9,0,0,1-1.51,3.72,4.7,4.7,0,0,1-1.92,1.86,3.62,3.62,0,0,1-1.49.28,5.44,5.44,0,0,1-.33-10.87Z"/><path class="cls-2" d="M108.3,143.39c.26.47,1.08-.31.62-.6v-.06C108.58,142.72,108.16,143,108.3,143.39ZM111,145.2a3.45,3.45,0,0,0-3.65-1.11,2.44,2.44,0,0,0-.43.21l-.16-.3a5.44,5.44,0,0,0,.33,10.87,3.62,3.62,0,0,0,1.49-.28,4.7,4.7,0,0,0,1.92-1.86A9,9,0,0,0,112,149,5,5,0,0,0,111,145.2Zm11.91-7.4c3.09,5.29,4.5,12,1.83,17.54-1.59,3.29-4.43,5.79-7.37,8a24,24,0,0,1-7,3.85c-6.45,2-13.93-1.22-17.48-7s-3.22-13.46.27-19.23,10-9.28,16.72-10.28a6.82,6.82,0,0,0,2.2-.09C116.61,130.12,120.55,133.85,122.86,137.8Z"/><path class="cls-4" d="M193,154.64l2.43,1.13,0,.06a4.8,4.8,0,0,0-1.56-.36l-.9-.82A0,0,0,0,1,193,154.64Z"/><path class="cls-4" d="M192.64,154.5l.3.14h0l-.07.06a.5.5,0,0,0-.24-.12Z"/><path class="cls-4" d="M192.68,152.75a.47.47,0,0,0,0-.17c.29.25.57.52.84.8a1.2,1.2,0,0,1-.18.75,3.54,3.54,0,0,1-.35.51h0l-.31-.29a2.62,2.62,0,0,0-.07-.57A.68.68,0,0,0,192.68,152.75Z"/><path class="cls-4" d="M192.53,153.66c0,.05,0,.08,0,.12l-.12.07,0,0A2.39,2.39,0,0,0,192.53,153.66Z"/><path class="cls-4" d="M192.43,158.25a1.24,1.24,0,0,1-.54-.29.71.71,0,0,1,.7-.38.27.27,0,0,1,.13,0A.83.83,0,0,1,192.43,158.25Z"/><path class="cls-4" d="M172.93,153.8a.77.77,0,0,1,.39.92c-.43-.31-.64,0-.71.39a1.2,1.2,0,0,1-.82-.72l.08,0c.37.14.43-.12.71-.32A1.54,1.54,0,0,0,172.93,153.8Z"/><path class="cls-4" d="M200.36,159.24c.31,0,.62,0,.93,0a6,6,0,0,0-.89.16A1.24,1.24,0,0,0,200.36,159.24Z"/><path class="cls-4" d="M190.87,152.66a3.26,3.26,0,0,0-.16,1L189,152.8a6.12,6.12,0,0,0-.54-1.36,3.64,3.64,0,0,1,1.14-.09C190,151.79,190.44,152.23,190.87,152.66Z"/><path class="cls-4" d="M173.32,154.72a.51.51,0,0,1-.26.29.64.64,0,0,1-.45.1C172.68,154.7,172.89,154.41,173.32,154.72Z"/><path class="cls-4" d="M192,152.43a.41.41,0,0,0-.05.09.69.69,0,0,0-.11-.13Z"/><path class="cls-4" d="M191.93,151.94a.9.9,0,0,0-.35.18l-.24-.19a.71.71,0,0,1,.4-.15A1.35,1.35,0,0,1,191.93,151.94Z"/><path class="cls-4" d="M191.89,158a2.16,2.16,0,0,1-.47-.69c.2-.37.53-.67,1-.46a.84.84,0,0,1,.34.79.27.27,0,0,0-.13,0A.71.71,0,0,0,191.89,158Z"/><path class="cls-4" d="M193.45,153.15a11.14,11.14,0,0,0-.93-.89.63.63,0,0,0-.16-.23.67.67,0,0,0-.14-.11A1.56,1.56,0,0,1,193.45,153.15Z"/><path class="cls-4" d="M199.9,164.33l0,0a1,1,0,0,0,.28.12,4.38,4.38,0,0,1-.24.66.61.61,0,0,0-.17.07.81.81,0,0,1-.31-.18A4,4,0,0,0,199.9,164.33Z"/><path class="cls-4" d="M195.39,155.77l.37.18a.13.13,0,0,1,.06.07,3,3,0,0,0-.41-.19Z"/><path class="cls-4" d="M200.08,160.17a.79.79,0,0,1-.56-.1,2.14,2.14,0,0,1-.3-.17,1.93,1.93,0,0,0,.3-.27l.77-.2c0,.06.09.11.13.16A.52.52,0,0,1,200.08,160.17Z"/><path class="cls-4" d="M192.65,152.58a.47.47,0,0,1,0,.17,1.07,1.07,0,0,0-.39-.3.7.7,0,0,1-.21-.13,1,1,0,0,1,.11-.15A4.36,4.36,0,0,1,192.65,152.58Z"/><path class="cls-4" d="M201.65,163.3a1.43,1.43,0,0,1-.9,1.11,1.28,1.28,0,0,1-.55,0,3.24,3.24,0,0,0,.12-.81A2.08,2.08,0,0,1,201.65,163.3Z"/><path class="cls-4" d="M185.41,174.82a2.65,2.65,0,0,1,.3.11,4.7,4.7,0,0,1,0,.54l-.24,0a4.73,4.73,0,0,1,0-.54Z"/><path class="cls-4" d="M192.88,154.71a.72.72,0,0,1-.24.16v-.28A.5.5,0,0,1,192.88,154.71Z"/><path class="cls-4" d="M185.31,174.78a4.48,4.48,0,0,1,.09.64,3.48,3.48,0,0,1-.62-.21,5.12,5.12,0,0,1-1.88.38,4,4,0,0,1-1.14-.15,15.16,15.16,0,0,1-2.17-.94c-1.39-.63-2.9-.94-4.28-1.6a8.58,8.58,0,0,1-2-1.32A100.81,100.81,0,0,1,185.31,174.78Z"/><path class="cls-4" d="M185.41,174.82v-3a14.65,14.65,0,0,1,.25,1.5c0,.22.06,1,.05,1.65A2.65,2.65,0,0,0,185.41,174.82Z"/><path class="cls-4" d="M197.67,158.51c-.45-.55-.86-1.16-1.28-1.73-.18-.26-.37-.51-.57-.76A3.49,3.49,0,0,1,197.67,158.51Z"/><path class="cls-4" d="M191.61,159.33a2.2,2.2,0,0,1-.37-1.49,2,2,0,0,1,.18-.57,2.16,2.16,0,0,0,.47.69,2.86,2.86,0,0,0-.27.81A1.52,1.52,0,0,0,191.61,159.33Z"/><path class="cls-4" d="M170.68,152.55a7.82,7.82,0,0,1,2.49-2.25,5.27,5.27,0,0,1,1.1-1.22,6,6,0,0,1,2.08-1.07c-.66.41-1.3.87-1.92,1.34C173.13,150.35,171.89,151.44,170.68,152.55Z"/><path class="cls-4" d="M192.08,152.32c-.08-.09-.09-.13-.24.05a1.54,1.54,0,0,0-.26-.25.9.9,0,0,1,.35-.18,1.79,1.79,0,0,1,.26.23A1,1,0,0,0,192.08,152.32Z"/><path class="cls-4" d="M192.36,152a.63.63,0,0,1,.16.23l-.21-.21Z"/><path class="cls-4" d="M191.61,153.86a.91.91,0,0,1-.61-.76,2.25,2.25,0,0,1,.08-.24c.16.17.32.32.48.47h0A3.68,3.68,0,0,0,191.61,153.86Z"/><path class="cls-4" d="M197.09,160.37c-.7.38-2.63.76-3.31.06a1.49,1.49,0,0,0,.72-.45,1.41,1.41,0,0,0,.18.17c.62.49,1.28.2,2,0l.92-.2A2.6,2.6,0,0,1,197.09,160.37Z"/><path class="cls-4" d="M191.7,153.47a3.6,3.6,0,0,1,.27-.95,2.85,2.85,0,0,1,.46.82,1.1,1.1,0,0,1-.4.45Z"/><path class="cls-4" d="M199.22,159.9a1.58,1.58,0,0,1-.24-.15l.13,0h0l.14,0,.26-.05A1.93,1.93,0,0,1,199.22,159.9Z"/><path class="cls-4" d="M185.69,175.47a4.7,4.7,0,0,0,0-.54l.41.15-.06.42A2.22,2.22,0,0,1,185.69,175.47Z"/><path class="cls-4" d="M192.18,153.93a.9.9,0,0,0,.22-.06.86.86,0,0,1-.14.13Z"/><path class="cls-4" d="M170.73,162.6a1,1,0,0,1,.44-.57.78.78,0,0,1,.33-.16.85.85,0,0,0,0,.55Z"/><path class="cls-4" d="M201.34,159.24h.3A3,3,0,0,0,201.34,159.24Zm1.24-.12c.52.35.87,1.12.47,1.61a1.05,1.05,0,0,1-1.23.19,3.23,3.23,0,0,1-1-.87l-.39-.46a1.37,1.37,0,0,0,0-.19,6,6,0,0,1,.89-.16c-.31,0-.62,0-.93,0a1.14,1.14,0,0,0-.13-.35,11.48,11.48,0,0,0-.72-1.22l1.36.64C201.41,158.64,202.06,158.76,202.58,159.12Z"/><path class="cls-4" d="M190.71,153.61l.31.14a.69.69,0,0,0,.47.38.76.76,0,0,0,.21,0,1.86,1.86,0,0,0,.23.47,1.34,1.34,0,0,0-.69,1.11,1,1,0,0,1-.13-.22A4.37,4.37,0,0,1,190.71,153.61Z"/><path class="cls-4" d="M172.93,153.8a1.54,1.54,0,0,1-.35.31c-.28.2-.34.46-.71.32l-.08,0s0-.06,0-.09h0c.18-.35.48-.65.81-.62A.82.82,0,0,1,172.93,153.8Z"/><path class="cls-4" d="M195.36,156.79c-.51-.43-1-.87-1.51-1.32a4.8,4.8,0,0,1,1.56.36A1.44,1.44,0,0,1,195.36,156.79Z"/><path class="cls-4" d="M191.58,152.12a1.54,1.54,0,0,1,.26.25h0a.74.74,0,0,0-.59.16.71.71,0,0,1,.11-.17A1.39,1.39,0,0,1,191.58,152.12Z"/><path class="cls-4" d="M172.56,153.67c-.33,0-.63.27-.81.62a1.08,1.08,0,0,1-.08-.38c0-.63.34-1.28,1-.86.13.15.26.32.38.49a.38.38,0,0,1-.11.26A.82.82,0,0,0,172.56,153.67Z"/><path class="cls-4" d="M193.94,159.16a3.76,3.76,0,0,1-.27-.62,1.4,1.4,0,0,0,.46.57A.59.59,0,0,0,193.94,159.16Z"/><path class="cls-4" d="M170.73,162.6a6.2,6.2,0,0,0-.72.16,10.57,10.57,0,0,1-2.47.26,3.66,3.66,0,0,0,.69-.14,17.23,17.23,0,0,1,1.77-.53,13.57,13.57,0,0,0,1.55-.64l0,.07s0,.07,0,.09a.78.78,0,0,0-.33.16A1,1,0,0,0,170.73,162.6Z"/><path class="cls-5" d="M103.28,347.33a200.36,200.36,0,0,1,12.2,32.39,29.66,29.66,0,0,1-4.47,6.09,12,12,0,0,1-3.76,2.87c.2-.58.39-1.16.59-1.73a2.67,2.67,0,0,0,0-2.4c-.44-.61-1.67-.3-1.67.33l-1.54-.23a14.09,14.09,0,0,0-1,4.66c-.7,0-1.4-.06-2.11-.13a48.26,48.26,0,0,1-8.66-1.63l-.78-.22,1.61-2.93A8,8,0,0,0,91,386.93c-.25-.08-.49-.16-.73-.26a30.78,30.78,0,0,1-8.58-4.7l-.42-.34c-.32-.25-.62-.53-.93-.81a18.64,18.64,0,0,1,3.27-2.32l-.48.2.12-1a5.5,5.5,0,0,0-4.38,1.42,5.94,5.94,0,0,1-1.27-4.4c.32-1.94,1.82-3.46,3.3-4.74,7.29-6.29,16.88-11.45,19.3-20.76.16-.61.38-1.32,1-1.5a.59.59,0,0,1,.64.34Z"/><path class="cls-4" d="M191,152.87a.06.06,0,0,1,0-.05s0,0,0,0a2.25,2.25,0,0,0-.08.24A.66.66,0,0,1,191,152.87Z"/><path class="cls-4" d="M193.66,158.52a3.7,3.7,0,0,1-.09-.4A1.06,1.06,0,0,0,193.66,158.52Zm-.32.14a.89.89,0,0,0-.62-1.06.84.84,0,0,0-.34-.79c-.43-.21-.76.09-1,.46a2.88,2.88,0,0,1-.18-1.53c.36.63,1.14,1.41,1.66.51a1.74,1.74,0,0,0,.23-.77,5.71,5.71,0,0,1,.72,0c.5.45,1,.89,1.51,1.32a1.44,1.44,0,0,0,0-1,3,3,0,0,1,.41.19c.2.25.39.5.57.76.42.57.83,1.18,1.28,1.73a3.45,3.45,0,0,1,.08.72,3.64,3.64,0,0,1,.65.25h0a1.74,1.74,0,0,0-.75.47,8.5,8.5,0,0,1-1,0,5.4,5.4,0,0,1-1.88-.47c0-.28-.31-.42-.6-.38a1.4,1.4,0,0,1-.46-.57,3.76,3.76,0,0,0,.27.62.67.67,0,0,0-.37.89.84.84,0,0,0,.21.38,2,2,0,0,1-.77,0,1.61,1.61,0,0,1-1.4-1.13,1,1,0,0,0,.56.38C192.8,159.84,193.26,159.21,193.34,158.66Z"/><path class="cls-4" d="M193.45,153.15a.59.59,0,0,1,0,.23c-.27-.28-.55-.55-.84-.8a.53.53,0,0,0,0-.12.47.47,0,0,0-.1-.2A11.14,11.14,0,0,1,193.45,153.15Z"/><path class="cls-4" d="M190.87,152.66a1.59,1.59,0,0,1,.37-.63l.1-.1.24.19a1.39,1.39,0,0,0-.23.25.71.71,0,0,0-.11.17.51.51,0,0,0-.19.28Z"/><path class="cls-4" d="M172.62,155.72a2.48,2.48,0,0,1,0-.61.64.64,0,0,0,.45-.1.51.51,0,0,0,.26-.29l.07.05A1,1,0,0,1,172.62,155.72Z"/><path class="cls-4" d="M199,159.75a1.58,1.58,0,0,0,.24.15l-.1.08a2.52,2.52,0,0,0-.25-.21Z"/><path class="cls-5" d="M188.27,204.72c2.92,6.49,8.55,11.27,13.61,16.27a128.15,128.15,0,0,1,10.37,11.6c3,3.77,5.87,7.83,10.11,10a18.57,18.57,0,0,0,7.9,2l0,.82C211.37,258.59,186,262.5,162.51,262c-5.5-.11-11.52-.8-15.36-4.75l-1.65-.07a23.34,23.34,0,0,0,5.34-4.11c7.15-7.11,11.82-16.26,16.94-24.94s11.13-17.32,19.86-22.36h.45c0-.35,0-.7,0-1.05Z"/><path class="cls-4" d="M193.94,159.16a4.18,4.18,0,0,0,.56.82,1.49,1.49,0,0,1-.72.45.84.84,0,0,1-.21-.38A.67.67,0,0,1,193.94,159.16Z"/><path class="cls-4" d="M193.45,153.15a16,16,0,0,1,1.28,1.45,4.39,4.39,0,0,1,.34.5,21.31,21.31,0,0,0-1.58-1.72A.59.59,0,0,0,193.45,153.15Z"/><path class="cls-4" d="M192,153.79a1.1,1.1,0,0,0,.4-.45c0,.11.07.21.1.32a2.39,2.39,0,0,1-.13.21.9.9,0,0,1-.22.06Z"/><path class="cls-4" d="M192.68,152.75a.68.68,0,0,1-.12,1s0-.07,0-.12A1.56,1.56,0,0,0,192.68,152.75Z"/><path class="cls-4" d="M200.32,163.62a3.24,3.24,0,0,1-.12.81,1,1,0,0,1-.28-.12,4.53,4.53,0,0,0,.23-.57Z"/><path class="cls-4" d="M198.61,159.46a3.07,3.07,0,0,0,.35.28l-.11,0a3.4,3.4,0,0,0-.45-.28Z"/><path class="cls-4" d="M191,152.87a.66.66,0,0,0,0,.23,1.1,1.1,0,0,0,0,.65l-.31-.14a3.26,3.26,0,0,1,.16-1l.18.16A.06.06,0,0,0,191,152.87Z"/><path class="cls-4" d="M192.68,152.75a1.56,1.56,0,0,1-.15.91c0-.11-.06-.21-.1-.32a.61.61,0,0,0,0-.52.79.79,0,0,0-.45-.39l.06-.11a.7.7,0,0,0,.21.13A1.07,1.07,0,0,1,192.68,152.75Z"/><path class="cls-4" d="M192.41,154.54a.94.94,0,0,0-.48.09,1.86,1.86,0,0,1-.23-.47.66.66,0,0,0,.2,0l.74.35v.09A.78.78,0,0,0,192.41,154.54Z"/><path class="cls-4" d="M165.24,169.41c-1.47-.12-2.62-.16-3.8-1.14a4.81,4.81,0,0,1-1.87-3.44,4.71,4.71,0,0,0,.49.43,45.69,45.69,0,0,0,9.6,5.49l-1.29-.25A6,6,0,0,0,165.24,169.41Z"/><path class="cls-4" d="M198.87,159.77a6.42,6.42,0,0,1-1.15.19l1.13-.2Z"/><path class="cls-4" d="M199.59,159.56l-.47.15h0l-.15,0a3.07,3.07,0,0,1-.35-.28,4.29,4.29,0,0,0,.8,0c.27,0,.48-.16.74-.21l.14.15-.77.2Z"/><path class="cls-4" d="M191.66,154.05a.36.36,0,0,1,0,.11.76.76,0,0,1-.21,0,.69.69,0,0,1-.47-.38Z"/><path class="cls-4" d="M196.14,161c-.61.12-2.58.18-3.13-.54a2,2,0,0,0,.77,0c.68.7,2.61.32,3.31-.06a2.6,2.6,0,0,0,.5-.39l.13,0a6.42,6.42,0,0,0,1.15-.19,2.52,2.52,0,0,1,.25.21A7.15,7.15,0,0,1,196.14,161Z"/><path class="cls-4" d="M173.69,158.44a1.4,1.4,0,0,1-.21-.77.2.2,0,0,1,0-.07c.31.41,1.07.88,1.11,0s-.94-.67-1.11,0a.47.47,0,0,1-.09-.12,1.75,1.75,0,0,1-.11-.95c.54.21,1.21.13.86-.61-.53-.31-.79.11-.86.61a1,1,0,0,1-.51-.36,1.25,1.25,0,0,1-.16-.45,1,1,0,0,0,.77-.95l-.07-.05a.77.77,0,0,0-.39-.92.38.38,0,0,0,.11-.26c.77,1.05,1.37,2.32,2.05,3.38,1.09,1.69-.12,3.24-1.34,4.43a3.34,3.34,0,0,1-1.16.73,1.37,1.37,0,0,0-1.09-.21s0-.06,0-.09l0-.07a1.4,1.4,0,0,1,.29-.09l.64-.05a1.92,1.92,0,0,0-.64.05l-.27,0c.16-.37.45-.89.81-1h.09a.64.64,0,0,0,.87.67c.25-.39-.5-.7-.87-.67a1.08,1.08,0,0,1,.15-.49.76.76,0,0,1,.39-.37.59.59,0,0,0,.3.61c.26.11.75-.09.66-.41a1.16,1.16,0,0,0-1-.2c0-.11,0-.22,0-.32a1.27,1.27,0,0,1,.52-1l.14-.06c.19.4.49.7.75.37C174.51,158.37,174,158.36,173.69,158.44Z"/><path class="cls-4" d="M192.56,153.78a2.62,2.62,0,0,1,.07.57l-.37-.35a.86.86,0,0,0,.14-.13l0,0Z"/><path class="cls-4" d="M171.84,161.62a1.4,1.4,0,0,0-.29.09s0,0,0-.06Z"/><path class="cls-4" d="M198.28,157.11,195.76,156c-.22-.29-.44-.57-.69-.85a4.39,4.39,0,0,0-.34-.5,16,16,0,0,0-1.28-1.45,1.56,1.56,0,0,0-1.23-1.23.67.67,0,0,0-.21-.1,17.36,17.36,0,0,0-2.53-1.76,24.93,24.93,0,0,1,2.26,1.72.71.71,0,0,0-.4.15,3.42,3.42,0,0,0-1.76-.58c-1.05-1.1-2.07-2.21-3.06-3.36-.43.68.31,1.47.88,2a6.21,6.21,0,0,1,1,1.4,3.31,3.31,0,0,0-1,.37,4,4,0,0,0-.23-.34,3.21,3.21,0,0,0-1.66-3.09,9.41,9.41,0,0,0-7.33-.67,7.1,7.1,0,0,0-1.89.3,10.26,10.26,0,0,1,4.39-1.61l1-.55a1.38,1.38,0,0,1,0-1.83,1.89,1.89,0,0,1,1.86,0c4.55,1.64,8.51,4.53,12.41,7.38a59.84,59.84,0,0,1,9.2,7.72,3.81,3.81,0,0,1,.19,1.16,2.74,2.74,0,0,1-.42,1.29.59.59,0,0,0,.26.07,5.65,5.65,0,0,1-1,2,9.93,9.93,0,0,1-4.65,3,1.49,1.49,0,0,1-.81.07,6.46,6.46,0,0,0,1-1.49,1.09,1.09,0,0,0,1.13-.38,3.58,3.58,0,0,0-1.08.28,4.38,4.38,0,0,0,.24-.66,1.28,1.28,0,0,0,.55,0,1.43,1.43,0,0,0,.9-1.11,2.08,2.08,0,0,0-1.33.32,1.89,1.89,0,0,0,0-.53,3.51,3.51,0,0,0-1.18-3.11l.1-.08a2.14,2.14,0,0,0,.3.17.79.79,0,0,0,.56.1.52.52,0,0,0,.34-.58l.39.46a3.23,3.23,0,0,0,1,.87,1.05,1.05,0,0,0,1.23-.19c.4-.49,0-1.26-.47-1.61s-1.17-.48-1.71-.81l-1.36-.64a11.48,11.48,0,0,0-3.7-3.44Z"/><path class="cls-4" d="M172.61,155.11a2.48,2.48,0,0,0,0,.61.77.77,0,0,1-1-.48,1.18,1.18,0,0,1,.07-.89l.06,0A1.2,1.2,0,0,0,172.61,155.11Z"/><path class="cls-5" d="M283.28,505.38l1.86,3.83a7.09,7.09,0,0,0-1.66-7.63C283.41,502.84,283.35,504.11,283.28,505.38Zm-159-14.87a3.52,3.52,0,0,0,0-1.88l-.06.32a12.3,12.3,0,0,0-.45-2.48c0,1.6,0,3.19,0,4.77.14-.76.27-1.52.41-2.28A13.33,13.33,0,0,1,124.26,490.51Zm1-.1a13.36,13.36,0,0,0-.68-4.61,1.25,1.25,0,0,1,.77-.47,1.67,1.67,0,0,1,1.39.55,3.31,3.31,0,0,1,1,1.93,4.72,4.72,0,0,0-.12-2.86c-.6-1.42-2.81-2.16-3.71-.9a11.41,11.41,0,0,1,.7,1.75,2.74,2.74,0,0,0-.42,1.86c0,.32.1.64.16,1,.1-.53.19-1.06.29-1.59.16,1.07.34,2.14.51,3.2h0c.05.25.08.49.12.73a2.35,2.35,0,0,1,0-.26c.14.53.29,1.07.43,1.61a2.35,2.35,0,0,0-.42-1.8ZM48.39,232.26c.07-5.61-2.12-10.95-3.47-16.4a56.66,56.66,0,0,1,4.76-39.54l1-.12s0,.08,0,.12C52.45,190,60.51,201.94,69,212.75c4.63,5.85,9.48,11.55,14.32,17.24,6.76,7.95,13.55,15.92,21.18,23a115,115,0,0,0,19.76,15l.66.09a182.14,182.14,0,0,0,81.27-4.42c4.59-1.32,9.16-2.83,13.91-3.3,4.23-.42,8.5,0,12.75-.17a47.35,47.35,0,0,0,38.27-22.91l.28.14c7.54-14.21,10.95-30.25,14.26-46,4.3-20.44,8.56-41.9,2.62-61.93-.42-1.38-.87-2.74-1.37-4.09,6,5.6,11.95,11.42,15.83,18.63A74.74,74.74,0,0,1,307.56,156a462.52,462.52,0,0,1,21.2,102.58,122.91,122.91,0,0,1,.62,17.47c-.23,4.33-.86,8.63-1.49,12.91q-1.61,10.86-3.2,21.71c-2.73,18.54-5.62,37.58-14.87,53.89l.62.35A182.05,182.05,0,0,0,286.56,458c.15,8.56.94,17.25,4,25.24s8.48,15.22,10.36,23.63l.46.93c-2.46,2.83-7.84,2-9.29-1.49l-1.35-.23a9.46,9.46,0,0,1-16.27.1c-1.47,2.65-4.83,3.83-8,3.53a8,8,0,0,0,.42-8.77l-1.48.31a30.1,30.1,0,0,0,.31,8.37,8.49,8.49,0,0,1-1.23-.3c-3.83-1.19-6.79-4.16-9.59-7l-.59-.11c-.71,3.42-4.41,5.88-8,6.13h-.11v0a4.74,4.74,0,0,0,.64-6.68l-2.23,6.54v.18a26.22,26.22,0,0,1-9.09-2.77l.74,0a35.14,35.14,0,0,0,3.12-11.22l-.42-.14a202.72,202.72,0,0,0,11-66.94,77.13,77.13,0,0,1,.51-12.73,28.45,28.45,0,0,1,.92-3.83c1.05-3.25,2.81-6.23,3.88-9.47,3.3-10-.34-20.91-4-30.85l.06,0a19.39,19.39,0,0,1-1.3-3.37l-.4,0c-2.32,2.39-4,5.61-5.92,8.43a41.57,41.57,0,0,1-20.72,16c-7.76,2.7-16.11,3-24.33,3.33L170,395.79c-2.14.08-4.39.14-6.33-.79-2.6-1.23-4.1-3.94-5.55-6.43-.65-1.13-1.33-2.25-2-3.35l-.69.43a53.64,53.64,0,0,0,.43,15.84c1.16,7.87,3.08,15.78,2.87,23.71-.17,6.82-1.92,13.49-3,20.23-1.83,12-1.38,24.22-1.79,36.36-.06,1.92-.2,4-1.4,5.48-1.42,1.76-3.79,2.18-6,2.73a57.93,57.93,0,0,0,.19-6.32c-.29-.05-.6-.1-.91-.13a1.89,1.89,0,0,0-1.63-1.62c-1.27,0-1.73,1.47-1.66,2.83v0a14.67,14.67,0,0,0,.61,6.58,4.55,4.55,0,0,0-2.3,3.61,5,5,0,0,0-4.14-2.76c-2.08-.2-4.14.48-6.2.86a22,22,0,0,1-3.42.35,20.83,20.83,0,0,1-2.85-.08,44.51,44.51,0,0,1-12.87-3.47,18.37,18.37,0,0,0,1.86-5.72h-2.75a1,1,0,0,1,.8.62c-.32.36-.63.72-.91,1.1a1.3,1.3,0,0,0-.27-.39.88.88,0,0,0-.56-.29.41.41,0,0,0-.28-.42c-.32,0-.6.21-.81.46a9.71,9.71,0,0,0-1.58,2.69l-.79-.35a3.74,3.74,0,0,1-2-1.61,3.69,3.69,0,0,1-.11-2c.34-2.57.67-5.15,1-7.73l-1.09-.53a15.94,15.94,0,0,1-4.55,5.81c1.51-13.51,14.14-22.84,19.72-35.23,4.28-9.5,4.2-20.37,3.23-30.75a200.69,200.69,0,0,0-6.67-35.81,200.36,200.36,0,0,0-12.2-32.39q-1.77-3.72-3.71-7.38l1-.52a73.35,73.35,0,0,1-8.48-15.14c-5.15-12-8.54-25-16.12-35.65C65.38,273.77,46.29,262,47.06,243.78,47.23,239.92,48.35,236.13,48.39,232.26Z"/><path class="cls-5" d="M156,163.33a2.41,2.41,0,0,0,.53,1.76,17.9,17.9,0,0,0,3,2.33c.44.36,1,.59,1.42,1l.19.16a4.68,4.68,0,0,0,1,.75c1,.55,1.68,1.31,2.57,1.93a14.92,14.92,0,0,0,5.15,2c1.67.35,3.38.84,5.06,1.14a50.28,50.28,0,0,1,5.08,1.15c.52.16,1.09.28,1.64.46a5.25,5.25,0,0,1,.81.32,25.77,25.77,0,0,1,2.86,1.36,2.63,2.63,0,0,0,.72.43,149,149,0,0,1,2.15,26.6c0,.35,0,.7,0,1.05h-.45c-8.73,5-14.72,13.68-19.86,22.36S158,246,150.84,253.07a23.34,23.34,0,0,1-5.34,4.11,11.54,11.54,0,0,1-4.9,1.4,15.51,15.51,0,0,1-5.54-1,34.86,34.86,0,0,1-11.29-6,24.59,24.59,0,0,1-6.41-7.82c-4.28-8.38-2.85-18.45-.59-27.57q1.58-6.37,3.65-12.61a36.79,36.79,0,0,1,2.37-5.82,41.55,41.55,0,0,1,4-5.74q3.21-4.07,6.4-8.14a88.65,88.65,0,0,1,7.77-9c4.58-4.43,8.87-7.37,15-11.56Z"/><path class="cls-4" d="M171,163.11a1.47,1.47,0,0,0,.39.26A3.75,3.75,0,0,0,171,163.11Zm-1.09-9.27a8.64,8.64,0,0,1,.8-1.29c1.21-1.11,2.45-2.2,3.75-3.2.62-.47,1.26-.93,1.92-1.34a7.1,7.1,0,0,1,1.89-.3,9.41,9.41,0,0,1,7.33.67,3.21,3.21,0,0,1,1.66,3.09,4,4,0,0,1,.23.34,3.31,3.31,0,0,1,1-.37,6.12,6.12,0,0,1,.54,1.36l1.73.81a4.37,4.37,0,0,0,.4,1.91,1,1,0,0,0,.13.22,2.88,2.88,0,0,0,.18,1.53,2,2,0,0,0-.18.57,2.2,2.2,0,0,0,.37,1.49,1.61,1.61,0,0,0,1.4,1.13c.55.72,2.52.66,3.13.54a7.15,7.15,0,0,0,3-1,3.51,3.51,0,0,1,1.18,3.11,2.19,2.19,0,0,0,0-.27.79.79,0,0,0-.75,1,.77.77,0,0,0,.22.34,1.86,1.86,0,0,0-.35.72l.1.08a2.31,2.31,0,0,1-.31.39.55.55,0,0,1,0,.17l-.26.21a.67.67,0,0,0-.32.57.36.36,0,0,0,.14.27,4.5,4.5,0,0,1-.61.84l-.31.25c-.48.35-1,.68-1.48,1h0l-.28.1-.28.24c-2.31,1.32-4.81,2.38-6.59,4.34a16.67,16.67,0,0,1-1.8,1.94,3.12,3.12,0,0,1-1.26.21l.06-.42-.41-.15c0-.69,0-1.43-.05-1.65a14.65,14.65,0,0,0-.25-1.5c0-.56,0-1.12,0-1.68,0-.78-.2-1.46-.25-2.23-.06-1-.18-1.89-.21-2.85a18.47,18.47,0,0,0-.6-2.75,31.15,31.15,0,0,0-.58-3.32c-.07-.25-.17-.51-.26-.77a5.4,5.4,0,0,0-.45-1.91,5.42,5.42,0,0,0,.45,1.91.86.86,0,0,0,0,.17,9.45,9.45,0,0,1,.23,1.83c0,.48.22.92.25,1.4,0,.78-.11,1.61,0,2.39a18.45,18.45,0,0,0,.6,2.41c.4,1.49.14,3.08.58,4.54.08.26.16.55.23.86v3l-.1,0a100.81,100.81,0,0,0-12-3.2l-.21-.16-.27.06-.56-.12-3.85-.84,0,0,1.29.25a45.69,45.69,0,0,1-9.6-5.49,4.71,4.71,0,0,1-.49-.43,5.2,5.2,0,0,1,3.73-5,13.06,13.06,0,0,1,.73-1.19c1.36-1.13,2.66-2.32,3.94-3.54l.33-.15A8.7,8.7,0,0,1,169.88,153.84Zm3.52,3.64a.47.47,0,0,0,.09.12.2.2,0,0,0,0,.07,1.4,1.4,0,0,0,.21.77l-.14.06a1.27,1.27,0,0,0-.52,1c0,.1,0,.21,0,.32a.76.76,0,0,0-.39.37,1.08,1.08,0,0,0-.15.49h-.09c-.36.1-.65.62-.81,1a4.35,4.35,0,0,0-.86.22,16,16,0,0,1-1.88.63,5.72,5.72,0,0,1-.83.26,8.52,8.52,0,0,0-1,0c-.25.06-.52.13-.78.22l-1.53,0c.44,0,.94,0,1.45.06a9,9,0,0,0,1.38,0h0a10.57,10.57,0,0,0,2.47-.26,6.2,6.2,0,0,1,.72-.16l.81-.18c.24.65,1.19.93,1.44.1a1.18,1.18,0,0,0-.39-.44,3.34,3.34,0,0,0,1.16-.73c1.22-1.19,2.43-2.74,1.34-4.43-.68-1.06-1.28-2.33-2.05-3.38,0-.14-.1-.29-.34-.46l0,0c-.65-.42-1,.23-1,.86a1.08,1.08,0,0,0,.08.38h0a.08.08,0,0,1,0,0,1.18,1.18,0,0,0-.07.89.77.77,0,0,0,1,.48,1.25,1.25,0,0,0,.16.45,1,1,0,0,0,.51.36A1.75,1.75,0,0,0,173.4,157.48Z"/><path class="cls-4" d="M192.62,152.46a.53.53,0,0,1,0,.12,4.36,4.36,0,0,0-.46-.41.46.46,0,0,1,.12-.12l.21.21A.47.47,0,0,1,192.62,152.46Z"/><path class="cls-4" d="M193.34,158.66c-.08.55-.54,1.18-1.17,1.05a1,1,0,0,1-.56-.38,1.52,1.52,0,0,1,0-.56,2.86,2.86,0,0,1,.27-.81,1.24,1.24,0,0,0,.54.29.83.83,0,0,0,.29-.65A.89.89,0,0,1,193.34,158.66Z"/><path class="cls-4" d="M193.57,158.12a3.7,3.7,0,0,0,.09.4A1.06,1.06,0,0,1,193.57,158.12Z"/><path class="cls-4" d="M192.43,153.34a2.85,2.85,0,0,0-.46-.82.41.41,0,0,1,.05-.09.79.79,0,0,1,.45.39A.61.61,0,0,1,192.43,153.34Z"/><path class="cls-3" d="M294.31,100.69a121.34,121.34,0,0,1-.64,13.88c-.18,1.78-.9,4-2.69,4.07a3,3,0,0,1-1.94-.87c-3.71-3.29-2.78-9.39-5.27-13.68-2.39-4.13-7.25-5.68-11.64-7.82a29.54,29.54,0,0,1-2.92-1.63c-5.39-3.48-8.61-9.4-12.82-14.25-8.94-10.33-22.4-15.91-31.32-26.26a6.38,6.38,0,0,1-1.63-2.9c-.23-1.49.56-2.93,1.33-4.24l8-13.59.08-.09,1.64,1.59a114.23,114.23,0,0,0,23.94,17.55c3.15,1.73,6.43,3.34,9.11,5.74,9.45,8.45,9.59,24.69,20.2,31.63,1.61,1.05,3.43,1.86,4.65,3.35C294.1,95.2,294.29,98.05,294.31,100.69Z"/><path class="cls-5" d="M255.41,179.65l.21-.11a28,28,0,0,0,2.26-3.95l6.94-13.79a47.59,47.59,0,0,0,3.38-7.88c2.22-7.6.51-15.74-1.47-23.4-.89-3.4-1.84-6.85-3.74-9.81-3.7-5.79-10.47-9-17.2-10.29-4.63-.92-9.53-1.17-13.66-3.45-6.31-3.49-9.76-11.18-16.52-13.7-2.55-1-6.29-.43-6.83,2.25a4.86,4.86,0,0,0,.39,2.62c1.34,3.53,4.05,6.37,5.56,9.83,1.58,3.61,1.76,7.68,2.9,11.46,1.94,6.43,6.69,12.25,6.26,18.94l-.63.86c.71.51,1.41,1,2.09,1.57a61.54,61.54,0,0,1,6,5.36h0a103.63,103.63,0,0,1,10.3,12.34c2.24,3.08,4.39,6.24,6.52,9.39A100.45,100.45,0,0,1,255.41,179.65Zm-114.07-35,0,0c-4.9-12.16,5.29-26.65.19-38.74-1-2.33-2.71-4.57-5.16-5.2-4.07-1-7.66,2.54-10.94,5.15-11.86,9.5-30.22,9.2-40.06,20.78-3.59,4.23-5.57,9.56-7.3,14.83a45.06,45.06,0,0,0-2.63,11.63A30.46,30.46,0,0,0,77.3,164.8c4.15,11.74,17.42,21.25,29.81,22.51,6.82-15.92,19.56-28.42,32-40.47ZM133.69,42.87h0c8.23-9.84,24.13-11.4,36.92-9.72,6.21.82,12.7,2.36,18.57.19,3-1.12,5.66-3.16,8.64-4.44a36.39,36.39,0,0,1,7.07-2c6.38-1.37,13.25-2.69,19.25-.12,3.36,1.45,6.09,4,8.74,6.53l-.08.09-8,13.59c-.77,1.31-1.56,2.75-1.33,4.24a6.38,6.38,0,0,0,1.63,2.9c8.92,10.35,22.38,15.93,31.32,26.26,4.21,4.85,7.43,10.77,12.82,14.25a29.54,29.54,0,0,0,2.92,1.63l-1,1.07c6.15,8.85,12.15,18,15.86,28.08.5,1.35.95,2.71,1.37,4.09,5.94,20,1.68,41.49-2.62,61.93-3.31,15.77-6.72,31.81-14.26,46l-.28-.14a47.35,47.35,0,0,1-38.27,22.91c-4.25.17-8.52-.25-12.75.17-4.75.47-9.32,2-13.91,3.3A182.14,182.14,0,0,1,125,268.12l-.66-.09a115,115,0,0,1-19.76-15c-7.63-7.13-14.42-15.1-21.18-23C78.52,224.3,73.67,218.6,69,212.75,60.51,201.94,52.45,190,50.75,176.32c0,0,0-.08,0-.12-1.83-15.06,4.29-30,4.52-45.17l0,0A187.9,187.9,0,0,1,88.53,77.74c3.39-3.82,7-7.58,9.14-12.22a3.88,3.88,0,0,0,.41-3c-.44-1.07-1.66-1.57-2.76-1.94a75.76,75.76,0,0,0-21.26-3.77,100.42,100.42,0,0,1,14-14.31c3.46-2.8,7.35-5.34,11.75-5.95,3.83-.53,7.69.44,11.44,1.4C118.56,39.83,126.41,41,133.69,42.87ZM250.19,232.4a59.8,59.8,0,0,0,1.69-5.88,22.5,22.5,0,0,0,.94-6.13c-.08-2.39-.92-4.68-1.32-7s-.38-5-.81-7.47a30.07,30.07,0,0,0-2.72-7.72A78.65,78.65,0,0,0,208.76,161h0a2.45,2.45,0,0,0-.18-1.08,3.06,3.06,0,0,0-.77-1.17c-.38-.41-.66-.88-1-1.29a28.35,28.35,0,0,0-2.63-2.39,9.69,9.69,0,0,0-1.55-1A13.73,13.73,0,0,1,201,153a29.57,29.57,0,0,0-2.56-1.93,15.34,15.34,0,0,1-3.38-2c-1-1-2.29-1.41-3.38-2.21a15.43,15.43,0,0,0-3.1-2.11c-.94-.41-1.87-.92-2.79-1.39a9.33,9.33,0,0,1-1.81-1.17c-.39-.33-.9-1.15-1.4-.47l-.94.7a15.34,15.34,0,0,1-4,3c-.78.38-1.57.71-2.34,1.11a6.1,6.1,0,0,0-1.51,1.05c-.6.55-1.34.92-1.94,1.46s-1,.7-1.46,1.11-.72.78-1.15,1.11-.76.64-1.15,1-1.15.72-1.66,1.16a23.49,23.49,0,0,1-1.85,1.75,17.21,17.21,0,0,0-2.39,2c-.45.45-.87.95-1.35,1.37s-1.1.75-1.58,1.22-1,.8-1.47,1.28-1,.77-1.4,1.21a1.81,1.81,0,0,0-.48,1.06h0c-6.13,4.19-10.42,7.13-15,11.56a88.65,88.65,0,0,0-7.77,9Q130,188,126.8,192a41.55,41.55,0,0,0-4,5.74,36.79,36.79,0,0,0-2.37,5.82q-2.08,6.22-3.65,12.61c-2.26,9.12-3.69,19.19.59,27.57a24.59,24.59,0,0,0,6.41,7.82,34.86,34.86,0,0,0,11.29,6,15.51,15.51,0,0,0,5.54,1,11.54,11.54,0,0,0,4.9-1.4l1.65.07c3.84,3.95,9.86,4.64,15.36,4.75,23.5.5,48.86-3.41,67.72-16.56l0-.82q1.08,0,2.16,0c5.74-.25,11.65-2.49,15.1-7.08A19.33,19.33,0,0,0,250.19,232.4Z"/><path class="cls-3" d="M266.73,130.52c2,7.66,3.69,15.8,1.47,23.4a47.59,47.59,0,0,1-3.38,7.88l-6.94,13.79a28,28,0,0,1-2.26,3.95l-.21.11a100.45,100.45,0,0,0-7.2-11.75c-2.13-3.15-4.28-6.31-6.52-9.39l.4-.3c2.45,1.82,6,1.68,8.7.29a17.29,17.29,0,0,0,6.39-6.4c3-4.71,4.93-10.26,4.49-15.82s-3.52-11-8.52-13.52c-3.68-1.83-8-1.89-12.07-1.23a21.34,21.34,0,0,0-8.57,3.15,11.65,11.65,0,0,0-5.08,7.39c-.65,3.78,2.32,10.62,3.95,14.09a61.54,61.54,0,0,0-6-5.36c-.68-.54-1.38-1.06-2.09-1.57l.63-.86c.43-6.69-4.32-12.51-6.26-18.94-1.14-3.78-1.32-7.85-2.9-11.46-1.51-3.46-4.22-6.3-5.56-9.83a4.86,4.86,0,0,1-.39-2.62c.54-2.68,4.28-3.21,6.83-2.25,6.76,2.52,10.21,10.21,16.52,13.7,4.13,2.28,9,2.53,13.66,3.45,6.73,1.33,13.5,4.5,17.2,10.29C264.89,123.67,265.84,127.12,266.73,130.52Z"/><path class="cls-5" d="M251.38,370.36c3.61,9.94,7.25,20.81,4,30.85-1.07,3.24-2.83,6.22-3.88,9.47a28.45,28.45,0,0,0-.92,3.83c-12.14,7.65-27.46,8.71-41.93,8.68q-10.11,0-20.21-.54c-5.74-.3-11.65-.78-16.75-3.44-7-3.69-11.39-10.92-15.38-17.79l-.49.07a53.64,53.64,0,0,1-.43-15.84l.69-.43c.71,1.1,1.39,2.22,2,3.35,1.45,2.49,3,5.2,5.55,6.43,1.94.93,4.19.87,6.33.79l28.82-1.06c8.22-.3,16.57-.63,24.33-3.33a41.57,41.57,0,0,0,20.72-16c1.89-2.82,3.6-6,5.92-8.43l.4,0a19.39,19.39,0,0,0,1.3,3.37Z"/><path class="cls-5" d="M252.82,220.39a22.5,22.5,0,0,1-.94,6.13,59.8,59.8,0,0,1-1.69,5.88,19.33,19.33,0,0,1-2.67,5.14c-3.45,4.59-9.36,6.83-15.1,7.08q-1.08,0-2.16,0a18.57,18.57,0,0,1-7.9-2c-4.24-2.22-7.14-6.28-10.11-10A128.15,128.15,0,0,0,201.88,221c-5.06-5-10.69-9.78-13.61-16.27h-.16a149,149,0,0,0-2.15-26.6,1.14,1.14,0,0,0,.37,0,5.31,5.31,0,0,0,1.42-1c.9-.7,1.61-1.54,2.58-2.16.52-.34,1.07-.63,1.61-.92s1.07-.84,1.65-1.19c1.08-.65,2.16-1.15,3.27-1.74a17.11,17.11,0,0,0,2.77-2.1c.88-.75,2-1.24,2.9-2a14.79,14.79,0,0,1,1.43-1.19,9.29,9.29,0,0,0,1.43-.94,21.75,21.75,0,0,0,2.72-2.42,3,3,0,0,0,.64-1.5h0A78.65,78.65,0,0,1,248,198.16a30.07,30.07,0,0,1,2.72,7.72c.43,2.47.38,5,.81,7.47S252.74,218,252.82,220.39Z"/><path class="cls-4" d="M205.39,159.21a2.4,2.4,0,0,1,.78,1.47,1,1,0,0,1-.86.94,5.27,5.27,0,0,0,.16-1.36,2.79,2.79,0,0,0-.11-1.08S205.38,159.2,205.39,159.21Z"/><path class="cls-4" d="M205.47,160.26a5.27,5.27,0,0,1-.16,1.36.59.59,0,0,1-.26-.07A2.74,2.74,0,0,0,205.47,160.26Z"/><path class="cls-4" d="M205.36,159.18l-.08-.08a3.08,3.08,0,0,0-.32-.75A2.55,2.55,0,0,1,205.36,159.18Z"/><path class="cls-4" d="M201.64,159.24h-.3A3,3,0,0,1,201.64,159.24Z"/><path class="cls-4" d="M200.42,159.59c0-.05-.09-.1-.13-.16l.11,0A1.37,1.37,0,0,1,200.42,159.59Z"/><path class="cls-4" d="M201,164.81a1.09,1.09,0,0,1-1.13.38.47.47,0,0,1,.05-.1A3.58,3.58,0,0,1,201,164.81Z"/><path class="cls-4" d="M200.36,159.24a1.24,1.24,0,0,1,0,.16l-.11,0-.14-.15.19,0Z"/><path class="cls-4" d="M200.36,159.24h0l-.19,0-1.87-2.17,1.23.56a11.48,11.48,0,0,1,.72,1.22A1.14,1.14,0,0,1,200.36,159.24Z"/><path class="cls-4" d="M200.3,163.09a1.89,1.89,0,0,1,0,.53l-.17.12A3.81,3.81,0,0,0,200.3,163.09Z"/><path class="cls-4" d="M200.26,162.82a2.19,2.19,0,0,1,0,.27,3.81,3.81,0,0,1-.15.65,1.76,1.76,0,0,0-.42.44.77.77,0,0,1-.22-.34A.79.79,0,0,1,200.26,162.82Z"/><path class="cls-4" d="M198.28,157.11l1.87,2.17c-.26.05-.47.17-.74.21a4.29,4.29,0,0,1-.8,0,6.5,6.5,0,0,1-.94-1,3.49,3.49,0,0,0-1.85-2.49.13.13,0,0,0-.06-.07Z"/><path class="cls-4" d="M200.15,163.74a4.53,4.53,0,0,1-.23.57.64.64,0,0,1-.19-.13A1.76,1.76,0,0,1,200.15,163.74Z"/><path class="cls-4" d="M200,165.09a.47.47,0,0,0-.05.1.24.24,0,0,1-.12,0A.61.61,0,0,1,200,165.09Z"/><path class="cls-4" d="M199.92,164.31l0,0a4,4,0,0,1-.42.65l-.1-.08a1.86,1.86,0,0,1,.35-.72A.64.64,0,0,0,199.92,164.31Z"/><path class="cls-4" d="M199.79,165.16a.24.24,0,0,0,.12,0,6.46,6.46,0,0,1-1,1.49.66.66,0,0,1-.19-.09,4,4,0,0,0,.44-1.05A3.72,3.72,0,0,1,199.79,165.16Z"/><path class="cls-4" d="M199.59,159.56l-.07.07-.26.05-.14,0Z"/><path class="cls-4" d="M199.48,165a.81.81,0,0,0,.31.18,3.72,3.72,0,0,0-.67.38.55.55,0,0,0,0-.17A2.31,2.31,0,0,0,199.48,165Z"/><path class="cls-4" d="M199.51,157.67l-1.23-.56-2.47-2.88A11.48,11.48,0,0,1,199.51,157.67Z"/><path class="cls-4" d="M199,159.74l.15,0-.13,0Z"/><path class="cls-4" d="M198.86,165.75l.26-.21a4,4,0,0,1-.44,1.05.36.36,0,0,1-.14-.27A.67.67,0,0,1,198.86,165.75Z"/><path class="cls-4" d="M199,159.75l-.11,0h0l.11,0Z"/><path class="cls-4" d="M198.68,166.59a.66.66,0,0,0,.19.09,8.07,8.07,0,0,1-.8.75A4.5,4.5,0,0,0,198.68,166.59Z"/><path class="cls-4" d="M198.4,159.48a3.4,3.4,0,0,1,.45.28l-1.13.2h-.1a1.74,1.74,0,0,1,.75-.47Z"/><path class="cls-4" d="M198.61,159.46l-.21,0a3.64,3.64,0,0,0-.65-.25,3.45,3.45,0,0,0-.08-.72A6.5,6.5,0,0,0,198.61,159.46Z"/><path class="cls-4" d="M198.07,167.43a4.63,4.63,0,0,1-1.79,1.24c.51-.31,1-.64,1.48-1Z"/><path class="cls-4" d="M197.72,160l-.13,0,0,0Z"/><path class="cls-4" d="M197.62,160l0,0-.92.2c-.71.17-1.37.46-2,0a1.41,1.41,0,0,1-.18-.17l0,0a.8.8,0,0,0,.2-.46,5.4,5.4,0,0,0,1.88.47A8.5,8.5,0,0,0,197.62,160Z"/><path class="cls-4" d="M196,168.77l.28-.1c-.18.12-.37.23-.56.34Z"/><path class="cls-4" d="M195.76,156l-.37-.18a2.94,2.94,0,0,0-.32-.67C195.32,155.38,195.54,155.66,195.76,156Z"/><path class="cls-4" d="M195.71,169l-.09.07c-1.26.88-2.27,2-3.58,2.87l-.87.55a5.54,5.54,0,0,1-1.56,1.07,11.71,11.71,0,0,0-1.11,1,3.73,3.73,0,0,1-1.18.77,16.67,16.67,0,0,0,1.8-1.94C190.9,171.39,193.4,170.33,195.71,169Z"/><path class="cls-4" d="M195.39,155.77,193,154.64a3.54,3.54,0,0,0,.35-.51,1.2,1.2,0,0,0,.18-.75,21.31,21.31,0,0,1,1.58,1.72A2.94,2.94,0,0,1,195.39,155.77Z"/><path class="cls-4" d="M194.73,159.49a.8.8,0,0,1-.2.46l0,0a4.18,4.18,0,0,1-.56-.82.59.59,0,0,1,.19,0A2.56,2.56,0,0,0,194.73,159.49Z"/><path class="cls-4" d="M194.13,159.11c.29,0,.59.1.6.38A2.56,2.56,0,0,1,194.13,159.11Z"/><path class="cls-4" d="M193.85,155.47a5.71,5.71,0,0,0-.72,0,.93.93,0,0,0-.25-.77l.07-.06Z"/><path class="cls-4" d="M192.88,154.71a.93.93,0,0,1,.25.77l-.17,0c-.14-.17-.27-.21-.39,0a4.45,4.45,0,0,0,.07-.66A.72.72,0,0,0,192.88,154.71Z"/><path class="cls-4" d="M193,155.5l.17,0a1.74,1.74,0,0,1-.23.77c-.52.9-1.3.12-1.66-.51a1.34,1.34,0,0,1,.69-1.11.57.57,0,0,0,.29.25.6.6,0,0,0,.42,0,4.45,4.45,0,0,1-.07.66C192.69,155.29,192.82,155.33,193,155.5Z"/><path class="cls-4" d="M193,154.64a0,0,0,0,0,0,0h0Z"/><path class="cls-4" d="M192.94,154.64l-.3-.14a.76.76,0,0,0,0-.15Z"/><path class="cls-4" d="M192.64,154.59v.28a.6.6,0,0,1-.42,0,.57.57,0,0,1-.29-.25.94.94,0,0,1,.48-.09A.78.78,0,0,1,192.64,154.59Z"/><path class="cls-4" d="M192.63,154.35a.76.76,0,0,1,0,.15l-.74-.35a.73.73,0,0,0,.36-.15Z"/><path class="cls-4" d="M192.36,152l-.05,0-.18-.14h.09A.67.67,0,0,1,192.36,152Z"/><path class="cls-4" d="M192.13,151.91l.18.14a.46.46,0,0,0-.12.12,1.79,1.79,0,0,0-.26-.23A.69.69,0,0,1,192.13,151.91Z"/><path class="cls-4" d="M192.18,153.93l.08.07a.73.73,0,0,1-.36.15l-.24-.1c0-.07,0-.13,0-.18A1.23,1.23,0,0,0,192.18,153.93Z"/><path class="cls-4" d="M192.22,151.92h-.09a.47.47,0,0,0-.12-.09A.67.67,0,0,1,192.22,151.92Z"/><path class="cls-4" d="M192,153.79l.15.14a1.23,1.23,0,0,1-.57-.06h0a3.68,3.68,0,0,1-.05-.53l.14.14a.91.91,0,0,0,0,.4A.51.51,0,0,0,192,153.79Z"/><path class="cls-4" d="M192,151.82a.47.47,0,0,1,.12.09.69.69,0,0,0-.2,0,1.35,1.35,0,0,0-.19-.16A.51.51,0,0,1,192,151.82Z"/><path class="cls-4" d="M192.08,152.32l-.06.11-.16,0,0,0C192,152.19,192,152.23,192.08,152.32Z"/><path class="cls-4" d="M191.86,152.39a.69.69,0,0,1,.11.13,3.6,3.6,0,0,0-.27.95l-.14-.14h0a1.51,1.51,0,0,1,.2-.85.61.61,0,0,0,.07-.1Z"/><path class="cls-4" d="M192,151.82a.51.51,0,0,0-.27,0,24.93,24.93,0,0,0-2.26-1.72A17.36,17.36,0,0,1,192,151.82Z"/><path class="cls-4" d="M192,153.79a.51.51,0,0,1-.29.08.91.91,0,0,1,0-.4Z"/><path class="cls-4" d="M191.66,154.05l.24.1a.66.66,0,0,1-.2,0A.36.36,0,0,0,191.66,154.05Z"/><path class="cls-4" d="M191.84,152.37l0,0h0Z"/><path class="cls-4" d="M191.83,152.38a.61.61,0,0,1-.07.1,1.51,1.51,0,0,0-.2.85c-.16-.15-.32-.3-.48-.47a1.59,1.59,0,0,1,.16-.32A.74.74,0,0,1,191.83,152.38Z"/><path class="cls-4" d="M191.66,154.05l-.64-.3a1.1,1.1,0,0,1,0-.65.91.91,0,0,0,.61.76h0S191.64,154,191.66,154.05Z"/><path class="cls-4" d="M191.34,151.93l-.1.1a1.59,1.59,0,0,0-.37.63c-.43-.43-.87-.87-1.29-1.31A3.42,3.42,0,0,1,191.34,151.93Z"/><path class="cls-4" d="M191.24,152.54a1.59,1.59,0,0,0-.16.32s0,0,0,0A.51.51,0,0,1,191.24,152.54Z"/><path class="cls-4" d="M189.58,151.35a3.64,3.64,0,0,0-1.14.09,6.21,6.21,0,0,0-1-1.4c-.57-.58-1.31-1.37-.88-2C187.51,149.14,188.53,150.25,189.58,151.35Z"/><path class="cls-4" d="M186.06,175.5a3.12,3.12,0,0,0,1.26-.21,2.79,2.79,0,0,1-1.32.63Z"/><path class="cls-4" d="M185.45,175.43h0a4.48,4.48,0,0,0-.09-.64l.1,0v.07A4.73,4.73,0,0,0,185.45,175.43Z"/><path class="cls-4" d="M185.41,170.1c0,.56,0,1.12,0,1.68-.07-.31-.15-.6-.23-.86-.44-1.46-.18-3-.58-4.54A18.45,18.45,0,0,1,184,164c-.09-.78.07-1.61,0-2.39,0-.48-.21-.92-.25-1.4a9.45,9.45,0,0,0-.23-1.83.86.86,0,0,1,0-.17c.09.26.19.52.26.77a31.15,31.15,0,0,1,.58,3.32A18.47,18.47,0,0,1,185,165c0,1,.15,1.89.21,2.85C185.21,168.64,185.41,169.32,185.41,170.1Z"/><path class="cls-4" d="M183.06,156.27a5.4,5.4,0,0,1,.45,1.91A5.42,5.42,0,0,1,183.06,156.27Z"/><path class="cls-4" d="M173.49,157.6c.17-.65,1.15-.81,1.11,0S173.8,158,173.49,157.6Z"/><path class="cls-4" d="M173.69,158.44c.3-.08.82-.07.75.37C174.18,159.14,173.88,158.84,173.69,158.44Z"/><path class="cls-4" d="M174.15,155.92c.35.74-.32.82-.86.61C173.36,156,173.62,155.61,174.15,155.92Z"/><path class="cls-4" d="M174,160c.09.32-.4.52-.66.41a.59.59,0,0,1-.3-.61A1.16,1.16,0,0,1,174,160Z"/><path class="cls-4" d="M172.47,160.66c.37,0,1.12.28.87.67A.64.64,0,0,1,172.47,160.66Z"/><path class="cls-4" d="M173.29,171.58l-.48-.1.27-.06Z"/><path class="cls-4" d="M173,153.54c-.12-.17-.25-.34-.38-.49l0,0C172.94,153.25,173,153.4,173,153.54Z"/><path class="cls-4" d="M172.25,171.36l.56.12a5.09,5.09,0,0,1-3.61-.51c-.3-.16-.55-.32-.8-.45Z"/><path class="cls-4" d="M172.59,162.08a1.18,1.18,0,0,1,.39.44c-.25.83-1.2.55-1.44-.1A6.43,6.43,0,0,0,172.59,162.08Z"/><path class="cls-4" d="M171.84,161.62a1.92,1.92,0,0,1,.64-.05Z"/><path class="cls-4" d="M172.59,162.08a6.43,6.43,0,0,1-1.05.34.85.85,0,0,1,0-.55A1.37,1.37,0,0,1,172.59,162.08Z"/><path class="cls-4" d="M171.75,154.3s0,.06,0,.09l-.06,0A.08.08,0,0,0,171.75,154.3Z"/><path class="cls-4" d="M171.57,161.65s0,0,0,.06a13.57,13.57,0,0,1-1.55.64,17.23,17.23,0,0,0-1.77.53,3.66,3.66,0,0,1-.69.14h0c-.43,0-.87,0-1.3,0,.26-.09.53-.16.78-.22a8.52,8.52,0,0,1,1,0,5.72,5.72,0,0,0,.83-.26,16,16,0,0,0,1.88-.63A4.35,4.35,0,0,1,171.57,161.65Z"/><path class="cls-4" d="M171,163.11a3.75,3.75,0,0,1,.39.26A1.47,1.47,0,0,1,171,163.11Z"/><path class="cls-4" d="M170.68,152.55a8.64,8.64,0,0,0-.8,1.29,8.7,8.7,0,0,0-1.58,1.09l-.33.15C168.88,154.24,169.77,153.38,170.68,152.55Z"/><path class="cls-4" d="M168.37,170.5l0,0-.73-.16Z"/><path class="cls-4" d="M166.21,163c.43,0,.87,0,1.3,0a9,9,0,0,1-1.38,0S166.18,163,166.21,163Z"/><path class="cls-4" d="M166.21,163s-.06,0-.08,0c-.51,0-1-.06-1.45-.06Z"/><path class="cls-4" d="M164,158.62a11.06,11.06,0,0,1,3.94-3.54C166.69,156.3,165.39,157.49,164,158.62Z"/><path class="cls-4" d="M164,158.62a13.06,13.06,0,0,0-.73,1.19,5.2,5.2,0,0,0-3.73,5,1.67,1.67,0,0,1-.55-1.07.77.77,0,0,0,.39.17c.13-1.86,1.84-3.14,3.33-4.27C163.18,159.32,163.61,159,164,158.62Z"/><path class="cls-4" d="M159,163.71c-.1-.14,0-.39.15-.37a.92.92,0,0,0-.1.42A.12.12,0,0,1,159,163.71Z"/><path class="cls-3" d="M141.51,105.89c5.1,12.09-5.09,26.58-.19,38.74l0,0-2.24,2.19c-12.43,12-25.17,24.55-32,40.47-12.39-1.26-25.66-10.77-29.81-22.51a30.46,30.46,0,0,1-1.88-11.72,45.06,45.06,0,0,1,2.63-11.63c1.73-5.27,3.71-10.6,7.3-14.83,9.84-11.58,28.2-11.28,40.06-20.78,3.28-2.61,6.87-6.2,10.94-5.15C138.8,101.32,140.53,103.56,141.51,105.89Zm-16.82,49.45c2.67-5.51,1.26-12.25-1.83-17.54-2.31-4-6.25-7.68-10.8-7.21a6.82,6.82,0,0,1-2.2.09c-6.67,1-13.23,4.51-16.72,10.28s-3.81,13.49-.27,19.23,11,8.93,17.48,7a24,24,0,0,0,7-3.85C120.26,161.13,123.1,158.63,124.69,155.34Z"/><path class="cls-3" d="M98.08,62.53a3.88,3.88,0,0,1-.41,3c-2.14,4.64-5.75,8.4-9.14,12.22A187.9,187.9,0,0,0,55.21,131c-.2.46-.39.93-.58,1.4l-4.9-4.23-7.58,18.9c-.57,1.41-1.33,3-2.81,3.39-2.38.6-4-2.26-4.79-4.59q-2.86-8.77-5.74-17.55c-.74-2.3-1.27-5.33.72-6.69a12.2,12.2,0,0,1,2.61-1c2.16-.83,3.54-2.94,4.55-5,3.23-6.71,4.15-14.39,7.69-21C47,89.93,50.77,86,54.32,81.9c7-8,13-16.9,19.74-25.08a75.76,75.76,0,0,1,21.26,3.77C96.42,61,97.64,61.46,98.08,62.53Z"/><path class="cls-6" d="M196.28,168.67a4.63,4.63,0,0,0,1.79-1.24"/><path class="cls-6" d="M187.32,175.29a3.73,3.73,0,0,0,1.18-.77,11.71,11.71,0,0,1,1.11-1,5.54,5.54,0,0,0,1.56-1.07L192,172c1.31-.83,2.32-2,3.58-2.87l.09-.07"/><path class="cls-6" d="M173.29,171.58a8.58,8.58,0,0,0,2,1.32c1.38.66,2.89,1,4.28,1.6a15.16,15.16,0,0,0,2.17.94,4,4,0,0,0,1.14.15,5.12,5.12,0,0,0,1.88-.38,3.48,3.48,0,0,0,.62.21h0l.24,0a2.22,2.22,0,0,0,.37,0"/><path class="cls-6" d="M168.4,170.52c.25.13.5.29.8.45a5.09,5.09,0,0,0,3.61.51"/><path class="cls-6" d="M159.57,164.83a4.81,4.81,0,0,0,1.87,3.44c1.18,1,2.33,1,3.8,1.14a6,6,0,0,1,3.13,1.09"/><path class="cls-6" d="M168,155.08a11.06,11.06,0,0,0-3.94,3.54"/><path class="cls-6" d="M176.35,148a6,6,0,0,0-2.08,1.07,5.27,5.27,0,0,0-1.1,1.22,7.82,7.82,0,0,0-2.49,2.25"/><path class="cls-7" d="M196.28,168.67c.51-.31,1-.64,1.48-1l.31-.25a8.07,8.07,0,0,0,.8-.75,6.46,6.46,0,0,0,1-1.49.47.47,0,0,1,.05-.1,4.38,4.38,0,0,0,.24-.66,3.24,3.24,0,0,0,.12-.81,1.89,1.89,0,0,0,0-.53,2.19,2.19,0,0,0,0-.27.79.79,0,0,0-.75,1,.77.77,0,0,0,.22.34.64.64,0,0,0,.19.13,1,1,0,0,0,.28.12,1.28,1.28,0,0,0,.55,0,1.43,1.43,0,0,0,.9-1.11,2.08,2.08,0,0,0-1.33.32l-.17.12a1.76,1.76,0,0,0-.42.44,1.86,1.86,0,0,0-.35.72l.1.08a.81.81,0,0,0,.31.18.24.24,0,0,0,.12,0,1.09,1.09,0,0,0,1.13-.38,3.58,3.58,0,0,0-1.08.28.61.61,0,0,0-.17.07,3.72,3.72,0,0,0-.67.38l-.26.21a.67.67,0,0,0-.32.57.36.36,0,0,0,.14.27.66.66,0,0,0,.19.09,1.49,1.49,0,0,0,.81-.07,9.93,9.93,0,0,0,4.65-3,5.65,5.65,0,0,0,1-2,5.27,5.27,0,0,0,.16-1.36,3.81,3.81,0,0,0-.19-1.16,3.08,3.08,0,0,0-.32-.75,2.55,2.55,0,0,1,.4.83,2.79,2.79,0,0,1,.11,1.08,2.74,2.74,0,0,1-.42,1.29.59.59,0,0,0,.26.07,1,1,0,0,0,.86-.94,2.4,2.4,0,0,0-.78-1.47s0,0,0,0l-.08-.08a59.84,59.84,0,0,0-9.2-7.72c-3.9-2.85-7.86-5.74-12.41-7.38a1.89,1.89,0,0,0-1.86,0,1.38,1.38,0,0,0,0,1.83"/><path class="cls-7" d="M159,163.76a1.67,1.67,0,0,0,.55,1.07,4.71,4.71,0,0,0,.49.43,45.69,45.69,0,0,0,9.6,5.49l-1.29-.25-.7-.14.73.16,3.85.84.56.12.48.1a100.81,100.81,0,0,1,12,3.2l.1,0a2.65,2.65,0,0,1,.3.11l.41.15-.06.42-.06.42a2.79,2.79,0,0,0,1.32-.63,16.67,16.67,0,0,0,1.8-1.94c1.78-2,4.28-3,6.59-4.34.19-.11.38-.22.56-.34"/><path class="cls-7" d="M159,163.76a.12.12,0,0,1-.05,0c-.1-.14,0-.39.15-.37A.92.92,0,0,0,159,163.76Z"/><path class="cls-7" d="M180.74,146.4a10.26,10.26,0,0,0-4.39,1.61c-.66.41-1.3.87-1.92,1.34-1.3,1-2.54,2.09-3.75,3.2-.91.83-1.8,1.69-2.71,2.53-1.28,1.22-2.58,2.41-3.94,3.54-.42.36-.85.7-1.29,1-1.49,1.13-3.2,2.41-3.33,4.27a.77.77,0,0,1-.39-.17"/><path class="cls-8" d="M167.54,163a10.57,10.57,0,0,0,2.47-.26,6.2,6.2,0,0,1,.72-.16l.81-.18a6.43,6.43,0,0,0,1.05-.34,3.34,3.34,0,0,0,1.16-.73c1.22-1.19,2.43-2.74,1.34-4.43-.68-1.06-1.28-2.33-2.05-3.38-.12-.17-.25-.34-.38-.49l-.09-.1"/><path class="cls-8" d="M167.51,163a9,9,0,0,1-1.38,0c-.51,0-1-.06-1.45-.06l1.53,0c.43,0,.87,0,1.3,0"/><path class="cls-8" d="M167.51,163h0"/><path class="cls-8" d="M171.84,161.62a1.4,1.4,0,0,0-.29.09,13.57,13.57,0,0,1-1.55.64,17.23,17.23,0,0,0-1.77.53,3.66,3.66,0,0,1-.69.14"/><path class="cls-8" d="M171.84,161.62l.64-.05A1.92,1.92,0,0,0,171.84,161.62Z"/><path class="cls-8" d="M167.11,163.21a15.56,15.56,0,0,1-2.17.68,2.05,2.05,0,0,1,1.19-.85s.05,0,.08,0c.26-.09.53-.16.78-.22a8.52,8.52,0,0,1,1,0,5.72,5.72,0,0,0,.83-.26,16,16,0,0,0,1.88-.63,4.35,4.35,0,0,1,.86-.22l.27,0"/><path class="cls-8" d="M171,163.11a1.41,1.41,0,0,0-1-.16"/><path class="cls-8" d="M171,163.11a1.47,1.47,0,0,0,.39.26A3.75,3.75,0,0,0,171,163.11Z"/><path class="cls-8" d="M172.47,160.66h-.09c-.36.1-.65.62-.81,1,0,0,0,0,0,.06l0,.07s0,.07,0,.09a.85.85,0,0,0,0,.55c.24.65,1.19.93,1.44.1a1.18,1.18,0,0,0-.39-.44,1.37,1.37,0,0,0-1.09-.21.78.78,0,0,0-.33.16,1,1,0,0,0-.44.57.57.57,0,0,0,.24.51"/><path class="cls-8" d="M172.47,160.66a.64.64,0,0,0,.87.67C173.59,160.94,172.84,160.63,172.47,160.66Z"/><path class="cls-8" d="M173,159.8a.76.76,0,0,0-.39.37,1.08,1.08,0,0,0-.15.49"/><path class="cls-8" d="M173,159.8a.59.59,0,0,0,.3.61c.26.11.75-.09.66-.41A1.16,1.16,0,0,0,173,159.8Z"/><path class="cls-8" d="M173.69,158.44l-.14.06a1.27,1.27,0,0,0-.52,1c0,.1,0,.21,0,.32"/><path class="cls-8" d="M173.69,158.44c.19.4.49.7.75.37C174.51,158.37,174,158.36,173.69,158.44Z"/><path class="cls-8" d="M173.49,157.6a.2.2,0,0,0,0,.07,1.4,1.4,0,0,0,.21.77"/><path class="cls-8" d="M173.49,157.6c.31.41,1.07.88,1.11,0S173.66,157,173.49,157.6Z"/><path class="cls-8" d="M173.29,156.53a1.75,1.75,0,0,0,.11.95.47.47,0,0,0,.09.12"/><path class="cls-8" d="M173.29,156.53c.54.21,1.21.13.86-.61C173.62,155.61,173.36,156,173.29,156.53Z"/><path class="cls-8" d="M171.75,154.3a.08.08,0,0,1,0,0,1.18,1.18,0,0,0-.07.89.77.77,0,0,0,1,.48,1,1,0,0,0,.77-.95l-.07-.05c-.43-.31-.64,0-.71.39a2.48,2.48,0,0,0,0,.61,1.25,1.25,0,0,0,.16.45,1,1,0,0,0,.51.36"/><path class="cls-8" d="M172.57,152.48c-.36.43-1.13.71-1.06,1.41a.63.63,0,0,0,.22.46l.06,0,.08,0c.37.14.43-.12.71-.32a1.54,1.54,0,0,0,.35-.31.38.38,0,0,0,.11-.26c0-.14-.1-.29-.34-.46l0,0c-.65-.42-1,.23-1,.86a1.08,1.08,0,0,0,.08.38h0s0,.06,0,.09a1.2,1.2,0,0,0,.82.72.64.64,0,0,0,.45-.1.51.51,0,0,0,.26-.29.77.77,0,0,0-.39-.92.82.82,0,0,0-.37-.13c-.33,0-.63.27-.81.62"/><path class="cls-8" d="M199.12,159.71l.47-.15-.07.07a1.93,1.93,0,0,1-.3.27l-.1.08a7.15,7.15,0,0,1-3,1c-.61.12-2.58.18-3.13-.54a.67.67,0,0,1-.14-.51"/><path class="cls-8" d="M193.67,158.54a1.4,1.4,0,0,0,.46.57,2.56,2.56,0,0,0,.6.38,5.4,5.4,0,0,0,1.88.47,8.5,8.5,0,0,0,1,0h.1a6.42,6.42,0,0,0,1.15-.19l.11,0,.13,0"/><path class="cls-8" d="M193.57,158v.16a1.06,1.06,0,0,0,.09.4"/><path class="cls-8" d="M193.66,158.52a3.7,3.7,0,0,1-.09-.4"/><path class="cls-8" d="M193.66,158.52v0"/><path class="cls-8" d="M199.11,159.71l-.15,0-.11,0-1.13.2-.13,0-.92.2c-.71.17-1.37.46-2,0a1.41,1.41,0,0,1-.18-.17,4.18,4.18,0,0,1-.56-.82,3.76,3.76,0,0,1-.27-.62"/><path class="cls-8" d="M199.11,159.71h0"/><path class="cls-8" d="M201.29,159.24a6,6,0,0,0-.89.16l-.11,0-.77.2-.26.05-.14,0"/><path class="cls-8" d="M201.34,159.24h.3A3,3,0,0,0,201.34,159.24Z"/><path class="cls-8" d="M201.34,159.24h-.05"/><path class="cls-8" d="M191.61,153.87s0,.11,0,.18a.36.36,0,0,1,0,.11,1.86,1.86,0,0,0,.23.47.57.57,0,0,0,.29.25.6.6,0,0,0,.42,0,.72.72,0,0,0,.24-.16l.07-.06a0,0,0,0,1,0,0,3.54,3.54,0,0,0,.35-.51,1.2,1.2,0,0,0,.18-.75.59.59,0,0,0,0-.23,1.56,1.56,0,0,0-1.23-1.23h-.09a.69.69,0,0,0-.2,0,.9.9,0,0,0-.35.18,1.39,1.39,0,0,0-.23.25.71.71,0,0,0-.11.17,1.59,1.59,0,0,0-.16.32,2.25,2.25,0,0,0-.08.24,1.1,1.1,0,0,0,0,.65.69.69,0,0,0,.47.38.76.76,0,0,0,.21,0,.66.66,0,0,0,.2,0,.73.73,0,0,0,.36-.15.86.86,0,0,0,.14-.13,2.39,2.39,0,0,0,.13-.21,1.56,1.56,0,0,0,.15-.91.47.47,0,0,0,0-.17.53.53,0,0,0,0-.12.47.47,0,0,0-.1-.2.63.63,0,0,0-.16-.23.93.93,0,0,0-.35-.21.51.51,0,0,0-.27,0,.71.71,0,0,0-.4.15l-.1.1a1.59,1.59,0,0,0-.37.63,3.26,3.26,0,0,0-.16,1,4.37,4.37,0,0,0,.4,1.91,1,1,0,0,0,.13.22c.36.63,1.14,1.41,1.66.51a1.74,1.74,0,0,0,.23-.77.93.93,0,0,0-.25-.77.5.5,0,0,0-.24-.12.78.78,0,0,0-.23-.05.94.94,0,0,0-.48.09,1.34,1.34,0,0,0-.69,1.11,2.88,2.88,0,0,0,.18,1.53,2.16,2.16,0,0,0,.47.69,1.24,1.24,0,0,0,.54.29.83.83,0,0,0,.29-.65.84.84,0,0,0-.34-.79c-.43-.21-.76.09-1,.46a2,2,0,0,0-.18.57,2.2,2.2,0,0,0,.37,1.49,1,1,0,0,0,.56.38c.63.13,1.09-.5,1.17-1.05a.89.89,0,0,0-.62-1.06.27.27,0,0,0-.13,0,.71.71,0,0,0-.7.38,2.86,2.86,0,0,0-.27.81,1.52,1.52,0,0,0,0,.56,1.61,1.61,0,0,0,1.4,1.13,2,2,0,0,0,.77,0,1.49,1.49,0,0,0,.72-.45l0,0a.8.8,0,0,0,.2-.46c0-.28-.31-.42-.6-.38a.59.59,0,0,0-.19,0,.67.67,0,0,0-.37.89.84.84,0,0,0,.21.38c.68.7,2.61.32,3.31-.06a2.6,2.6,0,0,0,.5-.39l0,0a1.74,1.74,0,0,1,.75-.47h0l.21,0a4.29,4.29,0,0,0,.8,0c.27,0,.48-.16.74-.21l.19,0h0c.31,0,.62,0,.93,0"/><path class="cls-8" d="M192.41,152l0,0-.05,0a.46.46,0,0,0-.12.12,1,1,0,0,0-.11.15l-.06.11a.41.41,0,0,0-.05.09,3.6,3.6,0,0,0-.27.95.91.91,0,0,0,0,.4.51.51,0,0,0,.29-.08,1.1,1.1,0,0,0,.4-.45.61.61,0,0,0,0-.52.79.79,0,0,0-.45-.39l-.16,0h0a.74.74,0,0,0-.59.16.51.51,0,0,0-.19.28.06.06,0,0,0,0,.05.66.66,0,0,0,0,.23.91.91,0,0,0,.61.76h0a1.23,1.23,0,0,0,.57.06.9.9,0,0,0,.22-.06l0,0,.12-.07a.68.68,0,0,0,.12-1,1.07,1.07,0,0,0-.39-.3.7.7,0,0,1-.21-.13c-.08-.09-.09-.13-.24.05h0a.61.61,0,0,1-.07.1,1.51,1.51,0,0,0-.2.85h0a3.68,3.68,0,0,0,.05.53"/><path class="cls-8" d="M185.65,176.9a.81.81,0,0,0,0-.15"/><path class="cls-8" d="M183.51,158.18c.09.26.19.52.26.77a31.15,31.15,0,0,1,.58,3.32A18.47,18.47,0,0,1,185,165c0,1,.15,1.89.21,2.85.05.77.25,1.45.25,2.23,0,.56,0,1.12,0,1.68v3.11a4.73,4.73,0,0,0,0,.54c0,.25.08.49.12.73a2.88,2.88,0,0,1,.07.59"/><path class="cls-8" d="M183.51,158.18a5.4,5.4,0,0,0-.45-1.91A5.42,5.42,0,0,0,183.51,158.18Z"/><path class="cls-8" d="M185.17,174v-2a13.15,13.15,0,0,0,.06,2.51c0,.13.05.25.08.37a4.48,4.48,0,0,1,.09.64,1,1,0,0,1,0,.17,1.77,1.77,0,0,0,.05.69.19.19,0,0,0,.11-.12,2.15,2.15,0,0,0,.12-.69,4.7,4.7,0,0,0,0-.54c0-.69,0-1.43-.05-1.65a14.65,14.65,0,0,0-.25-1.5c-.07-.31-.15-.6-.23-.86-.44-1.46-.18-3-.58-4.54A18.45,18.45,0,0,1,184,164c-.09-.78.07-1.61,0-2.39,0-.48-.21-.92-.25-1.4a9.45,9.45,0,0,0-.23-1.83.86.86,0,0,1,0-.17"/><path class="cls-8" d="M156,163.33c-6.13,4.19-10.42,7.13-15,11.56a88.65,88.65,0,0,0-7.77,9Q130,188,126.8,192a41.55,41.55,0,0,0-4,5.74,36.79,36.79,0,0,0-2.37,5.82q-2.08,6.22-3.65,12.61c-2.26,9.12-3.69,19.19.59,27.57a24.59,24.59,0,0,0,6.41,7.82,34.86,34.86,0,0,0,11.29,6,15.51,15.51,0,0,0,5.54,1,11.54,11.54,0,0,0,4.9-1.4,23.34,23.34,0,0,0,5.34-4.11c7.15-7.11,11.82-16.26,16.94-24.94s11.13-17.32,19.86-22.36"/><path class="cls-8" d="M185.85,177.45c0,.22.08.44.11.67a149,149,0,0,1,2.15,26.6c0,.35,0,.7,0,1.05v.37"/><path class="cls-8" d="M208.76,161A78.65,78.65,0,0,1,248,198.16a30.07,30.07,0,0,1,2.72,7.72c.43,2.47.38,5,.81,7.47s1.24,4.65,1.32,7a22.5,22.5,0,0,1-.94,6.13,59.8,59.8,0,0,1-1.69,5.88,19.33,19.33,0,0,1-2.67,5.14c-3.45,4.59-9.36,6.83-15.1,7.08q-1.08,0-2.16,0a18.57,18.57,0,0,1-7.9-2c-4.24-2.22-7.14-6.28-10.11-10A128.15,128.15,0,0,0,201.88,221c-5.06-5-10.69-9.78-13.61-16.27"/><path class="cls-8" d="M147.15,257.25c3.84,3.95,9.86,4.64,15.36,4.75,23.5.5,48.86-3.41,67.72-16.56"/><path class="cls-9" d="M109.86,130.68c-6.67,1-13.23,4.51-16.72,10.28s-3.81,13.49-.27,19.23,11,8.93,17.48,7a24,24,0,0,0,7-3.85c2.94-2.17,5.78-4.67,7.37-8,2.67-5.51,1.26-12.25-1.83-17.54-2.31-4-6.25-7.68-10.8-7.21A6.82,6.82,0,0,1,109.86,130.68Z"/><path class="cls-9" d="M165.41,114.91c-2.33,8.48-8.9,15-15.22,21.16l-8.85,8.58-2.24,2.19c-12.43,12-25.17,24.55-32,40.47a66.31,66.31,0,0,0-3.22,42.36c1.34,5.18,3.37,10.28,6.78,14.41,3.28,4,8,7,13.1,7.5l.56,0"/><path class="cls-9" d="M107.11,187.31c-12.39-1.26-25.66-10.77-29.81-22.51a30.46,30.46,0,0,1-1.88-11.72,45.06,45.06,0,0,1,2.63-11.63c1.73-5.27,3.71-10.6,7.3-14.83,9.84-11.58,28.2-11.28,40.06-20.78,3.28-2.61,6.87-6.2,10.94-5.15,2.45.63,4.18,2.87,5.16,5.2,5.1,12.09-5.09,26.58-.19,38.74"/><path class="cls-9" d="M133.69,42.87c8.23-9.84,24.13-11.4,36.92-9.72,6.21.82,12.7,2.36,18.57.19,3-1.12,5.66-3.16,8.64-4.44a36.39,36.39,0,0,1,7.07-2c6.38-1.37,13.25-2.69,19.25-.12,3.36,1.45,6.09,4,8.74,6.53l1.64,1.59a114.23,114.23,0,0,0,23.94,17.55c3.15,1.73,6.43,3.34,9.11,5.74,9.45,8.45,9.59,24.69,20.2,31.63,1.61,1.05,3.43,1.86,4.65,3.35,1.68,2,1.87,4.88,1.89,7.52a121.34,121.34,0,0,1-.64,13.88c-.18,1.78-.9,4-2.69,4.07a3,3,0,0,1-1.94-.87c-3.71-3.29-2.78-9.39-5.27-13.68-2.39-4.13-7.25-5.68-11.64-7.82a29.54,29.54,0,0,1-2.92-1.63c-5.39-3.48-8.61-9.4-12.82-14.25-8.94-10.33-22.4-15.91-31.32-26.26a6.38,6.38,0,0,1-1.63-2.9c-.23-1.49.56-2.93,1.33-4.24l8-13.59"/><path class="cls-9" d="M133.12,43.58c.18-.24.37-.48.57-.71"/><path class="cls-9" d="M133.69,42.87h0c-7.28-1.88-15.13-3-22.41-4.91-3.75-1-7.61-1.93-11.44-1.4-4.4.61-8.29,3.15-11.75,5.95a100.42,100.42,0,0,0-14,14.31C67.32,65,61.27,73.87,54.32,81.9c-3.55,4.08-7.37,8-9.94,12.79-3.54,6.56-4.46,14.24-7.69,21-1,2.08-2.39,4.19-4.55,5a12.2,12.2,0,0,0-2.61,1c-2,1.36-1.46,4.39-.72,6.69q2.88,8.78,5.74,17.55c.75,2.33,2.41,5.19,4.79,4.59,1.48-.38,2.24-2,2.81-3.39l7.58-18.9,4.9,4.23c.19-.47.38-.94.58-1.4A187.9,187.9,0,0,1,88.53,77.74c3.39-3.82,7-7.58,9.14-12.22a3.88,3.88,0,0,0,.41-3c-.44-1.07-1.66-1.57-2.76-1.94a75.76,75.76,0,0,0-21.26-3.77l-.67,0"/><path class="cls-9" d="M55.25,131c-.23,15.18-6.35,30.11-4.52,45.17,0,0,0,.08,0,.12C52.45,190,60.51,201.94,69,212.75c4.63,5.85,9.48,11.55,14.32,17.24,6.76,7.95,13.55,15.92,21.18,23a115,115,0,0,0,19.76,15"/><path class="cls-9" d="M125,268.12a182.14,182.14,0,0,0,81.27-4.42c4.59-1.32,9.16-2.83,13.91-3.3,4.23-.42,8.5,0,12.75-.17a47.35,47.35,0,0,0,38.27-22.91"/><path class="cls-9" d="M271.09,97.34c6.15,8.85,12.15,18,15.86,28.08.5,1.35.95,2.71,1.37,4.09,5.94,20,1.68,41.49-2.62,61.93-3.31,15.77-6.72,31.81-14.26,46l-.89,1.63"/><path class="cls-9" d="M49.68,176.32a56.66,56.66,0,0,0-4.76,39.54c1.35,5.45,3.54,10.79,3.47,16.4,0,3.87-1.16,7.66-1.33,11.52-.77,18.25,18.32,30,28.92,44.86,7.58,10.65,11,23.63,16.12,35.65a73.35,73.35,0,0,0,8.48,15.14c4.44,5.94,10,10.8,16.92,13.24,12.85,4.53,27.41-.33,40.54,3.31,8.75,2.43,16.66,8.58,25.75,8.31,4.68-.14,9.12-2,13.43-3.84l56-23.86,30.86-13.15"/><path class="cls-9" d="M99.53,339.88l0,.07q1.94,3.66,3.71,7.38a200.36,200.36,0,0,1,12.2,32.39,200.69,200.69,0,0,1,6.67,35.81c1,10.38,1,21.25-3.23,30.75-5.58,12.39-18.21,21.72-19.72,35.23a15.94,15.94,0,0,0,4.55-5.81,15.57,15.57,0,0,0,1.28-4.32"/><path class="cls-9" d="M140.75,495a4.55,4.55,0,0,1,2.3-3.61,8.42,8.42,0,0,1,.76-.45,1.59,1.59,0,0,1,.29-.15l.27-.12a6,6,0,0,1,.86-.32h0l.38-.1.81-.21c2.25-.55,4.62-1,6-2.73,1.2-1.51,1.34-3.56,1.4-5.48.41-12.14,0-24.35,1.79-36.36,1-6.74,2.79-13.41,3-20.23.21-7.93-1.71-15.84-2.87-23.71a53.64,53.64,0,0,1-.43-15.84"/><path class="cls-9" d="M140.75,495a3.09,3.09,0,0,1,.22,1A2.83,2.83,0,0,1,140.75,495Z"/><path class="cls-9" d="M104.84,476.23c-.35,2.58-.68,5.16-1,7.73a3.69,3.69,0,0,0,.11,2,3.74,3.74,0,0,0,2,1.61l.79.35,1,.44.35.15.29.13.48.21.25.1,0,0,.17.07.84.35,1.1.47a44.51,44.51,0,0,0,12.87,3.47,20.83,20.83,0,0,0,2.85.08,22,22,0,0,0,3.42-.35c2.06-.38,4.12-1.06,6.2-.86a5,5,0,0,1,4.14,2.76"/><path class="cls-9" d="M137.93,364.16A98.74,98.74,0,0,1,156,385.22c.71,1.1,1.39,2.22,2,3.35,1.45,2.49,3,5.2,5.55,6.43,1.94.93,4.19.87,6.33.79l28.82-1.06c8.22-.3,16.57-.63,24.33-3.33a41.57,41.57,0,0,0,20.72-16c1.89-2.82,3.6-6,5.92-8.43A11.57,11.57,0,0,1,254,364"/><path class="cls-9" d="M156.26,401.42c4,6.87,8.34,14.1,15.38,17.79,5.1,2.66,11,3.14,16.75,3.44q10.1.54,20.21.54c14.47,0,29.79-1,41.93-8.68.68-.42,1.34-.86,2-1.33"/><path class="cls-9" d="M251.38,370.36c3.61,9.94,7.25,20.81,4,30.85-1.07,3.24-2.83,6.22-3.88,9.47a28.45,28.45,0,0,0-.92,3.83,77.13,77.13,0,0,0-.51,12.73,202.72,202.72,0,0,1-11,66.94c-.26.73-.51,1.45-.77,2.17"/><path class="cls-9" d="M286.59,125.07c.11.12.24.24.36.35,6,5.6,11.95,11.42,15.83,18.63A74.74,74.74,0,0,1,307.56,156a462.52,462.52,0,0,1,21.2,102.58,122.91,122.91,0,0,1,.62,17.47c-.23,4.33-.86,8.63-1.49,12.91q-1.61,10.86-3.2,21.71c-2.73,18.54-5.62,37.58-14.87,53.89"/><path class="cls-9" d="M311.42,364.55c.28.32.58-.55.15-.64s-.76.34-1,.71l-.16.28A182.05,182.05,0,0,0,286.56,458c.15,8.56.94,17.25,4,25.24s8.48,15.22,10.36,23.63"/><path class="cls-9" d="M239.42,494.32a35.14,35.14,0,0,1-3.12,11.22"/><path class="cls-9" d="M250.14,367a19.39,19.39,0,0,0,1.3,3.37c.12.24.25.47.38.71"/><path class="cls-9" d="M136.35,489.67c-.16.17.26.39.4.19s0-.46-.1-.67a26.76,26.76,0,0,1-1.3-21.51"/><path class="cls-9" d="M117,490.59a96.1,96.1,0,0,1,2.69-25.18"/><path class="cls-9" d="M101.58,348.74c.35,0,.35-.39.18-.68a.59.59,0,0,0-.64-.34c-.59.18-.81.89-1,1.5-2.42,9.31-12,14.47-19.3,20.76-1.48,1.28-3,2.8-3.3,4.74a5.94,5.94,0,0,0,1.27,4.4A11.07,11.07,0,0,0,80,380.47l.34.35c.31.28.61.56.93.81l.42.34a30.78,30.78,0,0,0,8.58,4.7c.24.1.48.18.73.26l1.2.4.78.22a48.26,48.26,0,0,0,8.66,1.63c.71.07,1.41.13,2.11.13a10.58,10.58,0,0,0,1.78-.12,8.17,8.17,0,0,0,1.11-.27l.66-.24a12,12,0,0,0,3.76-2.87,29.66,29.66,0,0,0,4.47-6.09l.41-.77"/><path class="cls-9" d="M99.55,386.53a83.83,83.83,0,0,1,8.19-16.24"/><path class="cls-9" d="M87.37,383.58a44.87,44.87,0,0,1,11.48-13.85"/><path class="cls-9" d="M255.62,502l-.87-12.59"/><path class="cls-9" d="M273.19,503.42a33.63,33.63,0,0,0-2.1-11.91"/><path class="cls-9" d="M292.94,502.68a16.84,16.84,0,0,0-5.21-8.93"/><path class="cls-9" d="M231.39,146.17a103.63,103.63,0,0,1,10.3,12.34c2.24,3.08,4.39,6.24,6.52,9.39a100.45,100.45,0,0,1,7.2,11.75,40.8,40.8,0,0,1,1.74,3.95c2.78,7.37,3.24,15.41,3,23.29-.32,9.85-2.35,19.24-10,25.51"/><path class="cls-9" d="M191.77,114.87c6.25,5.83,10.21,6,16.78,11.47,2.58,2.15,4.69,4.81,7.16,7.09a83.5,83.5,0,0,0,7.55,5.8c.71.51,1.41,1,2.09,1.57a61.54,61.54,0,0,1,6,5.36"/><path class="cls-9" d="M223.89,138.37c.43-6.69-4.32-12.51-6.26-18.94-1.14-3.78-1.32-7.85-2.9-11.46-1.51-3.46-4.22-6.3-5.56-9.83a4.86,4.86,0,0,1-.39-2.62c.54-2.68,4.28-3.21,6.83-2.25,6.76,2.52,10.21,10.21,16.52,13.7,4.13,2.28,9,2.53,13.66,3.45,6.73,1.33,13.5,4.5,17.2,10.29,1.9,3,2.85,6.41,3.74,9.81,2,7.66,3.69,15.8,1.47,23.4a47.59,47.59,0,0,1-3.38,7.88l-6.94,13.79a28,28,0,0,1-2.26,3.95"/><path class="cls-9" d="M231.39,146.17h0c-1.63-3.47-4.6-10.31-3.95-14.09a11.65,11.65,0,0,1,5.08-7.39,21.34,21.34,0,0,1,8.57-3.15c4.06-.66,8.39-.6,12.07,1.23,5,2.47,8.09,8,8.52,13.52s-1.49,11.11-4.49,15.82a17.29,17.29,0,0,1-6.39,6.4c-2.73,1.39-6.25,1.53-8.7-.29"/><path class="cls-9" d="M243.53,134.27c-.38-.38-1-.18-1.49.08-2,1.09-3.54,3.33-3,5.54a5.69,5.69,0,0,0,.72,1.68,6.13,6.13,0,0,0,1.59,1.91,4.58,4.58,0,0,0,4.24.59,5.56,5.56,0,0,0,3.12-3,5,5,0,0,0-.49-5,3.8,3.8,0,0,0-3.9-1.28,3.17,3.17,0,0,0-.85.41,3.91,3.91,0,0,0-1.05,1.17,1.91,1.91,0,0,0-.15.28,4.84,4.84,0,0,0,0,4.31,2.6,2.6,0,0,0,2.68,1.59,2.09,2.09,0,0,0,1.39-1.28,3.56,3.56,0,0,0,.13-1.94,5.44,5.44,0,0,0-1.19-2.53,1.63,1.63,0,0,0-1.59-.72,1.4,1.4,0,0,0-.79.81,1.11,1.11,0,0,0-.07.16,4.34,4.34,0,0,0-.33,2.25c.07.62.39,1.34,1,1.43a1.15,1.15,0,0,0,1.16-1,2.62,2.62,0,0,0-.33-1.61,1.69,1.69,0,0,0-.51,1.63"/><path class="cls-9" d="M106.71,144a5.44,5.44,0,0,0,.33,10.87,3.62,3.62,0,0,0,1.49-.28,4.7,4.7,0,0,0,1.92-1.86A9,9,0,0,0,112,149a5,5,0,0,0-1-3.81,3.45,3.45,0,0,0-3.65-1.11,2.44,2.44,0,0,0-.43.21c-1.49.81-2.08,2.79-2.14,4.54V149a3.85,3.85,0,0,0,.44,2.15,1.68,1.68,0,0,0,2,.77,2,2,0,0,0,.88-1,4.83,4.83,0,0,0,.13-4,1.7,1.7,0,0,0-.94-1c-.73-.24-1.46.41-1.85,1.08a4.1,4.1,0,0,0-.57,2,2.45,2.45,0,0,0,.65,1.74,1.31,1.31,0,0,0,.67.39c.63.11,1.19-.45,1.45-1a3.77,3.77,0,0,0,.29-2.22c0-.23-.17-.52-.41-.53a.61.61,0,0,0-.33.14,3.19,3.19,0,0,0-1,1.22"/><path class="cls-10" d="M108.92,142.79c.46.29-.36,1.07-.62.6s.28-.67.63-.66a.42.42,0,0,1,.37.22"/><path class="cls-10" d="M244.68,133.73c.46.28-.37,1.06-.63.58s.29-.66.63-.65a.38.38,0,0,1,.37.23"/><path class="cls-8" d="M126.27,69.21c7.46-5.54,16.8-7.78,25.88-9.69,6.44-1.35,13-2.61,19.57-1.69,9.89,1.39,19.07,7.71,29,6.68"/><path class="cls-8" d="M181.67,142.45a15.34,15.34,0,0,1-4,3c-.78.38-1.57.71-2.34,1.11a6.1,6.1,0,0,0-1.51,1.05c-.6.55-1.34.92-1.94,1.46s-1,.7-1.46,1.11-.72.78-1.15,1.11-.76.64-1.15,1-1.15.72-1.66,1.16a23.49,23.49,0,0,1-1.85,1.75,17.21,17.21,0,0,0-2.39,2c-.45.45-.87.95-1.35,1.37s-1.1.75-1.58,1.22-1,.8-1.47,1.28-1,.77-1.4,1.21a1.81,1.81,0,0,0-.48,1.06,2.41,2.41,0,0,0,.53,1.76,17.9,17.9,0,0,0,3,2.33c.44.36,1,.59,1.42,1l.19.16a4.68,4.68,0,0,0,1,.75c1,.55,1.68,1.31,2.57,1.93a14.92,14.92,0,0,0,5.15,2c1.67.35,3.38.84,5.06,1.14a50.28,50.28,0,0,1,5.08,1.15c.52.16,1.09.28,1.64.46a5.25,5.25,0,0,1,.81.32,25.77,25.77,0,0,1,2.86,1.36,2.63,2.63,0,0,0,.72.43,1.14,1.14,0,0,0,.37,0,5.31,5.31,0,0,0,1.42-1c.9-.7,1.61-1.54,2.58-2.16.52-.34,1.07-.63,1.61-.92s1.07-.84,1.65-1.19c1.08-.65,2.16-1.15,3.27-1.74a17.11,17.11,0,0,0,2.77-2.1c.88-.75,2-1.24,2.9-2a14.79,14.79,0,0,1,1.43-1.19,9.29,9.29,0,0,0,1.43-.94,21.75,21.75,0,0,0,2.72-2.42,3,3,0,0,0,.64-1.5,2.45,2.45,0,0,0-.18-1.08,3.06,3.06,0,0,0-.77-1.17c-.38-.41-.66-.88-1-1.29a28.35,28.35,0,0,0-2.63-2.39,9.69,9.69,0,0,0-1.55-1A13.73,13.73,0,0,1,201,153a29.57,29.57,0,0,0-2.56-1.93,15.34,15.34,0,0,1-3.38-2c-1-1-2.29-1.41-3.38-2.21a15.43,15.43,0,0,0-3.1-2.11c-.94-.41-1.87-.92-2.79-1.39a9.33,9.33,0,0,1-1.81-1.17c-.39-.33-.9-1.15-1.4-.47"/><path class="cls-9" d="M191.77,114.87c-2-2.24-2.31-6.13-1.58-9a27.47,27.47,0,0,1,3.94-8,49.21,49.21,0,0,1,7.37-9.68,25,25,0,0,1,28.12-3.69"/><path class="cls-9" d="M165.41,115.61C166,107.73,162,95.06,155.2,91s-15.37-4.61-22.86-2.08c-6.16,2.08-11.57,6.06-17.8,7.92-5.65,1.69-11.73,1.56-17.34,3.4-6.86,2.24-12.43,7.21-17.79,12.06"/><path class="cls-9" d="M143.66,71.76a19.17,19.17,0,0,1,15,.16c2.37,1.06,4.5,2.58,6.88,3.61s5.2,1.48,7.52.34"/><path class="cls-9" d="M48.4,228.85c.67,8.55,5.25,16.42,11.19,22.61S72.78,262.38,80,267.06q12.41,8.08,24.82,16.16"/><path class="cls-9" d="M152.8,300.07c5.46,1.25,9.17,6.27,14.14,8.86,5.21,2.72,11.44,2.57,17.23,1.58s11.48-2.73,17.34-3c6.29-.3,13,1,18.6-1.9"/><path class="cls-9" d="M294.31,255a61.39,61.39,0,0,1-23,47.54"/><path class="cls-9" d="M109.23,485.43a.21.21,0,0,0,.21-.23.41.41,0,0,0-.28-.42c-.32,0-.6.21-.81.46a9.71,9.71,0,0,0-1.58,2.69,10.05,10.05,0,0,0-.57,5.37l.33-.48.08-.11c.3-.44.59-.88.89-1.31l.41-.6,1.2-1.75,0-.07.14-.21.32-.47a4.5,4.5,0,0,0,.7-1.29,1.61,1.61,0,0,0,.08-.48,1.46,1.46,0,0,0-.13-.65,1.3,1.3,0,0,0-.27-.39.88.88,0,0,0-.56-.29.43.43,0,0,0-.16,0,23.19,23.19,0,0,0-1.52,3.18,23.47,23.47,0,0,0-1.23,4.45c0,.08,0,.16,0,.24,0-.11.08-.23.12-.35a19.31,19.31,0,0,1,1.07-2.67c.22-.48.46-.94.72-1.39a21.35,21.35,0,0,1,1.87-2.77c.28-.38.59-.74.91-1.1a1,1,0,0,0-.8-.62h2.75a18.37,18.37,0,0,1-1.86,5.72,18.67,18.67,0,0,1-4.14,5.34,11.34,11.34,0,0,1,.37-3.12,12.06,12.06,0,0,1,.41-1.29,12.55,12.55,0,0,1,1-1.94,11.32,11.32,0,0,1,1.44-1.85l.39-.39a5.65,5.65,0,0,1-.54,2.78,6,6,0,0,1-.4.7"/><path class="cls-9" d="M125.24,490.41a9.93,9.93,0,0,1,.44-2.41c0,.89,0,1.79,0,2.68l.48-2.79a10.58,10.58,0,0,0,.49,3.91c0-.86,0-1.74,0-2.61"/><path class="cls-9" d="M125.23,490.71a1.28,1.28,0,0,1,0-.19"/><path class="cls-9" d="M125.1,490.24c.05.25.08.49.12.73a2.35,2.35,0,0,1,0-.26"/><path class="cls-9" d="M124.3,488.62c.1-.53.19-1.06.29-1.59.16,1.07.34,2.14.51,3.2"/><path class="cls-9" d="M124.24,489l.06-.32"/><path class="cls-9" d="M124.3,488.63a3.52,3.52,0,0,1,0,1.88,13.33,13.33,0,0,0,0-1.55h0a12.3,12.3,0,0,0-.45-2.48c0,1.6,0,3.19,0,4.77.14-.76.27-1.52.41-2.28"/><path class="cls-9" d="M124.3,488.63h0"/><path class="cls-9" d="M127.69,487.81a3.31,3.31,0,0,0-1-1.93,1.67,1.67,0,0,0-1.39-.55,1.25,1.25,0,0,0-.77.47,2.74,2.74,0,0,0-.42,1.86c0,.32.1.64.16,1"/><path class="cls-9" d="M123,484.41a10.28,10.28,0,0,0,1.14,8.93,9.76,9.76,0,0,0,3.08,3,6.05,6.05,0,0,1-.23-2.94c.23-1.93.93-3.93.7-5.6"/><path class="cls-9" d="M125.08,490.16a.19.19,0,0,1,0,.07h0l.13.47h0c.14.53.29,1.07.43,1.61a2.35,2.35,0,0,0-.42-1.8v-.11a13.36,13.36,0,0,0-.68-4.61,11.41,11.41,0,0,0-.7-1.75c.9-1.26,3.11-.52,3.71.9a4.72,4.72,0,0,1,.12,2.86h0a15.72,15.72,0,0,1-.47,1.66"/><path class="cls-9" d="M108.74,491c.12-.66.25-1.32.37-2,0,0,0-.06,0-.09l.1-.56c0,.12,0,.25.07.37a2.66,2.66,0,0,1,0,.28,5.55,5.55,0,0,1-1.68,4.43,8.21,8.21,0,0,1-.15-1.39q0-.34,0-.69a8.89,8.89,0,0,1,.18-1.36,8.79,8.79,0,0,1,.43-1.52,9.26,9.26,0,0,1,1.89-3,7.3,7.3,0,0,1,.87-.8"/><path class="cls-9" d="M142.44,484.78a5.4,5.4,0,0,0,.12.82,20.62,20.62,0,0,0,.87,2.87c.17.47.36.93.57,1.39.12.26.24.52.37.78.26.51.54,1,.85,1.51s.41.68.64,1a2.82,2.82,0,0,0,.21.31"/><path class="cls-9" d="M142.65,483.64a10.52,10.52,0,0,0-.21,1.12v0a14.67,14.67,0,0,0,.61,6.58,14.24,14.24,0,0,0,1.88,3.76q-.36-1.41-.6-2.85c-.09-.5-.16-1-.23-1.51,0-.3-.07-.6-.1-.9a33,33,0,0,1-.18-4v-.31a2.5,2.5,0,0,0-.07.26,8.73,8.73,0,0,0-.32,2.64,9.2,9.2,0,0,0,.38,2.44,10.08,10.08,0,0,0,1,2.33c.14-.36.26-.72.37-1.09s.14-.5.2-.75a11.87,11.87,0,0,0,.22-1.19,14.26,14.26,0,0,0,.14-3.33,1.24,1.24,0,0,0-.28-.79.5.5,0,0,0-.14-.1c-.33-.16-.73.07-1.1.05a.64.64,0,0,1-.44-.16.18.18,0,0,1-.07-.05,1.37,1.37,0,0,1,.18-1.9,2.6,2.6,0,0,1,1.8-.38c.31,0,.62.08.91.13a57.93,57.93,0,0,1-.19,6.32c-.09,1.24-.23,2.48-.39,3.71-.07-.18-.14-.37-.2-.55a12.24,12.24,0,0,1-.44-1.76c-.07-.36-.12-.72-.16-1.09a13.5,13.5,0,0,1,.19-4c0-.07,0-.14.05-.21a7,7,0,0,0,.26-2.4.7.7,0,0,0,0-.14,1.89,1.89,0,0,0-1.63-1.62c-1.27,0-1.73,1.47-1.66,2.83"/><path class="cls-9" d="M83.26,377.71H83.2a5.5,5.5,0,0,0-4.38,1.42,5.58,5.58,0,0,0-2,4.12A18.62,18.62,0,0,1,80,380.47a17.86,17.86,0,0,1,3.13-1.77l.48-.2a19.87,19.87,0,0,0-5.16,4.21,7.79,7.79,0,0,0,3.24-.74,7.68,7.68,0,0,0,2.75-2.14"/><path class="cls-9" d="M94.29,382.07a8.33,8.33,0,0,0-4.07,4.6,7.84,7.84,0,0,0-.48,2.95A7.69,7.69,0,0,1,91,386.93a8,8,0,0,1,2.81-2.53l-1.61,2.93-1.91,3.44,2.69-3.22,2.23-2.66"/><path class="cls-9" d="M94,383.73l.42-1.69.88,1.26"/><path class="cls-9" d="M104.66,384.65a14.09,14.09,0,0,0-1,4.66,13.87,13.87,0,0,0,.59,4.53c.45-1.53.85-3.08,1.19-4.65.3-1.36.55-2.73.76-4.1a.78.78,0,0,1,0-.21c0-.63,1.23-.94,1.67-.33a2.67,2.67,0,0,1,0,2.4c-.2.57-.39,1.15-.59,1.73l-1,3"/><path class="cls-9" d="M234.93,505.31l.63.28a26.22,26.22,0,0,0,9.09,2.77,14.23,14.23,0,0,0,1.6,0h.11c3.59-.25,7.29-2.71,8-6.13a5.7,5.7,0,0,0,.13-1.09"/><path class="cls-9" d="M255,502.33c2.8,2.86,5.76,5.83,9.59,7a8.49,8.49,0,0,0,1.23.3,5.92,5.92,0,0,0,.75.09c3.15.3,6.51-.88,8-3.53a5.12,5.12,0,0,0,.31-.62"/><path class="cls-9" d="M273.82,501.28v3.15"/><path class="cls-9" d="M274,505.37a8.52,8.52,0,0,0,.46.84,9.46,9.46,0,0,0,16.27-.1,8.84,8.84,0,0,0,1.11-2.69"/><path class="cls-9" d="M292.12,506.34c1.45,3.46,6.83,4.32,9.29,1.49"/><path class="cls-9" d="M265.46,501.28a30.1,30.1,0,0,0,.31,8.37l.15.79a7.76,7.76,0,0,0,1-9.47"/><path class="cls-9" d="M283.28,505.38c0,.73-.08,1.46-.11,2.2"/><path class="cls-9" d="M283.28,505.38l1.86,3.83a7.09,7.09,0,0,0-1.66-7.63C283.41,502.84,283.35,504.11,283.28,505.38Z"/><path class="cls-9" d="M282.29,503.34l1,2"/><path class="cls-9" d="M244.42,501.28l.24,6.9,2.23-6.54a4.74,4.74,0,0,1-.64,6.68"/></g></g></svg>