<svg xmlns="http://www.w3.org/2000/svg" viewBox="0 0 186.66 291.1"><defs><style>.cls-1{fill:#f7e543;}.cls-2{fill:#fff;}.cls-3{fill:#231f20;}.cls-4{fill:#754c29;}.cls-5{fill:none;stroke:#231f20;stroke-miterlimit:10;stroke-width:0.54px;}.cls-6{fill:#414042;}</style></defs><title>pugyellow</title><g id="Layer_2" data-name="Layer 2"><g id="Layer_1-2" data-name="Layer 1"><rect class="cls-1" width="186.66" height="291.1"/></g><g id="Layer_2-2" data-name="Layer 2"><path class="cls-2" d="M102.51,90.81c.34.38.67.77,1,1.16-.14,0-.25.09-.4.12a3.1,3.1,0,0,1-.43,0,3.51,3.51,0,0,1-.51-.51,1.88,1.88,0,0,0-1-1.35l0,0Z"/><path class="cls-2" d="M99.07,89.21l.39.18a.11.11,0,0,1,0,0l-.13,0a.47.47,0,0,0-.26,0,1.23,1.23,0,0,1-.12-.26A.41.41,0,0,0,99.07,89.21Z"/><path class="cls-2" d="M99.41,88.94l-.06-.17a.32.32,0,0,0,0-.28.51.51,0,0,0-.25-.21l0-.06a.26.26,0,0,0,.11.07.65.65,0,0,1,.21.16A.89.89,0,0,1,99.41,88.94Z"/><path class="cls-2" d="M103.55,94.75a2.12,2.12,0,0,0,.06-.44,1.14,1.14,0,0,1,.72-.17.76.76,0,0,1-.49.6A.57.57,0,0,1,103.55,94.75Z"/><path class="cls-2" d="M102.39,96.37a2.39,2.39,0,0,1-1,.67c.27-.17.54-.34.8-.54Z"/><path class="cls-2" d="M102.21,92.34h0Z"/><path class="cls-2" d="M87.62,88.34a5.06,5.06,0,0,0-.43.7,3.91,3.91,0,0,0-.85.59l-.18.08Z"/><path class="cls-2" d="M99,88.31a.21.21,0,0,0,0-.06,0,0,0,0,1,0,0,.23.23,0,0,1,.07.07,1.73,1.73,0,0,0-.15.51l-.07-.07h0A.81.81,0,0,1,99,88.31Z"/><path class="cls-2" d="M99.47,88.36a.29.29,0,0,1,0,.09.65.65,0,0,0-.21-.16.26.26,0,0,1-.11-.07.16.16,0,0,1,.06-.08A2.4,2.4,0,0,1,99.47,88.36Z"/><path class="cls-2" d="M95.7,99.53c0,.12,0,.51,0,.89l-.16-.06V98.72A6.18,6.18,0,0,1,95.7,99.53Z"/><path class="cls-2" d="M102.15,92.34a1,1,0,0,1,.41-.25h0l.25.15-.61.11Z"/><path class="cls-2" d="M98.71,88.34a.89.89,0,0,0-.08.17,0,0,0,0,1,0,0A.27.27,0,0,1,98.71,88.34Z"/><path class="cls-2" d="M97,117.06c0-.19,0-.38,0-.57h.09c1.58,3.5,4.61,6.08,7.34,8.78a69.17,69.17,0,0,1,5.6,6.25c1.6,2,3.16,4.23,5.45,5.43a10.12,10.12,0,0,0,4.26,1.06v.44c-10.18,7.1-23.86,9.21-36.54,8.94-3-.06-6.21-.43-8.29-2.56l-.88,0a12.33,12.33,0,0,0,2.87-2.22c3.86-3.83,6.38-8.77,9.15-13.45s6-9.35,10.71-12.07Z"/><path class="cls-2" d="M81.3,94.36c0-.07,0-.21.09-.2a.4.4,0,0,0-.06.23S81.31,94.37,81.3,94.36Z"/><path class="cls-2" d="M103.38,94.7h0a.44.44,0,0,0,.16.06,2.67,2.67,0,0,1-.14.36.32.32,0,0,0-.09,0,.29.29,0,0,1-.16-.09A2.56,2.56,0,0,0,103.38,94.7Z"/><path class="cls-3" d="M99.92,88.79a12.46,12.46,0,0,1,.86.93,1.69,1.69,0,0,1,.17.36l-1.31-.61a2,2,0,0,0,.19-.28A.57.57,0,0,0,99.92,88.79Z"/><path class="cls-2" d="M103,92.31l-.12-.08.07,0h0l.08,0,.14,0Z"/><path class="cls-2" d="M99.23,88.14,99.08,88h.11l.1.08S99.25,88.11,99.23,88.14Z"/><path class="cls-2" d="M88.15,89.08c0-.34.19-.7.54-.47a2.69,2.69,0,0,1,.2.27.22.22,0,0,1-.06.14.35.35,0,0,0-.2-.07c-.17,0-.34.14-.43.33A.53.53,0,0,1,88.15,89.08Z"/><path class="cls-2" d="M88.91,89.67a.25.25,0,0,0,.13-.16l0,0a.54.54,0,0,1-.41.51,1.15,1.15,0,0,1,0-.32A.4.4,0,0,0,88.91,89.67Z"/><path class="cls-2" d="M101.27,97.09l.15,0-.3.18Z"/><path class="cls-2" d="M95.44,98.25c-.24-.78-.1-1.64-.31-2.45a9.9,9.9,0,0,1-.33-1.3c0-.42,0-.86,0-1.28,0-.27-.12-.5-.14-.76a4.78,4.78,0,0,0-.12-1,.29.29,0,0,1,0-.09c0,.14.1.28.14.42A17.62,17.62,0,0,1,95,93.59a10.53,10.53,0,0,1,.32,1.48c0,.52.08,1,.11,1.54s.14.78.14,1.2,0,.61,0,.91A4.49,4.49,0,0,0,95.44,98.25Z"/><path class="cls-2" d="M88.66,89.73a.63.63,0,0,1-.44-.39l0,0c.2.07.23-.06.38-.17a.81.81,0,0,0,.19-.17.41.41,0,0,1,.21.49C88.81,89.34,88.7,89.5,88.66,89.73Z"/><path class="cls-2" d="M102.51,90.81l-1.34-1.56a6,6,0,0,1,2,1.86Z"/><path class="cls-2" d="M99,89.05a.24.24,0,0,0,.16,0l.08.08a.67.67,0,0,1-.31,0h0a2.3,2.3,0,0,1,0-.28l.07.07A.42.42,0,0,0,99,89.05Z"/><path class="cls-2" d="M99.26,89.13a.41.41,0,0,1-.19.08l-.13-.06,0-.1a.67.67,0,0,0,.31,0Z"/><path class="cls-4" d="M136.71,79.57a14.11,14.11,0,0,1-2.42,8.53,9.36,9.36,0,0,1-3.45,3.45,4.58,4.58,0,0,1-4.7-.15l-.21.16a56.55,56.55,0,0,0-5.56-6.66h0c-.88-1.88-2.49-5.57-2.13-7.61a6.28,6.28,0,0,1,2.73-4,11.42,11.42,0,0,1,4.63-1.7,10.79,10.79,0,0,1,6.51.66A8.91,8.91,0,0,1,136.71,79.57Z"/><path class="cls-2" d="M100.08,92.59c.37.38,1.41.18,1.79,0a1.65,1.65,0,0,0,.27-.21h.07a4.44,4.44,0,0,0,.62-.1l.13.11a3.72,3.72,0,0,1-1.61.55c-.33.07-1.39.1-1.68-.29A1,1,0,0,0,100.08,92.59Z"/><path class="cls-2" d="M99.63,89.47l-.17-.08s0,0,0-.08A1.29,1.29,0,0,0,99.63,89.47Z"/><path class="cls-2" d="M103,92.21l.26-.09,0,0-.14,0Z"/><path class="cls-2" d="M102.82,95.46l.14-.11a2.35,2.35,0,0,1-.23.57.2.2,0,0,1-.08-.15C102.63,95.65,102.73,95.54,102.82,95.46Z"/><path class="cls-2" d="M102.57,92.08a1.81,1.81,0,0,0-.35-.13,1.67,1.67,0,0,0,0-.39,3.51,3.51,0,0,0,.51.51Z"/><path class="cls-2" d="M99.24,88h0a.18.18,0,0,0-.07,0A.43.43,0,0,1,99.24,88Z"/><path class="cls-2" d="M98.91,89.05a.5.5,0,0,1-.33-.41.69.69,0,0,1,0-.13,3.07,3.07,0,0,0,.26.25h0A2.3,2.3,0,0,0,98.91,89.05Z"/><path class="cls-2" d="M98.6,88.52a.25.25,0,0,0,0,.12.59.59,0,0,0,0,.35l-.16-.08a1.75,1.75,0,0,1,.08-.51l.1.09A0,0,0,0,0,98.6,88.52Z"/><path class="cls-2" d="M88.66,89.73c0-.23.15-.39.38-.22a.25.25,0,0,1-.13.16A.4.4,0,0,1,88.66,89.73Z"/><path class="cls-2" d="M99.12,88a.18.18,0,0,1,.07,0h-.11l-.1-.08A.22.22,0,0,1,99.12,88Z"/><path class="cls-2" d="M88.25,93.23l-.16,0a.1.1,0,0,0,0,0Z"/><path class="cls-2" d="M88.86,93.72c-.14.45-.65.3-.78,0a3.45,3.45,0,0,0,.57-.18A.58.58,0,0,1,88.86,93.72Z"/><path class="cls-2" d="M100.27,91.88c.16,0,.32.06.32.21A1.18,1.18,0,0,1,100.27,91.88Z"/><path class="cls-2" d="M100,91.35a.91.91,0,0,0,0,.21A.5.5,0,0,1,100,91.35Z"/><path class="cls-2" d="M99.46,89.6a2,2,0,0,1,0,.35c.06-.13.13-.11.21,0h.09a1,1,0,0,1-.12.41c-.29.48-.7.06-.9-.28a.72.72,0,0,1,.37-.59.38.38,0,0,0,.16.13A.33.33,0,0,0,99.46,89.6Z"/><path class="cls-2" d="M98.77,88l-.06,0a.83.83,0,0,0-.2.34l-.7-.71A1.9,1.9,0,0,1,98.77,88Z"/><path class="cls-2" d="M81.89,95.2a24.62,24.62,0,0,0,5.18,3l-.7-.13a3.21,3.21,0,0,0-1.68-.59,3.2,3.2,0,0,1-2.06-.62,2.55,2.55,0,0,1-1-1.85Z"/><path class="cls-2" d="M99.38,88.49a.32.32,0,0,1,0,.28,1.55,1.55,0,0,0-.24-.44.08.08,0,0,1,0,0A.51.51,0,0,1,99.38,88.49Z"/><path class="cls-2" d="M103,92.35l-.13-.11h.06l.12.08Z"/><path class="cls-2" d="M100.59,92.09a.43.43,0,0,1-.11.25h0a2.25,2.25,0,0,1-.3-.44.29.29,0,0,1,.1,0A1.18,1.18,0,0,0,100.59,92.09Z"/><path class="cls-2" d="M98.84,89.19a.35.35,0,0,1-.25-.2l.35.16s0,0,0,.06Z"/><path class="cls-2" d="M99.49,88.45a.37.37,0,0,1-.07.56.2.2,0,0,0,0-.07A.89.89,0,0,0,99.49,88.45Z"/><path class="cls-2" d="M98.63,88.51a.69.69,0,0,0,0,.13.25.25,0,0,1,0-.12,0,0,0,0,1,0,0A0,0,0,0,0,98.63,88.51Z"/><path class="cls-2" d="M99.47,88.36a2.4,2.4,0,0,0-.24-.22s0,0,.06-.06l.11.1a.3.3,0,0,1,.06.11S99.47,88.34,99.47,88.36Z"/><path class="cls-2" d="M99.22,89.09l.12,0-.08.08Z"/><path class="cls-2" d="M103.61,94.31a2.12,2.12,0,0,1-.06.44.44.44,0,0,1-.16-.06,2,2,0,0,0,.13-.31Z"/><path class="cls-2" d="M102.89,92.23h0Z"/><path class="cls-2" d="M95.57,100.39a1.51,1.51,0,0,0,0,.3h0a1.86,1.86,0,0,0,0-.34l.06,0Z"/><path class="cls-2" d="M88.25,93.23a1.25,1.25,0,0,1,.34,0Z"/><path class="cls-2" d="M101.87,92.56c-.38.21-1.42.41-1.79,0a.8.8,0,0,0,.39-.24.41.41,0,0,0,.1.09c.33.27.69.11,1.07,0l.5-.11A1.65,1.65,0,0,1,101.87,92.56Z"/><path class="cls-2" d="M98.59,89a.35.35,0,0,0,.25.2l.12,0a1.23,1.23,0,0,0,.12.26.72.72,0,0,0-.37.59.75.75,0,0,1-.07-.12,2.31,2.31,0,0,1-.21-1Z"/><path class="cls-2" d="M99.42,89l-.06,0h0l.07-.11A.2.2,0,0,1,99.42,89Z"/><path class="cls-2" d="M103.63,92a.29.29,0,0,1,0,.09l-.06,0-.07-.09.1,0Z"/><path class="cls-2" d="M103.52,94.38a2,2,0,0,1-.13.31l-.1-.07A1,1,0,0,1,103.52,94.38Z"/><path class="cls-2" d="M103.6,94a1.34,1.34,0,0,1,0,.28l-.09.07A2.49,2.49,0,0,0,103.6,94Z"/><path class="cls-2" d="M106.33,91.92l0,0a1.65,1.65,0,0,0-.18-.41A1.57,1.57,0,0,1,106.33,91.92Z"/><path class="cls-2" d="M99.32,90.64a.44.44,0,0,1,.19.43l-.07,0a.42.42,0,0,0-.38.21,1.1,1.1,0,0,1-.25-.37C98.92,90.69,99.09,90.53,99.32,90.64Z"/><path class="cls-3" d="M52.84,213.68a.23.23,0,0,0,0,.11c-.11.74-.25,1.48-.41,2.21a5.17,5.17,0,0,1-1,.07,7.69,7.69,0,0,1,.51-2.51Z"/><path class="cls-2" d="M89.74,91.08c0,.46-.43.21-.6,0C89.23,90.72,89.76,90.63,89.74,91.08Z"/><path class="cls-2" d="M100.78,89.72a12.46,12.46,0,0,0-.86-.93.62.62,0,0,0,0-.13,8.57,8.57,0,0,1,.68.79A1.85,1.85,0,0,1,100.78,89.72Z"/><path class="cls-2" d="M102.73,95.92l.1,0a3.39,3.39,0,0,1-.44.41A3,3,0,0,0,102.73,95.92Z"/><path class="cls-2" d="M88.65,93.49a3.45,3.45,0,0,1-.57.18.5.5,0,0,1,0-.3A.73.73,0,0,1,88.65,93.49Z"/><path class="cls-2" d="M85.63,93.87a4.87,4.87,0,0,1,.54,0,2.35,2.35,0,0,0,.45-.14,7.63,7.63,0,0,0,1-.34,2.85,2.85,0,0,1,.46-.12.1.1,0,0,1,0,0,7,7,0,0,1-.84.35,9.5,9.5,0,0,0-1,.28,1.53,1.53,0,0,1-.37.08h0c-.23,0-.47,0-.7,0A3.86,3.86,0,0,1,85.63,93.87Z"/><path class="cls-2" d="M99.24,88a.87.87,0,0,1,.67.66c-.17-.17-.33-.32-.51-.48a.34.34,0,0,0-.09-.12Z"/><path class="cls-2" d="M106.34,91.93a1.26,1.26,0,0,1,.42.8.51.51,0,0,1-.46.5,3,3,0,0,0,.09-.73,1.4,1.4,0,0,0-.06-.58A0,0,0,0,1,106.34,91.93Z"/><path class="cls-2" d="M103.39,94.69h0a2.56,2.56,0,0,1-.22.35l-.06,0a1,1,0,0,1,.19-.39Z"/><path class="cls-2" d="M99.6,89.51a.55.55,0,0,1-.14.09.28.28,0,0,0,0-.09v-.07A.33.33,0,0,1,99.6,89.51Z"/><path class="cls-2" d="M100.78,89.72l.37.45-.2-.09A1.69,1.69,0,0,0,100.78,89.72Z"/><path class="cls-2" d="M102.69,92.07a.9.9,0,0,0,.19.15h-.06l-.25-.15Z"/><path class="cls-3" d="M100,91.35a.5.5,0,0,0,0,.21A.91.91,0,0,1,100,91.35Zm-1.26-1.29c.2.34.61.76.9.28a1,1,0,0,0,.12-.41,1.7,1.7,0,0,1,.39,0l.81.71a.78.78,0,0,0,0-.52l.22.1.31.41c.22.31.45.64.69.94a1.67,1.67,0,0,1,0,.39,1.81,1.81,0,0,1,.35.13h0a1,1,0,0,0-.41.25h-.54a3.23,3.23,0,0,1-1-.25c0-.15-.16-.23-.32-.21a.89.89,0,0,1-.25-.3,2.41,2.41,0,0,0,.15.33.37.37,0,0,0-.2.48.43.43,0,0,0,.11.2,1,1,0,0,1-.41,0,.86.86,0,0,1-.76-.61.57.57,0,0,0,.3.21c.34.06.59-.27.64-.57a.48.48,0,0,0-.34-.57.44.44,0,0,0-.19-.43c-.23-.11-.4,0-.51.25A1.58,1.58,0,0,1,98.71,90.06Z"/><path class="cls-2" d="M99,88.25a.42.42,0,0,0-.32.09.35.35,0,0,1,.06-.09.87.87,0,0,1,.12-.14,1,1,0,0,1,.15.14Z"/><path class="cls-2" d="M103.41,95.11s0,0,0,0a.1.1,0,0,1-.07,0A.32.32,0,0,1,103.41,95.11Z"/><path class="cls-2" d="M99.6,89.51a.33.33,0,0,0-.13-.07.11.11,0,0,0,0,0l.17.08h0Z"/><path class="cls-2" d="M87.78,94l.21.14A.7.7,0,0,1,87.78,94Z"/><path class="cls-2" d="M98.67,99.11a2.77,2.77,0,0,1-.84.57c-.2.16-.4.32-.6.51a1.77,1.77,0,0,1-.64.42,8.17,8.17,0,0,0,1-1,14.11,14.11,0,0,1,3.55-2.34.1.1,0,0,1-.05,0c-.68.48-1.22,1.1-1.93,1.55Z"/><path class="cls-2" d="M103.52,92c-.34-.39-.67-.78-1-1.16l.66.3a6.21,6.21,0,0,1,.39.65.73.73,0,0,1,.07.19h0Z"/><path class="cls-2" d="M88.2,89.28c.09-.19.26-.35.43-.33a.35.35,0,0,1,.2.07.81.81,0,0,1-.19.17c-.15.11-.18.24-.38.17l0,0s0,0,0,0Z"/><path class="cls-2" d="M85.21,94h0l-.78,0Z"/><path class="cls-2" d="M89.24,91.52c.17,0,.45,0,.41.2S89.35,91.73,89.24,91.52Z"/><path class="cls-3" d="M87.78,94a.7.7,0,0,0,.21.14Zm.3-.37c.13.35.64.5.78,0a.58.58,0,0,0-.21-.23,2,2,0,0,0,.63-.4c.66-.64,1.31-1.48.72-2.39-.37-.57-.69-1.25-1.11-1.82,0-.08,0-.16-.18-.25s0,0,0,0c-.35-.23-.54.13-.54.47a.53.53,0,0,0,0,.2h0v0a.64.64,0,0,0,0,.48.41.41,0,0,0,.52.26.57.57,0,0,0,.08.25.58.58,0,0,0,.28.19.89.89,0,0,0,.06.51.15.15,0,0,0,0,.07,0,0,0,0,0,0,0,.77.77,0,0,0,.11.42l-.07,0a.67.67,0,0,0-.28.53s0,.12,0,.17a.48.48,0,0,0-.2.2.56.56,0,0,0-.08.27s0,0,0,0c-.2,0-.36.33-.44.53a2.85,2.85,0,0,0-.46.12,7.63,7.63,0,0,1-1,.34,2.35,2.35,0,0,1-.45.14,4.87,4.87,0,0,0-.54,0,3.86,3.86,0,0,0-.42.12l-.83,0,.78,0a3.74,3.74,0,0,0,.75,0h0a5.37,5.37,0,0,0,1.33-.14l.39-.09ZM87.19,89a5.06,5.06,0,0,1,.43-.7c.65-.6,1.32-1.18,2-1.72a10.54,10.54,0,0,1,1-.72,3.52,3.52,0,0,1,1-.17,5,5,0,0,1,4,.37,1.74,1.74,0,0,1,.9,1.66l.12.18a2,2,0,0,1,.53-.2,3.92,3.92,0,0,1,.29.74l.94.43a2.31,2.31,0,0,0,.21,1,.75.75,0,0,0,.07.12,1.58,1.58,0,0,0,.1.83,1,1,0,0,0-.1.3,1.23,1.23,0,0,0,.2.81.86.86,0,0,0,.76.61c.29.39,1.35.36,1.68.29a3.72,3.72,0,0,0,1.61-.55A1.87,1.87,0,0,1,103.6,94a.77.77,0,0,0,0-.15.43.43,0,0,0-.41.55.62.62,0,0,0,.12.19,1,1,0,0,0-.19.39l.06,0a1.73,1.73,0,0,1-.17.21.32.32,0,0,1,0,.09l-.14.11c-.09.08-.19.19-.17.31a.2.2,0,0,0,.08.15,3,3,0,0,1-.34.45l-.16.13c-.26.2-.53.37-.8.54h0l-.15,0-.15.13a14.11,14.11,0,0,0-3.55,2.34,8.17,8.17,0,0,1-1,1,1.6,1.6,0,0,1-.68.12,2.23,2.23,0,0,0,0-.23l-.22-.08c0-.38,0-.77,0-.89a6.18,6.18,0,0,0-.13-.81c0-.3,0-.61,0-.91s-.11-.79-.14-1.2-.09-1-.11-1.54A10.53,10.53,0,0,0,95,93.59a17.62,17.62,0,0,0-.32-1.79c0-.14-.09-.28-.14-.42a2.93,2.93,0,0,0-.24-1,3,3,0,0,0,.24,1,.29.29,0,0,0,0,.09,4.78,4.78,0,0,1,.12,1c0,.26.12.49.14.76,0,.42-.07.86,0,1.28a9.9,9.9,0,0,0,.33,1.3c.21.81.07,1.67.31,2.45a4.49,4.49,0,0,1,.13.47v1.64l-.06,0A53.32,53.32,0,0,0,89,98.61a.48.48,0,0,1-.11-.09.4.4,0,0,1-.15,0c-.1,0-.2,0-.3-.06L86.39,98h0l.7.13a24.62,24.62,0,0,1-5.18-3L81.63,95a2.79,2.79,0,0,1,2-2.71c.12-.22.25-.43.39-.64.74-.61,1.43-1.26,2.13-1.91l.18-.08A3.91,3.91,0,0,1,87.19,89Z"/><path class="cls-2" d="M99,88.84l.18.17a.24.24,0,0,1-.16,0A.42.42,0,0,1,99,88.84Z"/><path class="cls-2" d="M99.26,89.13l.2.18s0,.06,0,.08l-.39-.18A.41.41,0,0,0,99.26,89.13Z"/><path class="cls-2" d="M88.06,93.37a.5.5,0,0,0,0,.3l-.43.09a.5.5,0,0,1,.23-.3A.61.61,0,0,1,88.06,93.37Z"/><path class="cls-2" d="M86.3,93.91a9.5,9.5,0,0,1,1-.28,7,7,0,0,0,.84-.35s0,0,0,0a.43.43,0,0,1,0,.05.61.61,0,0,0-.18.09.5.5,0,0,0-.23.3l-.39.09a5.37,5.37,0,0,1-1.33.14A1.53,1.53,0,0,0,86.3,93.91Z"/><path class="cls-2" d="M100.17,91.91a2.25,2.25,0,0,0,.3.44.8.8,0,0,1-.39.24.43.43,0,0,1-.11-.2A.37.37,0,0,1,100.17,91.91Z"/><path class="cls-2" d="M126.14,91.4a4.58,4.58,0,0,0,4.7.15,9.36,9.36,0,0,0,3.45-3.45,14.11,14.11,0,0,0,2.42-8.53,8.91,8.91,0,0,0-4.6-7.3,10.79,10.79,0,0,0-6.51-.66,11.42,11.42,0,0,0-4.63,1.7,6.28,6.28,0,0,0-2.73,4c-.36,2,1.25,5.73,2.13,7.61a34.49,34.49,0,0,0-3.25-2.9c-.37-.29-.75-.57-1.13-.84l.34-.46c.23-3.62-2.33-6.76-3.38-10.22-.62-2-.71-4.24-1.57-6.19s-2.27-3.39-3-5.3a2.55,2.55,0,0,1-.2-1.41c.28-1.45,2.3-1.73,3.68-1.22,3.64,1.36,5.51,5.51,8.91,7.39,2.23,1.24,4.87,1.37,7.37,1.87,3.63.71,7.28,2.42,9.28,5.54a18,18,0,0,1,2,5.3c1.08,4.13,2,8.52.8,12.62a25.32,25.32,0,0,1-1.83,4.26c-1.24,2.48-2.49,5-3.74,7.44a16.06,16.06,0,0,1-1.22,2.13l-.11,0a54.2,54.2,0,0,0-3.88-6.33c-1.15-1.7-2.31-3.41-3.52-5.07Z"/><path class="cls-2" d="M103.16,95.05a.29.29,0,0,0,.16.09l-.36.21a.32.32,0,0,0,0-.09A1.73,1.73,0,0,0,103.16,95.05Z"/><path class="cls-2" d="M102.18,91.56c-.24-.3-.47-.63-.69-.94l-.31-.41A1.88,1.88,0,0,1,102.18,91.56Z"/><path class="cls-3" d="M48.46,39.78a2.14,2.14,0,0,1-.23,1.61c-1.15,2.5-3.1,4.54-4.93,6.59a101.86,101.86,0,0,0-18,28.74l-.3.76-2.65-2.29-4.09,10.2c-.3.76-.72,1.63-1.52,1.83-1.28.33-2.17-1.22-2.58-2.48l-3.09-9.46c-.41-1.24-.69-2.88.38-3.61a6.3,6.3,0,0,1,1.41-.53,5,5,0,0,0,2.46-2.71c1.74-3.62,2.24-7.76,4.14-11.3a39.6,39.6,0,0,1,5.37-6.9c3.75-4.33,7-9.12,10.65-13.53a41,41,0,0,1,11.46,2A2.25,2.25,0,0,1,48.46,39.78Z"/><path class="cls-2" d="M89.05,93.08a.34.34,0,0,1-.46-.36C88.78,92.7,89.19,92.87,89.05,93.08Z"/><path class="cls-2" d="M89.4,92.36c0,.18-.22.28-.36.22a.32.32,0,0,1-.17-.33A.68.68,0,0,1,89.4,92.36Z"/><path class="cls-3" d="M89.55,86.47a3.33,3.33,0,0,0-.59.66,4.22,4.22,0,0,0-1.34,1.21l-1.46,1.37A5.86,5.86,0,0,0,84,91.62c-.23.19-.46.38-.7.56-.8.61-1.72,1.3-1.79,2.3a.36.36,0,0,1-.21-.09.4.4,0,0,1,.06-.23c-.09,0-.14.13-.09.2s0,0,0,0a.91.91,0,0,0,.3.58,2.55,2.55,0,0,0,1,1.85l-.28.06c-.24-.19-.52-.32-.76-.52A9.85,9.85,0,0,1,80,95.11a1.31,1.31,0,0,1-.28-1,1,1,0,0,1,.26-.57c.24-.24.53-.41.76-.65s.53-.45.79-.7.58-.42.85-.66.49-.49.73-.73a8.52,8.52,0,0,1,1.29-1.1,11,11,0,0,0,1-.94c.28-.24.62-.39.9-.63a7.87,7.87,0,0,1,.62-.53c.23-.18.4-.41.62-.6s.54-.37.79-.6.72-.49,1-.79a3.25,3.25,0,0,1,.81-.56c.41-.22.84-.4,1.26-.6a8.24,8.24,0,0,0,2.14-1.61l.51-.37c.26-.37.54.07.75.25a4.81,4.81,0,0,0,1,.63c.49.25,1,.53,1.5.75A8.58,8.58,0,0,1,99,85.29a15.37,15.37,0,0,1,1.82,1.19,8.45,8.45,0,0,0,1.82,1.07,13.84,13.84,0,0,1,1.38,1,8,8,0,0,0,.84.6,5.37,5.37,0,0,1,.84.53A17.22,17.22,0,0,1,107.09,91c.2.22.35.48.56.69a1.6,1.6,0,0,1,.41.64,1.39,1.39,0,0,1,.1.58,1.53,1.53,0,0,1-.35.8A10.83,10.83,0,0,1,106.34,95a4.47,4.47,0,0,1-.77.51,7.92,7.92,0,0,0-.77.64c-.48.4-1.09.66-1.56,1.06a9.72,9.72,0,0,1-1.5,1.14c-.6.32-1.18.59-1.76.93-.32.2-.56.46-.89.65s-.59.31-.87.49c-.52.34-.91.79-1.39,1.17a3,3,0,0,1-.77.51.31.31,0,0,1-.19,0,1.28,1.28,0,0,1-.4-.23,13.58,13.58,0,0,0-1.54-.73,2.52,2.52,0,0,0-.44-.17l.11-.31a1.91,1.91,0,0,0,.61.09,2.77,2.77,0,0,0,1-.21,2.13,2.13,0,0,0,.33.11.31.31,0,0,1,0,.1.94.94,0,0,0,0,.37s0,0,.06-.07a1.05,1.05,0,0,0,.07-.37l.19,0a.83.83,0,0,1,0,.22,1.47,1.47,0,0,0,.71-.34,1.77,1.77,0,0,0,.64-.42c.2-.19.4-.35.6-.51a2.77,2.77,0,0,0,.84-.57l.47-.3c.71-.45,1.25-1.07,1.93-1.55a.1.1,0,0,0,.05,0l.3-.18h0a2.39,2.39,0,0,0,1-.67,3.39,3.39,0,0,0,.44-.41.74.74,0,0,0,.44,0,5.41,5.41,0,0,0,2.5-1.62,3,3,0,0,0,.53-1.08.51.51,0,0,0,.46-.5,1.26,1.26,0,0,0-.42-.8,0,0,0,0,0,0,0,1.57,1.57,0,0,0-.22-.45,1.65,1.65,0,0,1,.18.41,32.59,32.59,0,0,0-5-4.17,27.85,27.85,0,0,0-6.69-4,1,1,0,0,0-1,0,.77.77,0,0,0,0,1l-.56.29a5.55,5.55,0,0,0-2.37.88A3.35,3.35,0,0,0,89.55,86.47Z"/><path class="cls-2" d="M88.47,98.49c.1,0,.2.05.3.06a2.68,2.68,0,0,1-2-.27L86.39,98Z"/><path class="cls-2" d="M95.51,100.34a1.86,1.86,0,0,1,0,.34,2.13,2.13,0,0,1-.33-.11,2.77,2.77,0,0,1-1,.21,1.91,1.91,0,0,1-.61-.09,7.29,7.29,0,0,1-1.17-.51c-.75-.34-1.57-.5-2.31-.86A4.76,4.76,0,0,1,89,98.61,53.32,53.32,0,0,1,95.51,100.34Z"/><path class="cls-3" d="M98.51,88.4a1.75,1.75,0,0,0-.08.51l-.94-.43a3.92,3.92,0,0,0-.29-.74,2.1,2.1,0,0,1,.61,0Z"/><path class="cls-2" d="M98.59,89a.59.59,0,0,1,0-.35.5.5,0,0,0,.33.41h0l0,.1Z"/><path class="cls-2" d="M103.66,92.14a.29.29,0,0,1-.18.32.46.46,0,0,1-.3-.06l-.17-.09.17-.15.41-.1Z"/><path class="cls-2" d="M99,88.25h0a0,0,0,0,0,0,0Z"/><path class="cls-2" d="M99.36,89.05l.06,0a1,1,0,0,1,0,.3l-.2-.18.08-.08Z"/><path class="cls-2" d="M102.83,92.24a4.44,4.44,0,0,1-.62.1l.61-.11Z"/><path class="cls-2" d="M106.39,92.5a3,3,0,0,1-.09.73.35.35,0,0,1-.14,0A1.45,1.45,0,0,0,106.39,92.5Z"/><path class="cls-2" d="M99.17,88.22s0-.07-.13,0a1,1,0,0,0-.15-.14.58.58,0,0,1,.19-.1l.15.13A.16.16,0,0,0,99.17,88.22Z"/><path class="cls-2" d="M98.81,90.89a1.1,1.1,0,0,0,.25.37,1.33,1.33,0,0,0-.14.44.62.62,0,0,0,0,.3,1.23,1.23,0,0,1-.2-.81A1,1,0,0,1,98.81,90.89Z"/><path class="cls-2" d="M62.33,268.48c0,.86,0,1.72,0,2.58.07-.41.14-.82.22-1.24a7.85,7.85,0,0,1,0,.84,1.92,1.92,0,0,0,0-1l0,.17A7.69,7.69,0,0,0,62.33,268.48Zm87,12.27a3.83,3.83,0,0,0-.9-4.12c0,.69-.07,1.37-.1,2.05C148.7,279.38,149,280.06,149.37,280.75ZM63.91,268.16a1.87,1.87,0,0,1,.52,1,2.56,2.56,0,0,0-.07-1.55c-.32-.76-1.51-1.16-2-.48a6.37,6.37,0,0,1,.38.94,1.45,1.45,0,0,0-.22,1,4.5,4.5,0,0,0,.08.51l.15-.85c.09.57.19,1.15.28,1.72h0c0,.13,0,.26.07.39v-.14c.08.29.16.58.23.87a1.2,1.2,0,0,0-.23-1v-.06a7,7,0,0,0-.36-2.49.68.68,0,0,1,.41-.25A.93.93,0,0,1,63.91,268.16Zm64.53,12.13h-.05v0a2.57,2.57,0,0,0,.35-3.6c-.41,1.18-.81,2.35-1.21,3.53v.09a14.25,14.25,0,0,1-4.9-1.49l.4,0a19.07,19.07,0,0,0,1.68-6l-.22-.08a109.21,109.21,0,0,0,5.94-36.11,41.23,41.23,0,0,1,.28-6.86,14.82,14.82,0,0,1,.49-2.07c.57-1.76,1.52-3.36,2.1-5.11,1.78-5.42-.19-11.28-2.13-16.64l0,0a10.57,10.57,0,0,1-.71-1.82l-.21,0a31.62,31.62,0,0,0-3.19,4.55,22.43,22.43,0,0,1-11.18,8.66c-4.19,1.45-8.69,1.63-13.12,1.79l-15.55.57a7.18,7.18,0,0,1-3.42-.42c-1.4-.67-2.21-2.13-3-3.47-.36-.61-.72-1.21-1.1-1.81l-.37.23a28.53,28.53,0,0,0,.23,8.55c.62,4.25,1.66,8.51,1.55,12.79-.1,3.68-1,7.28-1.6,10.92-1,6.47-.75,13.06-1,19.61a4.84,4.84,0,0,1-.75,3c-.77,1-2,1.18-3.26,1.48a29.88,29.88,0,0,0,.1-3.41,3.85,3.85,0,0,0-.49-.07,1,1,0,0,0-.88-.87c-.69,0-.93.79-.89,1.52h0a7.76,7.76,0,0,0,.33,3.55,2.45,2.45,0,0,0-1.25,1.95,2.68,2.68,0,0,0-2.23-1.49,12,12,0,0,0-3.34.47,11.7,11.7,0,0,1-1.85.18,11.13,11.13,0,0,1-1.53,0,23.76,23.76,0,0,1-7-1.87,9.91,9.91,0,0,0,1-3.09H55.09a.51.51,0,0,1,.43.33c-.17.2-.34.39-.49.6a.77.77,0,0,0-.14-.21.49.49,0,0,0-.31-.16.22.22,0,0,0-.15-.23c-.17,0-.32.12-.44.25a5.42,5.42,0,0,0-.85,1.45l-.42-.19a2,2,0,0,1-1.11-.87,2,2,0,0,1-.06-1.08c.18-1.39.36-2.78.55-4.17l-.59-.29a8.56,8.56,0,0,1-2.45,3.14c.82-7.29,7.63-12.32,10.64-19,2.31-5.13,2.26-11,1.74-16.59a108.53,108.53,0,0,0-3.6-19.32,109.15,109.15,0,0,0-6.58-17.47c-.64-1.34-1.31-2.66-2-4l.54-.28A39.71,39.71,0,0,1,45.23,181c-2.78-6.48-4.61-13.48-8.7-19.23-5.72-8-16-14.36-15.6-24.2.09-2.08.7-4.13.72-6.21,0-3-1.14-5.91-1.87-8.85a30.5,30.5,0,0,1,2.57-21.34l.56-.06a.15.15,0,0,1,0,.06c.92,7.37,5.26,13.83,9.87,19.66,2.5,3.16,5.11,6.23,7.72,9.3a146.23,146.23,0,0,0,11.43,12.43,62,62,0,0,0,10.66,8.09l.36.05a98.17,98.17,0,0,0,43.84-2.38,42.4,42.4,0,0,1,7.5-1.79c2.29-.22,4.59,0,6.88-.09a25.5,25.5,0,0,0,20.64-12.36l.16.08c4.06-7.67,5.91-16.32,7.69-24.83,2.32-11,4.62-22.6,1.41-33.4-.22-.75-.47-1.49-.74-2.21,3.23,3,6.45,6.16,8.54,10.05a39,39,0,0,1,2.58,6.44,249.66,249.66,0,0,1,11.44,55.34,65.88,65.88,0,0,1,.33,9.42c-.12,2.34-.46,4.66-.8,7q-.87,5.85-1.73,11.71c-1.47,10-3,20.27-8,29.07l.34.19a98.15,98.15,0,0,0-12.89,50.24,39.71,39.71,0,0,0,2.18,13.62c1.67,4.34,4.57,8.21,5.59,12.74l.24.51a3.13,3.13,0,0,1-5-.81l-.74-.12a5.1,5.1,0,0,1-8.77.05,4.41,4.41,0,0,1-4.31,1.91,4.32,4.32,0,0,0,.23-4.74l-.8.17a16.3,16.3,0,0,0,.17,4.52,4.54,4.54,0,0,1-.66-.16c-2.07-.64-3.67-2.25-5.18-3.79l-.32-.06C132.38,278.83,130.39,280.15,128.44,280.29Z"/><path class="cls-2" d="M89,98.61l-.26-.06a.4.4,0,0,0,.15,0A.48.48,0,0,0,89,98.61Z"/><path class="cls-2" d="M96.59,100.61a1.47,1.47,0,0,1-.71.34.83.83,0,0,0,0-.22A1.6,1.6,0,0,0,96.59,100.61Z"/><path class="cls-2" d="M99.92,88.79a4.57,4.57,0,0,0-.45-.43s0,0,0-.07a.3.3,0,0,0-.06-.11c.18.16.34.31.51.48A.62.62,0,0,1,99.92,88.79Z"/><path class="cls-3" d="M52.45,216c-.19.85-.4,1.69-.64,2.51a7.22,7.22,0,0,1-.32-2.44A5.17,5.17,0,0,0,52.45,216Z"/><path class="cls-2" d="M97,116.49c0,.19,0,.38,0,.57h-.24c-4.71,2.72-7.94,7.38-10.71,12.07s-5.29,9.62-9.15,13.45A12.33,12.33,0,0,1,74,144.79a6.33,6.33,0,0,1-2.65.76,8.57,8.57,0,0,1-3-.53,18.78,18.78,0,0,1-6.08-3.25,13.17,13.17,0,0,1-3.46-4.22c-2.31-4.52-1.54-10-.33-14.87.57-2.3,1.22-4.57,2-6.81a19.88,19.88,0,0,1,1.28-3.14A21.38,21.38,0,0,1,64,109.64l3.45-4.39a47.27,47.27,0,0,1,4.19-4.86,57.21,57.21,0,0,1,8.09-6.23h0a1.31,1.31,0,0,0,.28,1,9.85,9.85,0,0,0,1.62,1.25c.24.2.52.33.76.52a.28.28,0,0,1,.1.09,3.07,3.07,0,0,0,.53.4c.51.3.9.71,1.38,1a7.9,7.9,0,0,0,2.78,1.1c.9.19,1.83.46,2.73.62a26.39,26.39,0,0,1,2.74.62c.28.09.59.15.88.25a2.52,2.52,0,0,1,.44.17,13.58,13.58,0,0,1,1.54.73,1.28,1.28,0,0,0,.4.23A80.34,80.34,0,0,1,97,116.49Z"/><path class="cls-2" d="M88.2,89.29s0,0,0,0l0,0Z"/><path class="cls-2" d="M88.89,88.88a2.69,2.69,0,0,0-.2-.27s0,0,0,0S88.89,88.8,88.89,88.88Z"/><path class="cls-2" d="M98.51,88.4a.83.83,0,0,1,.2-.34l.06,0,.12.1a.87.87,0,0,0-.12.14.35.35,0,0,0-.06.09.27.27,0,0,0-.1.15Z"/><path class="cls-3" d="M101.17,89.25l1.34,1.56-1.36-.64-.37-.45a1.85,1.85,0,0,0-.19-.27,8.57,8.57,0,0,0-.68-.79.87.87,0,0,0-.67-.66.43.43,0,0,0-.12,0,8.5,8.5,0,0,0-1.36-1c.42.29.83.6,1.22.93a.34.34,0,0,0-.21.08,1.9,1.9,0,0,0-1-.32c-.56-.59-1.11-1.19-1.64-1.81-.24.37.16.8.47,1.11a3.41,3.41,0,0,1,.56.75,2,2,0,0,0-.53.2l-.12-.18a1.74,1.74,0,0,0-.9-1.66,5,5,0,0,0-4-.37,3.52,3.52,0,0,0-1,.17A5.55,5.55,0,0,1,93.05,85l.56-.29a.77.77,0,0,1,0-1,1,1,0,0,1,1,0,27.85,27.85,0,0,1,6.69,4,32.59,32.59,0,0,1,5,4.17,2.17,2.17,0,0,1,.1.62,1.45,1.45,0,0,1-.23.7.35.35,0,0,0,.14,0,3,3,0,0,1-.53,1.08,5.41,5.41,0,0,1-2.5,1.62.74.74,0,0,1-.44,0,3.39,3.39,0,0,0,.56-.8A.59.59,0,0,0,104,95a2,2,0,0,0-.59.15,2.67,2.67,0,0,0,.14-.36.57.57,0,0,0,.29,0,.76.76,0,0,0,.49-.6,1.14,1.14,0,0,0-.72.17,1.34,1.34,0,0,0,0-.28,1.87,1.87,0,0,0-.64-1.68l.05,0,.17.09a.46.46,0,0,0,.3.06.29.29,0,0,0,.18-.32l.22.25a1.63,1.63,0,0,0,.54.47.57.57,0,0,0,.66-.1c.22-.27,0-.68-.25-.87s-.63-.26-.92-.44l-.74-.34A6,6,0,0,0,101.17,89.25Z"/><path class="cls-2" d="M89.65,91.72c0-.23-.24-.24-.41-.2a.77.77,0,0,1-.11-.42,0,0,0,0,1,0,0c.17.22.57.47.6,0s-.51-.36-.6,0a.15.15,0,0,1,0-.07.89.89,0,0,1-.06-.51c.29.12.65.07.46-.33-.28-.17-.42.06-.46.33a.58.58,0,0,1-.28-.19.57.57,0,0,1-.08-.25.54.54,0,0,0,.41-.51l0,0a.41.41,0,0,0-.21-.49.22.22,0,0,0,.06-.14c.42.57.74,1.25,1.11,1.82.59.91-.06,1.75-.72,2.39a2,2,0,0,1-.63.4.73.73,0,0,0-.59-.12.43.43,0,0,0,0-.05s0,0,0,0l.16,0,.34,0a1.25,1.25,0,0,0-.34,0l-.15,0c.08-.2.24-.48.44-.53,0,0,0,0,0,0a.34.34,0,0,0,.46.36c.14-.21-.27-.38-.46-.36a.56.56,0,0,1,.08-.27.48.48,0,0,1,.2-.2.32.32,0,0,0,.17.33c.14.06.4,0,.36-.22a.68.68,0,0,0-.53-.11s0-.12,0-.17a.67.67,0,0,1,.28-.53l.07,0C89.35,91.73,89.51,91.9,89.65,91.72Z"/><path class="cls-2" d="M103.66,92.14l-.07-.08.06,0A.34.34,0,0,1,103.66,92.14Z"/><path class="cls-2" d="M103.32,95.14a.1.1,0,0,0,.07,0,3.39,3.39,0,0,1-.56.8l-.1,0a2.35,2.35,0,0,0,.23-.57Z"/><path class="cls-3" d="M100.48,92.34a.43.43,0,0,0,.11-.25,3.23,3.23,0,0,0,1,.25h.53l-.5.11c-.38.09-.74.25-1.07,0a.41.41,0,0,1-.1-.09Z"/><path class="cls-2" d="M99.63,89.48l.49.44a1.7,1.7,0,0,0-.39,0,.49.49,0,0,0-.13-.42Z"/><path class="cls-2" d="M97.76,87a8.5,8.5,0,0,1,1.36,1,.22.22,0,0,0-.14,0C98.59,87.6,98.18,87.29,97.76,87Z"/><path class="cls-2" d="M99.51,91.07a.46.46,0,0,1-.16.35.69.69,0,0,1-.29-.16.42.42,0,0,1,.38-.21Z"/><path class="cls-2" d="M99.31,88.06a.34.34,0,0,1,.09.12l-.11-.1Z"/><path class="cls-2" d="M53.32,107.1C57,98.51,63.88,91.76,70.58,85.26l1.21-1.18h0c-2.64-6.56,2.85-14.38.1-20.9a4.53,4.53,0,0,0-2.78-2.81c-2.2-.56-4.13,1.37-5.9,2.79-6.4,5.12-16.3,5-21.61,11.21a23.11,23.11,0,0,0-3.94,8,24.26,24.26,0,0,0-1.42,6.27,16.6,16.6,0,0,0,1,6.32C39.48,101.29,46.64,106.41,53.32,107.1ZM116,81.16c.38.27.76.55,1.13.84a34.49,34.49,0,0,1,3.25,2.9h0a56.55,56.55,0,0,1,5.56,6.66c1.21,1.66,2.37,3.37,3.52,5.07a54.2,54.2,0,0,1,3.88,6.33l.11,0a16.06,16.06,0,0,0,1.22-2.13c1.25-2.49,2.5-5,3.74-7.44a25.32,25.32,0,0,0,1.83-4.26c1.2-4.1.28-8.49-.8-12.62a18,18,0,0,0-2-5.3c-2-3.12-5.65-4.83-9.28-5.54-2.5-.5-5.14-.63-7.37-1.87-3.4-1.88-5.27-6-8.91-7.39-1.38-.51-3.4-.23-3.68,1.22a2.55,2.55,0,0,0,.2,1.41c.73,1.91,2.19,3.44,3,5.3s1,4.15,1.57,6.19c1,3.46,3.61,6.6,3.38,10.22Zm-48.33-52h0c4.43-5.3,13-6.14,19.91-5.24,3.35.44,6.85,1.27,10,.1,1.64-.6,3.05-1.7,4.66-2.39a19.27,19.27,0,0,1,3.81-1.08c3.45-.74,7.15-1.45,10.39-.06A16.1,16.1,0,0,1,121.17,24l0,0L116.8,31.4a3.66,3.66,0,0,0-.72,2.28,3.42,3.42,0,0,0,.88,1.57c4.81,5.58,12.08,8.59,16.9,14.17,2.27,2.61,4,5.8,6.91,7.68a15.18,15.18,0,0,0,1.58.88l-.56.58c3.32,4.78,6.55,9.71,8.55,15.15.27.72.52,1.46.74,2.21,3.21,10.8.91,22.37-1.41,33.4-1.78,8.51-3.63,17.16-7.69,24.83l-.16-.08a25.5,25.5,0,0,1-20.64,12.36c-2.29.09-4.59-.13-6.88.09a42.4,42.4,0,0,0-7.5,1.79A98.17,98.17,0,0,1,63,150.69l-.36-.05a62,62,0,0,1-10.66-8.09,146.23,146.23,0,0,1-11.43-12.43c-2.61-3.07-5.22-6.14-7.72-9.3-4.61-5.83-8.95-12.29-9.87-19.66a.15.15,0,0,0,0-.06c-1-8.12,2.32-16.18,2.44-24.37h0A101.86,101.86,0,0,1,43.3,48c1.83-2,3.78-4.09,4.93-6.59a2.14,2.14,0,0,0,.23-1.61A2.25,2.25,0,0,0,47,38.73a41,41,0,0,0-11.46-2A54.16,54.16,0,0,1,43.07,29a13.33,13.33,0,0,1,6.33-3.21,16.05,16.05,0,0,1,6.17.76C59.5,27.53,63.74,28.16,67.66,29.17Zm62.85,102.25a29.35,29.35,0,0,0,.91-3.17,11.71,11.71,0,0,0,.51-3.31,27.61,27.61,0,0,0-.71-3.8c-.23-1.33-.2-2.69-.44-4a16,16,0,0,0-1.47-4.16,42.4,42.4,0,0,0-21.15-20h0a1.39,1.39,0,0,0-.1-.58,1.6,1.6,0,0,0-.41-.64c-.21-.21-.36-.47-.56-.69a17.22,17.22,0,0,0-1.42-1.29,5.37,5.37,0,0,0-.84-.53,8,8,0,0,1-.84-.6,13.84,13.84,0,0,0-1.38-1,8.45,8.45,0,0,1-1.82-1.07A15.37,15.37,0,0,0,99,85.29a8.58,8.58,0,0,0-1.68-1.14c-.51-.22-1-.5-1.5-.75a4.81,4.81,0,0,1-1-.63c-.21-.18-.49-.62-.75-.25l-.51.37a8.24,8.24,0,0,1-2.14,1.61c-.42.2-.85.38-1.26.6a3.25,3.25,0,0,0-.81.56c-.33.3-.73.5-1,.79s-.54.38-.79.6-.39.42-.62.6a7.87,7.87,0,0,0-.62.53c-.28.24-.62.39-.9.63a11,11,0,0,1-1,.94,8.52,8.52,0,0,0-1.29,1.1c-.24.24-.47.51-.73.73s-.59.41-.85.66-.56.43-.79.7-.52.41-.76.65a1,1,0,0,0-.26.57h0a57.21,57.21,0,0,0-8.09,6.23,47.27,47.27,0,0,0-4.19,4.86L64,109.64a21.38,21.38,0,0,0-2.16,3.09,19.88,19.88,0,0,0-1.28,3.14c-.76,2.24-1.41,4.51-2,6.81-1.21,4.92-2,10.35.33,14.87a13.17,13.17,0,0,0,3.46,4.22A18.78,18.78,0,0,0,68.4,145a8.57,8.57,0,0,0,3,.53,6.33,6.33,0,0,0,2.65-.76l.88,0c2.08,2.13,5.33,2.5,8.29,2.56,12.68.27,26.36-1.84,36.54-8.94V138a11.41,11.41,0,0,0,1.17,0,10.67,10.67,0,0,0,8.14-3.82A10,10,0,0,0,130.51,131.42Z"/><path class="cls-2" d="M44.21,214.65a16.72,16.72,0,0,1-4.63-2.54l-.22-.18-.5-.44a9.85,9.85,0,0,1,1.76-1.25l-.26.11.07-.54a3,3,0,0,0-2.37.76,3.18,3.18,0,0,1-.68-2.37,4.62,4.62,0,0,1,1.78-2.56c3.93-3.4,9.11-6.17,10.41-11.2.09-.33.2-.71.52-.81a.32.32,0,0,1,.35.19l.82-.4a109.15,109.15,0,0,1,6.58,17.47,15.91,15.91,0,0,1-2.41,3.29,6.5,6.5,0,0,1-2,1.55c.11-.32.21-.63.32-.94a1.43,1.43,0,0,0,0-1.29c-.24-.33-.9-.16-.9.18l-.84-.12a7.69,7.69,0,0,0-.51,2.51,10.9,10.9,0,0,1-1.14-.07,26.52,26.52,0,0,1-4.67-.88l-.43-.12.88-1.58a4.32,4.32,0,0,0-1.52,1.36Z"/><path class="cls-2" d="M100,91.58a.89.89,0,0,0,.25.3.29.29,0,0,0-.1,0A2.41,2.41,0,0,1,100,91.58Z"/><path class="cls-2" d="M103.58,93.88a.77.77,0,0,1,0,.15,2.49,2.49,0,0,1-.08.35,1,1,0,0,0-.23.24.62.62,0,0,1-.12-.19A.43.43,0,0,1,103.58,93.88Z"/><path class="cls-2" d="M101,90.08l.2.09,0,0-.22-.1S101,90.09,101,90.08Z"/><path class="cls-2" d="M99.13,88.28a.08.08,0,0,0,0,0,.23.23,0,0,0-.07-.07Z"/><path class="cls-2" d="M104.13,92a2.88,2.88,0,0,0-.48.09.29.29,0,0,0,0-.09C103.8,91.94,104,92,104.13,92Z"/><path class="cls-2" d="M99.11,88.33a1.55,1.55,0,0,1,.24.44.49.49,0,0,1-.21.24L99,88.84A1.73,1.73,0,0,1,99.11,88.33Z"/><path class="cls-2" d="M87.62,88.34A4.22,4.22,0,0,1,89,87.13a2.89,2.89,0,0,1,1.72-1.23,10.54,10.54,0,0,0-1,.72C88.94,87.16,88.27,87.74,87.62,88.34Z"/><path class="cls-2" d="M85.21,94c.23,0,.47,0,.7,0a3.74,3.74,0,0,1-.75,0Z"/><path class="cls-2" d="M98.94,89.15l.13.06a.41.41,0,0,1-.11,0S99,89.17,98.94,89.15Z"/><path class="cls-2" d="M104.32,92h0Z"/><path class="cls-2" d="M130.27,204l.21,0a10.57,10.57,0,0,0,.71,1.82l0,0c1.94,5.36,3.91,11.22,2.13,16.64-.58,1.75-1.53,3.35-2.1,5.11a14.82,14.82,0,0,0-.49,2.07c-6.55,4.12-14.82,4.69-22.62,4.68-3.64,0-7.28-.1-10.91-.3-3.09-.16-6.28-.42-9-1.85-3.8-2-6.15-5.89-8.3-9.6l-.26,0a28.53,28.53,0,0,1-.23-8.55l.37-.23c.38.6.74,1.2,1.1,1.81.78,1.34,1.59,2.8,3,3.47a7.18,7.18,0,0,0,3.42.42l15.55-.57c4.43-.16,8.93-.34,13.12-1.79a22.43,22.43,0,0,0,11.18-8.66A31.62,31.62,0,0,1,130.27,204Z"/><path class="cls-2" d="M84,91.62a5.86,5.86,0,0,1,2.13-1.91C85.46,90.36,84.77,91,84,91.62Z"/><path class="cls-2" d="M104.16,92h0Zm-.51.09a2.88,2.88,0,0,1,.48-.09c-.16,0-.33,0-.5,0a.73.73,0,0,0-.07-.19,6.21,6.21,0,0,0-.39-.65l.74.34c.29.18.64.24.92.44s.47.6.25.87a.57.57,0,0,1-.66.1,1.63,1.63,0,0,1-.54-.47l-.22-.25A.34.34,0,0,0,103.65,92Z"/><path class="cls-2" d="M99.35,91.42a.46.46,0,0,0,.16-.35.48.48,0,0,1,.34.57c0,.3-.3.63-.64.57a.57.57,0,0,1-.3-.21.62.62,0,0,1,0-.3,1.33,1.33,0,0,1,.14-.44A.69.69,0,0,0,99.35,91.42Z"/><path class="cls-2" d="M96.17,85.88c.53.62,1.08,1.22,1.64,1.81a2.1,2.1,0,0,0-.61,0,3.41,3.41,0,0,0-.56-.75C96.33,86.68,95.93,86.25,96.17,85.88Z"/><path class="cls-2" d="M86.37,98h0L86,98Z"/><path class="cls-2" d="M99.63,89.47a1.29,1.29,0,0,1-.17-.16,1,1,0,0,0,0-.3.37.37,0,0,0,.07-.56.29.29,0,0,0,0-.09,4.57,4.57,0,0,1,.45.43.57.57,0,0,1-.09.4,2,2,0,0,1-.19.28Z"/><path class="cls-2" d="M99,88.25a.21.21,0,0,1,0,.06.81.81,0,0,0-.1.45,3.07,3.07,0,0,1-.26-.25.89.89,0,0,1,.08-.17A.42.42,0,0,1,99,88.25Z"/><path class="cls-2" d="M95.87,102.13a.31.31,0,0,0,.19,0,3,3,0,0,0,.77-.51c.48-.38.87-.83,1.39-1.17.28-.18.58-.34.87-.49s.57-.45.89-.65c.58-.34,1.16-.61,1.76-.93a9.72,9.72,0,0,0,1.5-1.14c.47-.4,1.08-.66,1.56-1.06a7.92,7.92,0,0,1,.77-.64,4.47,4.47,0,0,0,.77-.51,10.83,10.83,0,0,0,1.47-1.31,1.53,1.53,0,0,0,.35-.8h0a42.4,42.4,0,0,1,21.15,20,16,16,0,0,1,1.47,4.16c.24,1.34.21,2.7.44,4a27.61,27.61,0,0,1,.71,3.8,11.71,11.71,0,0,1-.51,3.31,29.35,29.35,0,0,1-.91,3.17,10,10,0,0,1-1.44,2.77,10.67,10.67,0,0,1-8.14,3.82,11.41,11.41,0,0,1-1.17,0A10.12,10.12,0,0,1,115.5,137c-2.29-1.2-3.85-3.39-5.45-5.43a69.17,69.17,0,0,0-5.6-6.25c-2.73-2.7-5.76-5.28-7.34-8.78H97A80.34,80.34,0,0,0,95.87,102.13Z"/><path class="cls-2" d="M88.15,89.79a.64.64,0,0,1,0-.48l0,0a.63.63,0,0,0,.44.39,1.15,1.15,0,0,0,0,.32A.41.41,0,0,1,88.15,89.79Z"/><path class="cls-2" d="M102.88,92.22H103l-.07,0Z"/><path class="cls-2" d="M99.47,89.51a.28.28,0,0,1,0,.09.33.33,0,0,1-.22,0,.38.38,0,0,1-.16-.13.47.47,0,0,1,.26,0l.13,0Z"/><path class="cls-2" d="M94.3,90.35a2.93,2.93,0,0,1,.24,1A3,3,0,0,1,94.3,90.35Z"/><path class="cls-2" d="M95.72,100.71a2.71,2.71,0,0,0,0-.29l.22.08a2.23,2.23,0,0,1,0,.23Z"/><path class="cls-2" d="M99.35,88.77l.06.17-.07.11-.12,0L99.14,89A.49.49,0,0,0,99.35,88.77Z"/><path class="cls-2" d="M103.12,92.09c.15,0,.26-.09.4-.12l.07.09-.41.1,0,0-.26.09h-.08a.9.9,0,0,1-.19-.15A3.1,3.1,0,0,0,103.12,92.09Z"/><path class="cls-4" d="M61.82,80.39c1.67,2.85,2.43,6.48,1,9.46a12.19,12.19,0,0,1-4,4.29,12.84,12.84,0,0,1-3.76,2.08,8.55,8.55,0,0,1-9.42-3.76,10.17,10.17,0,0,1,.14-10.37,12.67,12.67,0,0,1,9-5.54,3.91,3.91,0,0,0,1.18,0C58.45,76.24,60.57,78.25,61.82,80.39Z"/><path class="cls-2" d="M89,90.49c0-.27.18-.5.46-.33C89.68,90.56,89.32,90.61,89,90.49Z"/><path class="cls-2" d="M71.88,63.17c2.75,6.52-2.74,14.34-.1,20.9h0l-1.21,1.18C63.88,91.76,57,98.51,53.32,107.1c-6.68-.69-13.84-5.81-16.08-12.15a16.6,16.6,0,0,1-1-6.32,24.26,24.26,0,0,1,1.42-6.27,23.11,23.11,0,0,1,3.94-8C46.9,68.11,56.8,68.27,63.2,63.15c1.77-1.42,3.7-3.35,5.9-2.79A4.53,4.53,0,0,1,71.88,63.17ZM62.81,89.85c1.44-3,.68-6.61-1-9.46-1.25-2.14-3.37-4.15-5.83-3.89a3.91,3.91,0,0,1-1.18,0,12.67,12.67,0,0,0-9,5.54,10.17,10.17,0,0,0-.14,10.37,8.55,8.55,0,0,0,9.42,3.76,12.84,12.84,0,0,0,3.76-2.08A12.19,12.19,0,0,0,62.81,89.85Z"/><path class="cls-2" d="M99.29,88.08l-.1-.08h0l.07.06Z"/><path class="cls-2" d="M99.43,90a2,2,0,0,0,0-.35.55.55,0,0,0,.14-.09.49.49,0,0,1,.13.42h-.09C99.56,89.84,99.49,89.82,99.43,90Z"/><path class="cls-2" d="M100.93,90.63l-.81-.71a2.67,2.67,0,0,1,.47.07,2,2,0,0,1,.37.12A.78.78,0,0,1,100.93,90.63Z"/><path class="cls-2" d="M99,88.25c.08-.1.08-.08.13,0l0,.06-.09,0Z"/><path class="cls-2" d="M95.57,100.36l.16.06a2.71,2.71,0,0,1,0,.29l-.13,0a1.51,1.51,0,0,1,0-.3Z"/><polygon class="cls-2" points="99.64 89.47 99.63 89.48 99.63 89.47 99.64 89.47"/><path class="cls-3" d="M121.17,24l.89.86A62.13,62.13,0,0,0,135,34.34a26.33,26.33,0,0,1,4.92,3.1c5.1,4.56,5.17,13.32,10.9,17.06a10.57,10.57,0,0,1,2.51,1.81,6.43,6.43,0,0,1,1,4.06,67,67,0,0,1-.35,7.49c-.1,1-.49,2.17-1.45,2.19a1.59,1.59,0,0,1-1.05-.47c-2-1.77-1.5-5.07-2.84-7.38s-3.91-3.06-6.28-4.22a15.18,15.18,0,0,1-1.58-.88c-2.9-1.88-4.64-5.07-6.91-7.68C129,43.84,121.77,40.83,117,35.25a3.42,3.42,0,0,1-.88-1.57,3.66,3.66,0,0,1,.72-2.28l4.33-7.34Z"/><path class="cls-2" d="M99,87.93l.1.08a.58.58,0,0,0-.19.1l-.12-.1A.34.34,0,0,1,99,87.93Z"/><path class="cls-2" d="M99.64,89.47l1.31.61s0,0,0,0a2,2,0,0,0-.37-.12,2.67,2.67,0,0,0-.47-.07l-.49-.44Z"/><path class="cls-2" d="M81.54,94.48c.07-1,1-1.69,1.79-2.3.24-.18.47-.37.7-.56-.14.21-.27.42-.39.64a2.79,2.79,0,0,0-2,2.71.91.91,0,0,1-.3-.58A.36.36,0,0,0,81.54,94.48Z"/><path class="cls-2" d="M103.41,95.11A2,2,0,0,1,104,95a.59.59,0,0,1-.61.2S103.41,95.13,103.41,95.11Z"/><path class="cls-5" d="M101.43,97a2.39,2.39,0,0,0,1-.67"/><path class="cls-5" d="M96.59,100.61a1.77,1.77,0,0,0,.64-.42c.2-.19.4-.35.6-.51a2.77,2.77,0,0,0,.84-.57l.47-.3c.71-.45,1.25-1.07,1.93-1.55a.1.1,0,0,0,.05,0"/><path class="cls-5" d="M89,98.61a4.76,4.76,0,0,0,1.09.71c.74.36,1.56.52,2.31.86a7.29,7.29,0,0,0,1.17.51,1.91,1.91,0,0,0,.61.09,2.77,2.77,0,0,0,1-.21,2.13,2.13,0,0,0,.33.11h0l.13,0,.19,0"/><path class="cls-5" d="M86.39,98l.43.24a2.68,2.68,0,0,0,2,.27"/><path class="cls-5" d="M81.63,95a2.55,2.55,0,0,0,1,1.85,3.2,3.2,0,0,0,2.06.62,3.21,3.21,0,0,1,1.68.59"/><path class="cls-5" d="M86.16,89.71A5.86,5.86,0,0,0,84,91.62"/><path class="cls-5" d="M90.68,85.9A2.89,2.89,0,0,0,89,87.13a4.22,4.22,0,0,0-1.34,1.21"/><path class="cls-5" d="M101.43,97c.27-.17.54-.34.8-.54l.16-.13a3.77,3.77,0,0,0,1-1.21s0,0,0,0a2.67,2.67,0,0,0,.14-.36,2.12,2.12,0,0,0,.06-.44,1.34,1.34,0,0,0,0-.28.77.77,0,0,0,0-.15.43.43,0,0,0-.41.55.62.62,0,0,0,.12.19l.1.07a.44.44,0,0,0,.16.06.57.57,0,0,0,.29,0,.76.76,0,0,0,.49-.6,1.14,1.14,0,0,0-.72.17l-.09.07a1,1,0,0,0-.23.24,1,1,0,0,0-.19.39l.06,0a.29.29,0,0,0,.16.09.1.1,0,0,0,.07,0A.59.59,0,0,0,104,95a2,2,0,0,0-.59.15.32.32,0,0,0-.09,0l-.36.21-.14.11c-.09.08-.19.19-.17.31a.2.2,0,0,0,.08.15l.1,0a.74.74,0,0,0,.44,0,5.41,5.41,0,0,0,2.5-1.62,3,3,0,0,0,.53-1.08,3,3,0,0,0,.09-.73,2.17,2.17,0,0,0-.1-.62,1.65,1.65,0,0,0-.18-.41,1.57,1.57,0,0,1,.22.45,1.4,1.4,0,0,1,.06.58,1.45,1.45,0,0,1-.23.7.35.35,0,0,0,.14,0,.51.51,0,0,0,.46-.5,1.26,1.26,0,0,0-.42-.8,0,0,0,0,0,0,0l0,0a32.59,32.59,0,0,0-5-4.17,27.85,27.85,0,0,0-6.69-4,1,1,0,0,0-1,0,.77.77,0,0,0,0,1"/><path class="cls-5" d="M81.33,94.39a.91.91,0,0,0,.3.58l.26.23a24.62,24.62,0,0,0,5.18,3l-.7-.13L86,98l.4.09,2.08.45c.1,0,.2.05.3.06l.26.06a53.32,53.32,0,0,1,6.48,1.73l.06,0,.16.06.22.08a2.23,2.23,0,0,1,0,.23.83.83,0,0,1,0,.22,1.47,1.47,0,0,0,.71-.34,8.17,8.17,0,0,0,1-1,14.11,14.11,0,0,1,3.55-2.34l.3-.18"/><path class="cls-5" d="M81.33,94.39s0,0,0,0,0-.21.09-.2A.4.4,0,0,0,81.33,94.39Z"/><path class="cls-5" d="M93.05,85a5.55,5.55,0,0,0-2.37.88,10.54,10.54,0,0,0-1,.72c-.71.54-1.38,1.12-2,1.72l-1.46,1.37c-.7.65-1.39,1.3-2.13,1.91-.23.19-.46.38-.7.56-.8.61-1.72,1.3-1.79,2.3a.36.36,0,0,1-.21-.09"/><path class="cls-5" d="M85.93,94a5.37,5.37,0,0,0,1.33-.14l.39-.09.43-.09a3.45,3.45,0,0,0,.57-.18,2,2,0,0,0,.63-.4c.66-.64,1.31-1.48.72-2.39-.37-.57-.69-1.25-1.11-1.82a2.69,2.69,0,0,0-.2-.27s0,0,0,0"/><path class="cls-5" d="M85.91,94a3.74,3.74,0,0,1-.75,0l-.78,0,.83,0c.23,0,.47,0,.7,0"/><path class="cls-5" d="M85.91,94h0"/><path class="cls-5" d="M88.25,93.23l-.16,0a7,7,0,0,1-.84.35,9.5,9.5,0,0,0-1,.28,1.53,1.53,0,0,1-.37.08"/><path class="cls-5" d="M88.25,93.23l.34,0A1.25,1.25,0,0,0,88.25,93.23Z"/><path class="cls-5" d="M85.7,94.09a7.32,7.32,0,0,1-1.18.37,1.16,1.16,0,0,1,.64-.46h0a3.86,3.86,0,0,1,.42-.12,4.87,4.87,0,0,1,.54,0,2.35,2.35,0,0,0,.45-.14,7.63,7.63,0,0,0,1-.34,2.85,2.85,0,0,1,.46-.12l.15,0"/><path class="cls-5" d="M87.78,94a.79.79,0,0,0-.53-.09"/><path class="cls-5" d="M87.78,94a.7.7,0,0,0,.21.14Z"/><path class="cls-5" d="M88.59,92.72s0,0,0,0c-.2,0-.36.33-.44.53a.1.1,0,0,1,0,0s0,0,0,0a.43.43,0,0,1,0,.05.5.5,0,0,0,0,.3c.13.35.64.5.78,0a.58.58,0,0,0-.21-.23.73.73,0,0,0-.59-.12.61.61,0,0,0-.18.09.5.5,0,0,0-.23.3.29.29,0,0,0,.13.28"/><path class="cls-5" d="M88.59,92.72a.34.34,0,0,0,.46.36C89.19,92.87,88.78,92.7,88.59,92.72Z"/><path class="cls-5" d="M88.87,92.25a.48.48,0,0,0-.2.2.56.56,0,0,0-.08.27"/><path class="cls-5" d="M88.87,92.25a.32.32,0,0,0,.17.33c.14.06.4,0,.36-.22A.68.68,0,0,0,88.87,92.25Z"/><path class="cls-5" d="M89.24,91.52l-.07,0a.67.67,0,0,0-.28.53s0,.12,0,.17"/><path class="cls-5" d="M89.24,91.52c.11.21.27.38.41.2S89.41,91.48,89.24,91.52Z"/><path class="cls-5" d="M89.14,91.07a0,0,0,0,0,0,0,.77.77,0,0,0,.11.42"/><path class="cls-5" d="M89.14,91.07c.17.22.57.47.6,0S89.23,90.72,89.14,91.07Z"/><path class="cls-5" d="M89,90.49a.89.89,0,0,0,.06.51.15.15,0,0,0,0,.07"/><path class="cls-5" d="M89,90.49c.29.12.65.07.46-.33C89.21,90,89.07,90.22,89,90.49Z"/><path class="cls-5" d="M88.2,89.29v0a.64.64,0,0,0,0,.48.41.41,0,0,0,.52.26.54.54,0,0,0,.41-.51l0,0c-.23-.17-.34,0-.38.22a1.15,1.15,0,0,0,0,.32.57.57,0,0,0,.08.25.58.58,0,0,0,.28.19"/><path class="cls-5" d="M88.64,88.31c-.2.23-.61.38-.57.75a.3.3,0,0,0,.12.25l0,0,0,0c.2.07.23-.06.38-.17a.81.81,0,0,0,.19-.17.22.22,0,0,0,.06-.14c0-.08,0-.16-.18-.25s0,0,0,0c-.35-.23-.54.13-.54.47a.53.53,0,0,0,0,.2h0s0,0,0,0a.63.63,0,0,0,.44.39.4.4,0,0,0,.25-.06.25.25,0,0,0,.13-.16.41.41,0,0,0-.21-.49.35.35,0,0,0-.2-.07c-.17,0-.34.14-.43.33"/><path class="cls-5" d="M103,92.21l.26-.09,0,0-.17.15-.05,0a3.72,3.72,0,0,1-1.61.55c-.33.07-1.39.1-1.68-.29a.36.36,0,0,1-.08-.27"/><path class="cls-5" d="M100,91.58a.89.89,0,0,0,.25.3,1.18,1.18,0,0,0,.32.21,3.23,3.23,0,0,0,1,.25h.6a4.44,4.44,0,0,0,.62-.1h.06l.07,0"/><path class="cls-5" d="M100,91.26v.09a.5.5,0,0,0,0,.21"/><path class="cls-5" d="M100,91.56a.91.91,0,0,1,0-.21"/><path class="cls-5" d="M100,91.56v0"/><path class="cls-5" d="M103,92.21h-.14l-.61.11h-.07l-.5.11c-.38.09-.74.25-1.07,0a.41.41,0,0,1-.1-.09,2.25,2.25,0,0,1-.3-.44,2.41,2.41,0,0,1-.15-.33"/><path class="cls-5" d="M103,92.21h0"/><path class="cls-5" d="M104.13,92a2.88,2.88,0,0,0-.48.09l-.06,0-.41.1-.14,0-.08,0"/><path class="cls-5" d="M104.16,92h0Z"/><path class="cls-5" d="M104.16,92h0"/><path class="cls-5" d="M98.91,89.05l0,.1s0,0,0,.06a1.23,1.23,0,0,0,.12.26.38.38,0,0,0,.16.13.33.33,0,0,0,.22,0,.55.55,0,0,0,.14-.09l0,0h0a2,2,0,0,0,.19-.28.57.57,0,0,0,.09-.4.62.62,0,0,0,0-.13.87.87,0,0,0-.67-.66h-.16a.58.58,0,0,0-.19.1.87.87,0,0,0-.12.14.35.35,0,0,0-.06.09.89.89,0,0,0-.08.17.69.69,0,0,0,0,.13.59.59,0,0,0,0,.35.35.35,0,0,0,.25.2l.12,0a.4.4,0,0,0,.3-.08l.08-.08.07-.11a.89.89,0,0,0,.08-.49.29.29,0,0,0,0-.09s0,0,0-.07a.3.3,0,0,0-.06-.11.34.34,0,0,0-.09-.12L99.24,88a.43.43,0,0,0-.12,0,.22.22,0,0,0-.14,0,.34.34,0,0,0-.21.08l-.06,0a.83.83,0,0,0-.2.34,1.75,1.75,0,0,0-.08.51,2.31,2.31,0,0,0,.21,1,.75.75,0,0,0,.07.12c.2.34.61.76.9.28a1,1,0,0,0,.12-.41.49.49,0,0,0-.13-.42.33.33,0,0,0-.13-.07l-.13,0a.47.47,0,0,0-.26,0,.72.72,0,0,0-.37.59,1.58,1.58,0,0,0,.1.83,1.1,1.1,0,0,0,.25.37.69.69,0,0,0,.29.16.46.46,0,0,0,.16-.35.44.44,0,0,0-.19-.43c-.23-.11-.4,0-.51.25a1,1,0,0,0-.1.3,1.23,1.23,0,0,0,.2.81.57.57,0,0,0,.3.21c.34.06.59-.27.64-.57a.48.48,0,0,0-.34-.57l-.07,0a.42.42,0,0,0-.38.21,1.33,1.33,0,0,0-.14.44.62.62,0,0,0,0,.3.86.86,0,0,0,.76.61,1,1,0,0,0,.41,0,.8.8,0,0,0,.39-.24h0a.43.43,0,0,0,.11-.25c0-.15-.16-.23-.32-.21a.29.29,0,0,0-.1,0,.37.37,0,0,0-.2.48.43.43,0,0,0,.11.2c.37.38,1.41.18,1.79,0a1.65,1.65,0,0,0,.27-.21h0a1,1,0,0,1,.41-.25h.13a3.1,3.1,0,0,0,.43,0c.15,0,.26-.09.4-.12l.1,0h0c.17,0,.34,0,.5,0"/><path class="cls-5" d="M99.34,88.05h0l0,0s0,0-.06.06a.16.16,0,0,0-.06.08l0,.06a.08.08,0,0,0,0,0,1.73,1.73,0,0,0-.15.51.42.42,0,0,0,0,.21.24.24,0,0,0,.16,0,.49.49,0,0,0,.21-.24.32.32,0,0,0,0-.28.51.51,0,0,0-.25-.21l-.09,0a0,0,0,0,0,0,0,.42.42,0,0,0-.32.09.27.27,0,0,0-.1.15,0,0,0,0,0,0,0,.25.25,0,0,0,0,.12.5.5,0,0,0,.33.41h0a.67.67,0,0,0,.31,0l.12,0h0l.06,0a.37.37,0,0,0,.07-.56.65.65,0,0,0-.21-.16.26.26,0,0,1-.11-.07s0-.07-.13,0h0a.21.21,0,0,1,0,.06.81.81,0,0,0-.1.45h0a2.3,2.3,0,0,0,0,.28"/><path class="cls-5" d="M95.7,101.48a.25.25,0,0,0,0-.08"/><path class="cls-5" d="M94.54,91.38c0,.14.1.28.14.42A17.62,17.62,0,0,1,95,93.59a10.53,10.53,0,0,1,.32,1.48c0,.52.08,1,.11,1.54s.14.78.14,1.2,0,.61,0,.91v1.67a1.51,1.51,0,0,0,0,.3c0,.13,0,.26.06.39a1.65,1.65,0,0,1,0,.32"/><path class="cls-5" d="M94.54,91.38a2.93,2.93,0,0,0-.24-1A3,3,0,0,0,94.54,91.38Z"/><path class="cls-5" d="M95.44,99.89V98.78a6.87,6.87,0,0,0,0,1.36c0,.07,0,.13,0,.2a1.86,1.86,0,0,1,0,.34.31.31,0,0,1,0,.1.94.94,0,0,0,0,.37s0,0,.06-.07a1.05,1.05,0,0,0,.07-.37,2.71,2.71,0,0,0,0-.29c0-.38,0-.77,0-.89a6.18,6.18,0,0,0-.13-.81,4.49,4.49,0,0,0-.13-.47c-.24-.78-.1-1.64-.31-2.45a9.9,9.9,0,0,1-.33-1.3c0-.42,0-.86,0-1.28,0-.27-.12-.5-.14-.76a4.78,4.78,0,0,0-.12-1,.29.29,0,0,1,0-.09"/><path class="cls-5" d="M79.68,94.16a57.21,57.21,0,0,0-8.09,6.23,47.27,47.27,0,0,0-4.19,4.86L64,109.64a21.38,21.38,0,0,0-2.16,3.09,19.88,19.88,0,0,0-1.28,3.14c-.76,2.24-1.41,4.51-2,6.81-1.21,4.92-2,10.35.33,14.87a13.17,13.17,0,0,0,3.46,4.22A18.78,18.78,0,0,0,68.4,145a8.57,8.57,0,0,0,3,.53,6.33,6.33,0,0,0,2.65-.76,12.33,12.33,0,0,0,2.87-2.22c3.86-3.83,6.38-8.77,9.15-13.45s6-9.35,10.71-12.07"/><path class="cls-5" d="M95.8,101.78c0,.12,0,.23.07.35A80.34,80.34,0,0,1,97,116.49c0,.19,0,.38,0,.57v.2"/><path class="cls-5" d="M108.16,92.92a42.4,42.4,0,0,1,21.15,20,16,16,0,0,1,1.47,4.16c.24,1.34.21,2.7.44,4a27.61,27.61,0,0,1,.71,3.8,11.71,11.71,0,0,1-.51,3.31,29.35,29.35,0,0,1-.91,3.17,10,10,0,0,1-1.44,2.77,10.67,10.67,0,0,1-8.14,3.82,11.41,11.41,0,0,1-1.17,0A10.12,10.12,0,0,1,115.5,137c-2.29-1.2-3.85-3.39-5.45-5.43a69.17,69.17,0,0,0-5.6-6.25c-2.73-2.7-5.76-5.28-7.34-8.78"/><path class="cls-5" d="M74.92,144.83c2.08,2.13,5.33,2.5,8.29,2.56,12.68.27,26.36-1.84,36.54-8.94"/><path class="cls-5" d="M54.81,76.55a12.67,12.67,0,0,0-9,5.54,10.17,10.17,0,0,0-.14,10.37,8.55,8.55,0,0,0,9.42,3.76,12.84,12.84,0,0,0,3.76-2.08,12.19,12.19,0,0,0,4-4.29c1.44-3,.68-6.61-1-9.46-1.25-2.14-3.37-4.15-5.83-3.89A3.91,3.91,0,0,1,54.81,76.55Z"/><path class="cls-5" d="M84.78,68c-1.26,4.57-4.81,8.11-8.21,11.41l-4.78,4.63-1.21,1.18C63.88,91.76,57,98.51,53.32,107.1a35.74,35.74,0,0,0-1.73,22.84,19.85,19.85,0,0,0,3.66,7.78,10.84,10.84,0,0,0,7.07,4.05l.3,0"/><path class="cls-5" d="M53.32,107.1c-6.68-.69-13.84-5.81-16.08-12.15a16.6,16.6,0,0,1-1-6.32,24.26,24.26,0,0,1,1.42-6.27,23.11,23.11,0,0,1,3.94-8C46.9,68.11,56.8,68.27,63.2,63.15c1.77-1.42,3.7-3.35,5.9-2.79a4.53,4.53,0,0,1,2.78,2.81c2.75,6.52-2.74,14.34-.1,20.9"/><path class="cls-5" d="M67.67,29.17c4.43-5.3,13-6.14,19.91-5.24,3.35.44,6.85,1.27,10,.1,1.64-.6,3.05-1.7,4.66-2.39a19.27,19.27,0,0,1,3.81-1.08c3.45-.74,7.15-1.45,10.39-.06A16.1,16.1,0,0,1,121.17,24l.89.86A62.13,62.13,0,0,0,135,34.34a26.33,26.33,0,0,1,4.92,3.1c5.1,4.56,5.17,13.32,10.9,17.06a10.57,10.57,0,0,1,2.51,1.81,6.43,6.43,0,0,1,1,4.06,67,67,0,0,1-.35,7.49c-.1,1-.49,2.17-1.45,2.19a1.59,1.59,0,0,1-1.05-.47c-2-1.77-1.5-5.07-2.84-7.38s-3.91-3.06-6.28-4.22a15.18,15.18,0,0,1-1.58-.88c-2.9-1.88-4.64-5.07-6.91-7.68C129,43.84,121.77,40.83,117,35.25a3.42,3.42,0,0,1-.88-1.57,3.66,3.66,0,0,1,.72-2.28l4.33-7.34"/><path class="cls-5" d="M67.36,29.56c.09-.13.2-.26.3-.39"/><path class="cls-5" d="M67.67,29.17h0c-3.92-1-8.16-1.64-12.09-2.64a16.05,16.05,0,0,0-6.17-.76A13.33,13.33,0,0,0,43.07,29,54.16,54.16,0,0,0,35.5,36.7c-3.64,4.41-6.9,9.2-10.65,13.53a39.6,39.6,0,0,0-5.37,6.9c-1.9,3.54-2.4,7.68-4.14,11.3a5,5,0,0,1-2.46,2.71,6.3,6.3,0,0,0-1.41.53c-1.07.73-.79,2.37-.38,3.61l3.09,9.46c.41,1.26,1.3,2.81,2.58,2.48.8-.2,1.22-1.07,1.52-1.83l4.09-10.2L25,77.48l.3-.76A101.86,101.86,0,0,1,43.3,48c1.83-2,3.78-4.09,4.93-6.59a2.14,2.14,0,0,0,.23-1.61A2.25,2.25,0,0,0,47,38.73a41,41,0,0,0-11.46-2h-.36"/><path class="cls-5" d="M25.35,76.73c-.12,8.19-3.43,16.25-2.44,24.37a.15.15,0,0,1,0,.06c.92,7.37,5.26,13.83,9.87,19.66,2.5,3.16,5.11,6.23,7.72,9.3a146.23,146.23,0,0,0,11.43,12.43,62,62,0,0,0,10.66,8.09"/><path class="cls-5" d="M63,150.69a98.17,98.17,0,0,0,43.84-2.38,42.4,42.4,0,0,1,7.5-1.79c2.29-.22,4.59,0,6.88-.09a25.5,25.5,0,0,0,20.64-12.36"/><path class="cls-5" d="M141.79,58.56c3.32,4.78,6.55,9.71,8.55,15.15.27.72.52,1.46.74,2.21,3.21,10.8.91,22.37-1.41,33.4-1.78,8.51-3.63,17.16-7.69,24.83l-.48.88"/><path class="cls-5" d="M22.35,101.16a30.5,30.5,0,0,0-2.57,21.34c.73,2.94,1.91,5.82,1.87,8.85,0,2.08-.63,4.13-.72,6.21-.42,9.84,9.88,16.18,15.6,24.2,4.09,5.75,5.92,12.75,8.7,19.23a39.71,39.71,0,0,0,4.57,8.17,19.78,19.78,0,0,0,9.13,7.14c6.94,2.45,14.79-.18,21.87,1.79,4.72,1.31,9,4.63,13.89,4.48a20.34,20.34,0,0,0,7.25-2.07l30.21-12.87,16.65-7.1"/><path class="cls-5" d="M49.24,189.4a.05.05,0,0,0,0,0c.69,1.32,1.36,2.64,2,4a109.15,109.15,0,0,1,6.58,17.47,108.53,108.53,0,0,1,3.6,19.32c.52,5.6.57,11.46-1.74,16.59-3,6.69-9.82,11.72-10.64,19a8.71,8.71,0,0,0,3.15-5.47"/><path class="cls-5" d="M71.47,273.07a2.45,2.45,0,0,1,1.25-1.95,3.26,3.26,0,0,1,.4-.24l.16-.08.15-.07a4.28,4.28,0,0,1,.46-.17h0l.2-.06.44-.11c1.21-.3,2.49-.52,3.26-1.48a4.84,4.84,0,0,0,.75-3c.22-6.55,0-13.14,1-19.61.56-3.64,1.5-7.24,1.6-10.92.11-4.28-.93-8.54-1.55-12.79a28.53,28.53,0,0,1-.23-8.55"/><path class="cls-5" d="M71.47,273.07a1.64,1.64,0,0,1,.12.55A1.6,1.6,0,0,1,71.47,273.07Z"/><path class="cls-5" d="M52.1,263c-.19,1.39-.37,2.78-.55,4.17a2,2,0,0,0,.06,1.08,2,2,0,0,0,1.11.87l.42.19.54.24.19.08.15.07.26.12.13.05h0l.09,0,.45.19.6.25a23.76,23.76,0,0,0,7,1.87,11.13,11.13,0,0,0,1.53,0,11.7,11.7,0,0,0,1.85-.18,12,12,0,0,1,3.34-.47,2.68,2.68,0,0,1,2.23,1.49"/><path class="cls-5" d="M70,202.5a53.3,53.3,0,0,1,9.77,11.36c.38.6.74,1.2,1.1,1.81.78,1.34,1.59,2.8,3,3.47a7.18,7.18,0,0,0,3.42.42l15.55-.57c4.43-.16,8.93-.34,13.12-1.79a22.43,22.43,0,0,0,11.18-8.66,31.62,31.62,0,0,1,3.19-4.55,6.32,6.32,0,0,1,2.3-1.58"/><path class="cls-5" d="M79.84,222.6c2.15,3.71,4.5,7.61,8.3,9.6,2.75,1.43,5.94,1.69,9,1.85,3.63.2,7.27.29,10.91.3,7.8,0,16.07-.56,22.62-4.68q.54-.34,1.08-.72"/><path class="cls-5" d="M131.16,205.85c1.94,5.36,3.91,11.22,2.13,16.64-.58,1.75-1.53,3.35-2.1,5.11a14.82,14.82,0,0,0-.49,2.07,41.23,41.23,0,0,0-.28,6.86,109.21,109.21,0,0,1-5.94,36.11l-.42,1.18"/><path class="cls-5" d="M150.15,73.52l.19.19c3.23,3,6.45,6.16,8.54,10.05a39,39,0,0,1,2.58,6.44,249.66,249.66,0,0,1,11.44,55.34,65.88,65.88,0,0,1,.33,9.42c-.12,2.34-.46,4.66-.8,7q-.87,5.85-1.73,11.71c-1.47,10-3,20.27-8,29.07"/><path class="cls-5" d="M163.54,202.71c.16.17.32-.3.09-.34s-.41.18-.53.38a1.09,1.09,0,0,0-.08.15,98.15,98.15,0,0,0-12.89,50.24,39.71,39.71,0,0,0,2.18,13.62c1.67,4.34,4.57,8.21,5.59,12.74"/><path class="cls-5" d="M124.7,272.72a19.07,19.07,0,0,1-1.68,6"/><path class="cls-5" d="M130.48,204a10.57,10.57,0,0,0,.71,1.82c.06.13.13.26.2.38"/><path class="cls-5" d="M69.1,270.21c-.09.09.14.21.21.1s0-.25,0-.36a14.44,14.44,0,0,1-.7-11.6"/><path class="cls-5" d="M58.64,270.7a52.22,52.22,0,0,1,1.46-13.58"/><path class="cls-5" d="M50.34,194.18c.19,0,.19-.21.1-.36a.32.32,0,0,0-.35-.19c-.32.1-.43.48-.52.81-1.3,5-6.48,7.8-10.41,11.2a4.62,4.62,0,0,0-1.78,2.56,3.18,3.18,0,0,0,.68,2.37,6.05,6.05,0,0,0,.61.73l.19.19.5.44.22.18a16.72,16.72,0,0,0,4.63,2.54l.4.13.64.22.43.12a26.52,26.52,0,0,0,4.67.88,10.9,10.9,0,0,0,1.14.07,5.17,5.17,0,0,0,1-.07,4.34,4.34,0,0,0,.6-.14l.35-.13a6.5,6.5,0,0,0,2-1.55,15.91,15.91,0,0,0,2.41-3.29c.08-.13.15-.27.22-.41"/><path class="cls-5" d="M49.24,214.57a46.13,46.13,0,0,1,4.42-8.76"/><path class="cls-5" d="M42.67,213a24.45,24.45,0,0,1,6.2-7.48"/><path class="cls-5" d="M133.44,276.88q-.23-3.4-.47-6.79"/><path class="cls-5" d="M142.92,277.63a18.3,18.3,0,0,0-1.13-6.43"/><path class="cls-5" d="M153.58,277.23a9.09,9.09,0,0,0-2.81-4.82"/><path class="cls-5" d="M120.37,84.9a56.55,56.55,0,0,1,5.56,6.66c1.21,1.66,2.37,3.37,3.52,5.07a54.2,54.2,0,0,1,3.88,6.33c.35.7.66,1.41.94,2.14a32.46,32.46,0,0,1,1.61,12.56c-.17,5.31-1.26,10.38-5.37,13.76"/><path class="cls-5" d="M99,68c3.37,3.15,5.51,3.24,9,6.19,1.39,1.16,2.53,2.6,3.86,3.83A44.52,44.52,0,0,0,116,81.16c.38.27.76.55,1.13.84a34.49,34.49,0,0,1,3.25,2.9"/><path class="cls-5" d="M116.33,80.7c.23-3.62-2.33-6.76-3.38-10.22-.62-2-.71-4.24-1.57-6.19s-2.27-3.39-3-5.3a2.55,2.55,0,0,1-.2-1.41c.28-1.45,2.3-1.73,3.68-1.22,3.64,1.36,5.51,5.51,8.91,7.39,2.23,1.24,4.87,1.37,7.37,1.87,3.63.71,7.28,2.42,9.28,5.54a18,18,0,0,1,2,5.3c1.08,4.13,2,8.52.8,12.62a25.32,25.32,0,0,1-1.83,4.26c-1.24,2.48-2.49,5-3.74,7.44a16.06,16.06,0,0,1-1.22,2.13"/><path class="cls-5" d="M120.37,84.9h0c-.88-1.88-2.49-5.57-2.13-7.61a6.28,6.28,0,0,1,2.73-4,11.42,11.42,0,0,1,4.63-1.7,10.79,10.79,0,0,1,6.51.66,8.91,8.91,0,0,1,4.6,7.3,14.11,14.11,0,0,1-2.42,8.53,9.36,9.36,0,0,1-3.45,3.45,4.58,4.58,0,0,1-4.7-.15"/><path class="cls-5" d="M63.66,43.38c4-3,9.06-4.19,14-5.22,3.48-.73,7-1.41,10.56-.92,5.34.75,10.29,4.17,15.65,3.61"/><path class="cls-5" d="M93.55,82.89a8.24,8.24,0,0,1-2.14,1.61c-.42.2-.85.38-1.26.6a3.25,3.25,0,0,0-.81.56c-.33.3-.73.5-1,.79s-.54.38-.79.6-.39.42-.62.6a7.87,7.87,0,0,0-.62.53c-.28.24-.62.39-.9.63a11,11,0,0,1-1,.94,8.52,8.52,0,0,0-1.29,1.1c-.24.24-.47.51-.73.73s-.59.41-.85.66-.56.43-.79.7-.52.41-.76.65a1,1,0,0,0-.26.57,1.31,1.31,0,0,0,.28,1,9.85,9.85,0,0,0,1.62,1.25c.24.2.52.33.76.52a.28.28,0,0,1,.1.09,3.07,3.07,0,0,0,.53.4c.51.3.9.71,1.38,1a7.9,7.9,0,0,0,2.78,1.1c.9.19,1.83.46,2.73.62a26.39,26.39,0,0,1,2.74.62c.28.09.59.15.88.25a2.52,2.52,0,0,1,.44.17,13.58,13.58,0,0,1,1.54.73,1.28,1.28,0,0,0,.4.23.31.31,0,0,0,.19,0,3,3,0,0,0,.77-.51c.48-.38.87-.83,1.39-1.17.28-.18.58-.34.87-.49s.57-.45.89-.65c.58-.34,1.16-.61,1.76-.93a9.72,9.72,0,0,0,1.5-1.14c.47-.4,1.08-.66,1.56-1.06a7.92,7.92,0,0,1,.77-.64,4.47,4.47,0,0,0,.77-.51,10.83,10.83,0,0,0,1.47-1.31,1.53,1.53,0,0,0,.35-.8,1.39,1.39,0,0,0-.1-.58,1.6,1.6,0,0,0-.41-.64c-.21-.21-.36-.47-.56-.69a17.22,17.22,0,0,0-1.42-1.29,5.37,5.37,0,0,0-.84-.53,8,8,0,0,1-.84-.6,13.84,13.84,0,0,0-1.38-1,8.45,8.45,0,0,1-1.82-1.07A15.37,15.37,0,0,0,99,85.29a8.58,8.58,0,0,0-1.68-1.14c-.51-.22-1-.5-1.5-.75a4.81,4.81,0,0,1-1-.63c-.21-.18-.49-.62-.75-.25"/><path class="cls-5" d="M99,68a5.73,5.73,0,0,1-.86-4.86,15.22,15.22,0,0,1,2.13-4.29,26,26,0,0,1,4-5.21,13.49,13.49,0,0,1,15.17-2"/><path class="cls-5" d="M84.78,68.42c.3-4.25-1.87-11.09-5.51-13.3A14.9,14.9,0,0,0,66.94,54c-3.33,1.13-6.24,3.27-9.61,4.28-3,.91-6.33.84-9.35,1.83-3.7,1.21-6.71,3.89-9.6,6.51"/><path class="cls-5" d="M73,44.76a10.35,10.35,0,0,1,8.1.09c1.28.57,2.43,1.39,3.71,1.94a5,5,0,0,0,4.06.19"/><path class="cls-5" d="M21.65,129.51c.36,4.61,2.84,8.85,6,12.19s7.12,5.9,11,8.42l13.39,8.72"/><path class="cls-5" d="M78,167.92c3,.68,5,3.39,7.63,4.79s6.18,1.38,9.3.85,6.19-1.47,9.35-1.63c3.39-.16,7,.54,10-1"/><path class="cls-5" d="M154.31,143.61a33.1,33.1,0,0,1-12.39,25.64"/><path class="cls-5" d="M54.47,267.92a.11.11,0,0,0,.11-.12.22.22,0,0,0-.15-.23c-.17,0-.32.12-.44.25a5.43,5.43,0,0,0-1.15,4.35l.17-.26.05-.06.48-.71.22-.32.64-.95,0,0a1,1,0,0,1,.08-.11c.05-.09.11-.17.17-.26a2.51,2.51,0,0,0,.38-.7,1.09,1.09,0,0,0,0-.26.67.67,0,0,0-.07-.34.77.77,0,0,0-.14-.21.49.49,0,0,0-.31-.16h-.09a12.88,12.88,0,0,0-.81,1.72,12.38,12.38,0,0,0-.67,2.4.59.59,0,0,1,0,.13,1.46,1.46,0,0,1,.07-.19,10,10,0,0,1,.57-1.44q.18-.39.39-.75a11.47,11.47,0,0,1,1-1.49c.15-.21.32-.4.49-.6a.51.51,0,0,0-.43-.33h1.48a9.91,9.91,0,0,1-1,3.09,10.23,10.23,0,0,1-2.23,2.88,5.9,5.9,0,0,1,.19-1.68c.07-.24.14-.47.23-.7a5.61,5.61,0,0,1,.52-1,6.47,6.47,0,0,1,.78-1l.21-.21a3,3,0,0,1-.3,1.51,3.47,3.47,0,0,1-.21.37"/><path class="cls-5" d="M63.1,270.61a5.25,5.25,0,0,1,.25-1.3l0,1.44c.09-.5.17-1,.26-1.5a5.6,5.6,0,0,0,.27,2.11l0-1.41"/><path class="cls-5" d="M63.1,270.77v-.1"/><path class="cls-5" d="M63,270.52c0,.13,0,.26.07.39v-.14"/><path class="cls-5" d="M62.6,269.64l.15-.85c.09.57.19,1.15.28,1.72"/><path class="cls-5" d="M62.57,269.82l0-.17"/><path class="cls-5" d="M62.6,269.65a1.92,1.92,0,0,1,0,1,7.85,7.85,0,0,0,0-.84h0a7.69,7.69,0,0,0-.24-1.34c0,.86,0,1.72,0,2.58.07-.41.14-.82.22-1.24"/><path class="cls-5" d="M62.6,269.65h0"/><path class="cls-5" d="M64.43,269.21a1.87,1.87,0,0,0-.52-1,.93.93,0,0,0-.76-.29.68.68,0,0,0-.41.25,1.45,1.45,0,0,0-.22,1,4.5,4.5,0,0,0,.08.51"/><path class="cls-5" d="M61.9,267.37a5.53,5.53,0,0,0,.62,4.82,5,5,0,0,0,1.66,1.63,3.14,3.14,0,0,1-.13-1.59,14,14,0,0,0,.38-3"/><path class="cls-5" d="M63,270.47v0h0l.07.25h0c.08.29.16.58.23.87a1.2,1.2,0,0,0-.23-1v-.06a7,7,0,0,0-.36-2.49,6.37,6.37,0,0,0-.38-.94c.49-.68,1.68-.28,2,.48a2.56,2.56,0,0,1,.07,1.55h0c-.07.3-.16.61-.25.9"/><path class="cls-5" d="M54.2,271c.07-.36.14-.72.2-1.08a.06.06,0,0,0,0,0l.06-.31a1.55,1.55,0,0,1,0,.21s0,.1,0,.15a3,3,0,0,1-.9,2.38,4.67,4.67,0,0,1-.09-.74c0-.13,0-.25,0-.38a4.55,4.55,0,0,1,.09-.73,5.54,5.54,0,0,1,.24-.82,4.78,4.78,0,0,1,1-1.63,3.81,3.81,0,0,1,.46-.44"/><path class="cls-5" d="M72.39,267.57a2,2,0,0,0,.06.44,10.27,10.27,0,0,0,.47,1.55c.09.26.2.51.31.75s.13.28.2.42.29.55.45.82.23.36.35.54a1.63,1.63,0,0,0,.11.17"/><path class="cls-5" d="M72.5,267a4.34,4.34,0,0,0-.11.61h0a7.76,7.76,0,0,0,.33,3.55,7.41,7.41,0,0,0,1,2c-.13-.51-.24-1-.33-1.54-.05-.27-.08-.54-.12-.81s0-.33,0-.49a17,17,0,0,1-.1-2.14V268a.74.74,0,0,0,0,.14,4.53,4.53,0,0,0-.17,1.42,5.34,5.34,0,0,0,.2,1.32,5.8,5.8,0,0,0,.28.73,3.92,3.92,0,0,0,.29.53c.07-.2.14-.39.19-.59s.08-.27.11-.41.09-.42.12-.64a7.15,7.15,0,0,0,.07-1.79.63.63,0,0,0-.15-.43.18.18,0,0,0-.07,0c-.18-.09-.39,0-.59,0a.36.36,0,0,1-.24-.08l0,0a.75.75,0,0,1,.1-1,1.41,1.41,0,0,1,1-.2,3.85,3.85,0,0,1,.49.07,29.88,29.88,0,0,1-.1,3.41c0,.67-.12,1.33-.21,2,0-.1-.08-.2-.11-.3a7.77,7.77,0,0,1-.24-.95,5.77,5.77,0,0,1-.08-.58,7.18,7.18,0,0,1,.1-2.17.43.43,0,0,0,0-.11,3.83,3.83,0,0,0,.15-1.3.64.64,0,0,1,0-.07,1,1,0,0,0-.88-.87c-.69,0-.93.79-.89,1.52"/><path class="cls-5" d="M40.46,209.81h0a3.12,3.12,0,0,0-3.43,3,9.9,9.9,0,0,1,1.67-1.5,10,10,0,0,1,1.69-1l.26-.11a9.85,9.85,0,0,0-1.76,1.25,8.19,8.19,0,0,0-1,1,4.18,4.18,0,0,0,1.74-.4A4.12,4.12,0,0,0,41.07,211"/><path class="cls-5" d="M46.41,212.16A4.47,4.47,0,0,0,44,216.24a4.19,4.19,0,0,1,.66-1.46,4.32,4.32,0,0,1,1.52-1.36L45.25,215l-1,1.86,1.46-1.74,1.2-1.44"/><path class="cls-5" d="M46.25,213.06c.07-.3.15-.61.22-.91l.48.68"/><path class="cls-5" d="M52,213.56a7.69,7.69,0,0,0-.51,2.51,7.22,7.22,0,0,0,.32,2.44c.24-.82.45-1.66.64-2.51s.3-1.47.41-2.21a.23.23,0,0,1,0-.11c0-.34.66-.51.9-.18a1.43,1.43,0,0,1,0,1.29c-.11.31-.21.62-.32.94l-.56,1.62"/><path class="cls-5" d="M122.28,278.65l.34.15a14.25,14.25,0,0,0,4.9,1.49,6.32,6.32,0,0,0,.87,0h.05c1.95-.14,3.94-1.46,4.32-3.31a2.32,2.32,0,0,0,.07-.59"/><path class="cls-5" d="M133.08,277c1.51,1.54,3.11,3.15,5.18,3.79a4.54,4.54,0,0,0,.66.16l.4.05a4.41,4.41,0,0,0,4.31-1.91,3.41,3.41,0,0,0,.17-.33"/><path class="cls-5" d="M143.26,276.47v1.7"/><path class="cls-5" d="M143.38,278.68a4.79,4.79,0,0,0,.25.45,5.1,5.1,0,0,0,8.77-.05,4.5,4.5,0,0,0,.6-1.45"/><path class="cls-5" d="M153.14,279.2a3.13,3.13,0,0,0,5,.81"/><path class="cls-5" d="M138.75,276.47a16.3,16.3,0,0,0,.17,4.52c0,.14.05.28.08.42a2.83,2.83,0,0,0,.32-.37,4.32,4.32,0,0,0,.23-4.74"/><path class="cls-5" d="M148.37,278.68c0,.4-.05.79-.07,1.19"/><path class="cls-5" d="M148.37,278.68c.33.7.66,1.38,1,2.07a3.83,3.83,0,0,0-.9-4.12C148.44,277.32,148.4,278,148.37,278.68Z"/><path class="cls-5" d="M147.83,277.59l.54,1.09"/><path class="cls-5" d="M127.4,276.47c0,1.24.09,2.49.13,3.73.4-1.18.8-2.35,1.21-3.53a2.57,2.57,0,0,1-.35,3.6"/><path class="cls-3" d="M103.9,90.17,94.74,85.1l-1.37,2.33c3.89,1.87,5.61,7.47,10.7,6.8,1.69-.23,1.72-2.93,0-2.7-4,.53-6.09-4.86-9.33-6.43-1.55-.75-2.9,1.48-1.37,2.33l9.16,5.07c1.52.85,2.89-1.48,1.37-2.33Z"/><path class="cls-3" d="M81.69,95.55a14.56,14.56,0,0,0,13.53,4.68c1.71-.28,1-2.88-.71-2.6a11.85,11.85,0,0,1-10.92-4c-1.15-1.3-3,.62-1.9,1.91Z"/><path class="cls-3" d="M93.72,86.83l.53.81a1.39,1.39,0,0,0,1.85.48,1.35,1.35,0,0,0,.48-1.84l-.53-.82A1.39,1.39,0,0,0,94.2,85a1.37,1.37,0,0,0-.48,1.85Z"/><path class="cls-3" d="M52.82,84.5c-1.24,1.08-2.61,2.7-1.86,4.17a2.15,2.15,0,0,0,3.57,0,2.61,2.61,0,0,0-1.34-3.57"/><path class="cls-3" d="M51.86,83.54c-1.36,1.22-2.78,2.94-2.39,4.9A3.25,3.25,0,0,0,53,91a3.38,3.38,0,0,0,3.16-3,4,4,0,0,0-2.28-4,1.4,1.4,0,0,0-1.85.49,1.36,1.36,0,0,0,.49,1.84,1.49,1.49,0,0,1,1,1.25.67.67,0,0,1-.68.75c-.46,0-.76-.15-.69-.66.13-.86,1-1.62,1.66-2.16,1.3-1.16-.61-3.06-1.91-1.91Z"/><path class="cls-3" d="M127.53,79.33a2.48,2.48,0,1,1-2.16,3.72,2.61,2.61,0,0,1,2.16-3.72"/><path class="cls-3" d="M127.53,80.68c1.29.07,1.5,2.17,0,2.16s-1.27-2.1,0-2.16c1.73-.09,1.74-2.78,0-2.7a4,4,0,0,0-3.78,3.9,3.78,3.78,0,0,0,7.55,0A4,4,0,0,0,127.53,78c-1.73-.09-1.73,2.6,0,2.7Z"/><path class="cls-3" d="M52.55,86.14a1.35,1.35,0,0,0,0-2.7,1.35,1.35,0,0,0,0,2.7Z"/><path class="cls-3" d="M52,87a1.35,1.35,0,0,0,0-2.7A1.35,1.35,0,0,0,52,87Z"/><path class="cls-2" d="M52.82,85.06a1.35,1.35,0,0,0,0-2.7,1.35,1.35,0,0,0,0,2.7Z"/><path class="cls-2" d="M127.8,79.67a1.35,1.35,0,0,0,0-2.7,1.35,1.35,0,0,0,0,2.7Z"/><path class="cls-6" d="M94.81,94.87,96,100.51c.08.43.73.25.65-.18l-1.17-5.64c-.09-.43-.74-.25-.65.18Z"/><path class="cls-6" d="M98.14,89.65a2.73,2.73,0,0,0,3.3,3.58.34.34,0,0,0-.18-.65,2.06,2.06,0,0,1-2.47-2.75c.15-.41-.5-.59-.65-.18Z"/><path class="cls-6" d="M89.94,90.58a2.06,2.06,0,0,1-2.47,2.75.34.34,0,0,0-.18.65,2.73,2.73,0,0,0,3.3-3.58c-.15-.4-.8-.23-.65.18Z"/></g></g></svg>