<svg xmlns="http://www.w3.org/2000/svg" viewBox="0 0 572.71 491.5"><defs><style>.cls-1{fill:#6cc38e;}.cls-2,.cls-3{fill:#fff;}.cls-2,.cls-8,.cls-9{stroke:#231f20;stroke-miterlimit:10;}.cls-4{fill:#fac6ca;}.cls-5{fill:#6d6e71;}.cls-6{fill:#58595b;}.cls-7{fill:#bcbec0;}.cls-8,.cls-9{fill:none;}.cls-9{stroke-width:2px;}</style></defs><title>typewriter</title><g id="Layer_2" data-name="Layer 2"><g id="Layer_1-2" data-name="Layer 1"><rect class="cls-1" width="572.71" height="491.5"/><rect class="cls-2" x="113.52" y="243.04" width="357.75" height="148.88" rx="12" ry="12"/></g><g id="Layer_2-2" data-name="Layer 2"><path class="cls-3" d="M323.1,142.43a6.18,6.18,0,0,1-.57-4.29c.91-3.78,5.39-5.9,9.21-5.17s6.9,3.64,9,6.92a21.36,21.36,0,0,1,1.46,2.76c-3.41,2.77-7.58,5-11.94,4.6A9.26,9.26,0,0,1,323.1,142.43Z"/><path class="cls-3" d="M342.17,142.65c3.05,6.92,2.53,15.58-2.74,20.9-6,6.06-18.21,4.83-21.37-3.09a4.52,4.52,0,0,1-.28,1.18c-1.61-1.32-1.7-3.86-1.34-6a25.43,25.43,0,0,1,6.66-13.25,9.26,9.26,0,0,0,7.13,4.82C334.59,147.67,338.76,145.42,342.17,142.65Z"/><path class="cls-3" d="M317.31,123.65c3.75,8.39.22,18.16-4,26.33-2.16,4.18-5.17,8.59-8.82,11.53a21.27,21.27,0,0,1-3.22-9.09,56.75,56.75,0,0,1,2.24-26.29c1.22-3.66,3.68-7.79,7.54-7.7C313.92,118.51,316.14,121,317.31,123.65Z"/><path class="cls-3" d="M295,123.25a43.71,43.71,0,0,1-8.48,37.08,16.3,16.3,0,0,1-2.8-4.75c-1.68-4.36-1.7-9.18-1.27-13.83a75.34,75.34,0,0,1,3.83-17.62c1-2.78,3.33-6.09,6.07-5C293.88,119.75,294.56,121.59,295,123.25Z"/><path class="cls-3" d="M237.11,136.4q.33,12.91.27,25.85c0,2.9-1,6.8-3.89,6.74s-3.7-3.8-3.74-6.62c-.08-5.58-.15-11.27,1.5-16.61A20.45,20.45,0,0,1,237.11,136.4Z"/><path class="cls-3" d="M272.82,139.3a46.76,46.76,0,0,1-3.1,21.92,10,10,0,0,1-2.27,3.72c-3.06-3.19-4.71-8.35-4.84-13a39.73,39.73,0,0,1,2.76-15.73,4.84,4.84,0,0,1,1.93-2.66C270.09,132.08,272.51,136.16,272.82,139.3Z"/><path class="cls-4" d="M501.74,366.87a160.92,160.92,0,0,1-3,37.29c-.66,3.27-1.5,6.69-3.77,9.14-3.9,4.21-10.46,4.13-16.19,3.84-54.91-2.75-109.78,4.23-164.7,6.94-72,3.55-144.11-.23-216.09-4-4.58-.24-9.91-.91-12.23-4.86-1.17-2-1.28-4.38-1.37-6.67q-.51-13.17-1-26.34l1.59-.5c.12.23.26.46.4.68,2.4,3.69,7.28,4.71,11.64,5.33,53.21,7.48,107.26,2,161,1.49,68.6-.67,137.4,6.75,205.68.11,9.79-1,19.91-2.33,28.21-7.61a17.65,17.65,0,0,0,6-5.83,18.6,18.6,0,0,0,2.07-9Z"/><path class="cls-4" d="M457.93,232.09q.21-10.77.42-21.51c.07-3.61.14-7.29-.86-10.76a14.83,14.83,0,0,0-1.64-3.74,11.93,11.93,0,0,0-2-2.44,10.73,10.73,0,0,1,6.52.35,16.38,16.38,0,0,1,9,8.23l.14.3c2.91,6.47,2.37,13.91,2.37,21,0,47.95,27,92.64,28.07,140.59,0,.89,0,1.8,0,2.7a18.6,18.6,0,0,1-2.07,9,17.65,17.65,0,0,1-6,5.83c-8.3,5.28-18.42,6.65-28.21,7.61-68.28,6.64-137.08-.78-205.68-.11-53.73.52-107.78,6-161-1.49-4.36-.62-9.24-1.64-11.64-5.33-.14-.22-.28-.45-.4-.68-1.6-3.09-1.16-6.92-.66-10.42q9.2-63.57,18.4-127.15c1.2-8.3,2.4-16.61,3.76-24.89q.81-5,1.71-10t1.9-9.91l.82.2a13.89,13.89,0,0,0,2.8-8.54l2.73,0a71.65,71.65,0,0,1,1.67-15.24,26.56,26.56,0,0,1,.83-3.06,11,11,0,0,1,1.54-3,6.23,6.23,0,0,1,5.65-2.73,1.83,1.83,0,0,1,.11.66c0,1.47-1.36,3.17-.31,4.2s2.52-.07,3.83.08c2.08.23,2.61,3,2.6,5.09q0,5.12-.08,10.24a11.64,11.64,0,0,0-4,3.85h0a12.44,12.44,0,0,0-4.81,4.23c-2.6,3.76-3.73,8.9-4.17,13.61a154.42,154.42,0,0,0,0,23.95c.89,14.34,2.75,28.7,1.84,43-1.88,29.56-15.37,57.23-19.31,86.58a56.16,56.16,0,0,0-.52,13.14l-.27.49c6.71,4,15.18,3.94,23.07,3.69l54.93-1.7c1.74-.05,3.79,0,4.78,1.47.63.92.66,2.2,1.46,3,1.11,1.09,3.14.47,4-.82a3.2,3.2,0,0,0,.34-.63q105.48.67,210.95-2.14c0,.43-.09.85-.14,1.28l.05.35,4.41-.56c-1.26-2.14,2.22-3.84,4.7-3.93l56.8-2.05c4.6-.16,10.18-1,11.92-5.24a11.46,11.46,0,0,0,.53-4.74c-.81-22.52-9-44-15.58-65.55-6.43-21.22-11.29-44-5.81-65.43.08-.34.17-.68.26-1Z"/><path class="cls-4" d="M300.86,317.53l.12-.14a11.26,11.26,0,0,0-15.07.09l.59.45-.47.95c-1,2.15-1.53,5.5.74,6.18a4.1,4.1,0,0,0,1.48.08l5.72-.38c1.53-.1,3.23-.29,4.24-1.44,1.23-1.41,1-3.85,2.08-5.24A5.9,5.9,0,0,0,300.86,317.53ZM470.93,335.9a6.64,6.64,0,0,0-1.52-1.95l-1.85-.35a130.3,130.3,0,0,0-14.92.23c-2.65.19-5.72.74-6.94,3.1a4,4,0,0,0,2.85,1.69l-.19.87c-1.3,1.71-.19,4.37,1.67,5.45s4.13,1,6.28.95l15-.55a43.64,43.64,0,0,1-.43-7.4,2.54,2.54,0,0,0,.16-.28A2.05,2.05,0,0,0,470.93,335.9Zm-231.4-56.46h.05l-.05.21c-.63,3.61,2.75,7.21,6.42,7.25s7.17-3.79,5.89-7.21h-1.17c1.91-.38,4.24-2.27,3-3.75a2.81,2.81,0,0,0-1.53-.78,31.39,31.39,0,0,0-9.46-1c-1.57.08-3.38.43-4.15,1.8a2.12,2.12,0,0,0,1.17,2.82Zm-73-39.73c-2.79-.76-6.13.18-7.42,2.73-1.47,2.89,1.19,7.16,4.35,6.43a5,5,0,0,0,3.41-4A12.44,12.44,0,0,0,166.56,239.71Zm148,80.75c.47,0,.94,0,1.42.05a12.11,12.11,0,0,0,2.47,6.57,6.42,6.42,0,0,0,8.9-7,2.93,2.93,0,0,0,2.37-1.29c.75-1.5-.93-3.08-2.5-3.67a13.07,13.07,0,0,0-13.94,3.39,1.64,1.64,0,0,0,1.31,1.31Zm-61-21,2.52,6a2.44,2.44,0,0,0,1,1.31,2.41,2.41,0,0,0,1.36.11,16.6,16.6,0,0,0,6.53-1.71c2-1.14,3.47-3.36,3.08-5.59l-.75-.16a2.64,2.64,0,0,0,.72-3.14,3.65,3.65,0,0,0-1.64-1.3,14.14,14.14,0,0,0-11-.44,3.57,3.57,0,0,0-2.43,2.17,4,4,0,0,0,.46,2.37Zm-96.11-17.3-.22,1.33a4,4,0,0,0,2.54,3.64,11.26,11.26,0,0,0,4.62.71c1.84,0,3.8,0,5.31-1.08s2.12-3.26,1-4.56l-.27-.62c1.82-.71,3.5-2.22,2.68-3.84a3.4,3.4,0,0,0-1.65-1.38,15.47,15.47,0,0,0-9.82-1.23,6.33,6.33,0,0,0-4,2.22c-.89,1.29-.77,3.35.58,4.14l-.11.78Zm-24.71,36.89.12-.14a11.29,11.29,0,0,0-15.08.09l.59.46-.46.95c-1,2.14-1.53,5.49.74,6.18a4,4,0,0,0,1.47.07l5.72-.38c1.53-.1,3.23-.28,4.25-1.44,1.24-1.42,1-3.86,2.1-5.25A7,7,0,0,0,132.66,319.08Zm295.3-77a85.74,85.74,0,0,0-14,0,86.81,86.81,0,0,0-9.62,1.3c-1.72.33-3.92,1.48-3.58,3.46.27,1.54,1.92,2.07,3.28,2.25a74.29,74.29,0,0,0,8,.63,4.69,4.69,0,0,0,3.76,0,75.79,75.79,0,0,0,12.9-1.42c1.26-.24,2.76-.77,3.08-2.2.49-2.13-1.93-3.33-3.91-3.47Zm-9.55,57.79a10.57,10.57,0,0,1,.65,3.29c2.48.72,5.05,1.45,7.61,1.09s5.1-2.12,5.52-4.67l-.07-.17c1.57-.66,2.93-1.81,2.69-3.39s-2-2.4-3.6-2.76a22.34,22.34,0,0,0-15.74,2.23A10.81,10.81,0,0,1,418.41,299.84Zm-55.77-1c.69.25,1.39.45,2.1.63l-.06.23c-1,2.94,1.44,6.15,4.37,7.17s6.15.46,9.21-.11a17.92,17.92,0,0,1,2-8.55l-.58-.27c.59-1.61-1.5-2.88-3.2-3.14a17.73,17.73,0,0,0-13.77,3.8Zm72.21,37.13-.56,1.39a16.54,16.54,0,0,0-15.53,2,11.26,11.26,0,0,0,2.42,1.54l-1,1.39q3.24,4.2,6.47,8.39a24,24,0,0,1,9.73-1.81,15.57,15.57,0,0,1-.71-6.81,2.77,2.77,0,0,0,1.55-.93C438.59,339.36,436.76,337.2,434.85,335.93ZM257.15,318.8a21.72,21.72,0,0,0,2.09.61l-.06.23c-1,2.95,1.44,6.15,4.38,7.17s6.15.47,9.2-.1a18.16,18.16,0,0,1,2-8.55l-.57-.27c.59-1.61-1.51-2.88-3.21-3.14a17.72,17.72,0,0,0-13.76,3.8Zm22.57-19.74c1.26,1.69.52,4.41,1.88,6.07a4.44,4.44,0,0,0,3.79,1.3,8.83,8.83,0,0,0,7.76-6.5v0c1.34-.31,2.69-1,2.81-2.35.16-1.79-2-2.76-3.75-3.17-2.46-.6-5-1.19-7.51-.63s-4.77,2.6-4.76,5.12v0ZM140,279l.14-.16a11.29,11.29,0,0,0-15.07.09l.59.46-.47.95c-1,2.15-1.53,5.49.74,6.18a4.32,4.32,0,0,0,1.48.08l5.71-.38c1.54-.11,3.24-.29,4.25-1.45,1.23-1.41,1-3.84,2.08-5.23A7,7,0,0,0,140,279Zm109.82-41v.33a4.59,4.59,0,0,0-3.9,2.88,12.43,12.43,0,0,0-.4,6,1.74,1.74,0,0,0,1.95,2A773.94,773.94,0,0,0,333,251.62a3.28,3.28,0,0,0,3.87-3.5c.54-3.33.67-7.56-2.31-9.13a8,8,0,0,0-3.83-.64Zm142,79.66-.45-.15a1.49,1.49,0,0,0,.36-1.27c-.2-1-1.35-1.45-2.34-1.68a32.18,32.18,0,0,0-17.82,1,2.77,2.77,0,0,0,2.34,2.4l-.17.24c-1.34,2.14.05,5.27,2.3,6.53s5.19,1.2,7.87,1c2-.12,4.3-.39,5.44-2C390.61,321.94,390.1,318.89,391.82,317.74Zm-209.22,25a1.2,1.2,0,0,0,.38,1.08,2.22,2.22,0,0,0,1.27.45l-.28,1.64c-1.66,1.85-.56,5,1.53,6.37s4.73,1.36,7.21,1.34l4.46,0a1.62,1.62,0,0,0,2.09-2c-.18-2.24-.35-4.47-.53-6.7l0-.14c.19-.06.38-.12.57-.2a3.55,3.55,0,0,0,2.37-3.63c-.4-2.21-3.21-2.89-5.46-2.93C191.2,337.91,185.69,338.86,182.6,342.75Zm110.93-63.86c.48,0,1,0,1.42.05a12.15,12.15,0,0,0,2.46,6.57,6.43,6.43,0,0,0,8.91-7.05,2.93,2.93,0,0,0,2.37-1.29c.75-1.49-.93-3.08-2.5-3.66a13.06,13.06,0,0,0-13.94,3.38,1.65,1.65,0,0,0,1.31,1.32Zm166.82,21.35-.47-.09a1.59,1.59,0,0,0,.69-1.59c-.19-1-1.34-1.45-2.33-1.68a32.19,32.19,0,0,0-17.83,1,2.78,2.78,0,0,0,2.35,2.4l-.17.24c-1.35,2.14.05,5.27,2.3,6.53s5.19,1.2,7.87,1c2-.12,4.3-.39,5.44-2S459,301.53,460.35,300.24ZM387.45,298a21.72,21.72,0,0,0,2.09.61l-.06.23c-1,2.95,1.44,6.15,4.38,7.17s6.15.47,9.2-.1a18.16,18.16,0,0,1,2-8.55l-.57-.27c.59-1.61-1.5-2.88-3.21-3.14a17.72,17.72,0,0,0-13.76,3.8ZM245.34,343.56v.05c.56,2.4,1.13,4.8,1.69,7.2l10,.14a1.82,1.82,0,0,0,2.28-1.84c.42-2.31.83-4.62,1.25-6.93l0-.17,1.06-.25a3.22,3.22,0,0,0,2.29-1.35c.8-1.56-1.14-3.12-2.83-3.62a18.21,18.21,0,0,0-13.67,1.39,4.36,4.36,0,0,0-2.37,2.42,1.87,1.87,0,0,0,1.5,2.35v.63ZM374.4,277.24l.1.07-.13.68a6.27,6.27,0,0,1,1.05,2,7.6,7.6,0,0,0,14.82-2.81c.85-.18,1.7-.39,2.54-.63,0-2.4-3.24-3.13-5.64-3.08l-9.23.19a5.09,5.09,0,0,0-3.35.87A1.91,1.91,0,0,0,374.4,277.24ZM189.58,381.11a3.2,3.2,0,0,1-.34.63c-.87,1.29-2.9,1.91-4,.82-.8-.78-.83-2.06-1.46-3-1-1.43-3-1.52-4.78-1.47l-54.93,1.7c-7.89.25-16.36.33-23.07-3.69l.27-.49a56.16,56.16,0,0,1,.52-13.14c3.94-29.35,17.43-57,19.31-86.58.91-14.32-1-28.68-1.84-43l.31,0,3.33-.39,0,.27c23.06,3,46.42,2.1,69.67,1.4q132.11-4,264.3-1.18l.52.13c-5.48,21.45-.62,44.21,5.81,65.43,6.54,21.57,14.77,43,15.58,65.55a11.46,11.46,0,0,1-.53,4.74c-1.74,4.27-7.32,5.08-11.92,5.24l-56.8,2.05c-2.48.09-6,1.79-4.7,3.93l-4.41.56-.05-.35c.05-.43.1-.85.14-1.28q.6-5.19,1.18-10.38c.29-2.63.52-5.53-1-7.68-2-2.78-6-3-9.41-3L194.05,359.4a4.14,4.14,0,0,0-2.51.55c-1,.76-1.12,2.2-1.14,3.46q-.1,6.9-.2,13.82A9.51,9.51,0,0,1,189.58,381.11Zm147.36-62.72c.69.25,1.38.45,2.09.63l-.06.23c-1,2.94,1.44,6.15,4.38,7.17s6.15.46,9.2-.11a18.18,18.18,0,0,1,2-8.55l-.57-.26c.59-1.62-1.5-2.89-3.21-3.15a17.72,17.72,0,0,0-13.76,3.8Zm101.73-37.57,7.52.52a1.52,1.52,0,0,0,2-1.67c.16-1.82.31-3.63.46-5.45v0l.17,0a2.72,2.72,0,0,0,2.29-1.07c.7-1.37-1.13-2.65-2.63-3a24.51,24.51,0,0,0-11-.08,5.34,5.34,0,0,0-2.75,1.27,2.14,2.14,0,0,0-.28,2.78l.44,0,.18,0-.08.77a16,16,0,0,1,1.32,5.82Zm7.29,35.5a1.85,1.85,0,0,0,.39-2.57l-.86.36a35.25,35.25,0,0,0-10-2.31c-3.43-.11-7.07.92-9.35,3.5.66.22,1.32.41,2,.59l-.34,1.31,3.26,7.05a3.25,3.25,0,0,0,3.86,2.41l6.18-.12c.94,0,2-.13,2.52-.93a2.75,2.75,0,0,0,.19-1.82l-.69-5.89-.06-.69.19,0A4.92,4.92,0,0,0,446,316.32Zm-27.13,2c1.1-1.68-1.25-3.51-3.2-4a31.66,31.66,0,0,0-10.35-.91c-2.06.16-4.64,1.13-4.58,3.2.05,1.49,1.48,2.41,2.91,3l.61.24.22.18c-1.62,1.86-.54,5.08,1.67,6.16s4.95.37,6.91-1.12a20,20,0,0,0,4.59-5.7l-.08-.23A2.2,2.2,0,0,0,418.83,318.28Zm-3.73-41.59c.41-.12.81-.26,1.21-.41-1.69-2.49-5.11-3.31-8.07-2.76s-5.57,2.2-8.11,3.82l.11.78,0,.11a19.59,19.59,0,0,1,1.49,6.54,98.57,98.57,0,0,0,13.2-.13,21.93,21.93,0,0,1,.49-7.13ZM410.53,340a1.86,1.86,0,0,0,.39-2.58l-.86.36a35.61,35.61,0,0,0-10-2.31c-3.44-.11-7.08.92-9.36,3.5.66.22,1.32.41,2,.59l-.34,1.31,3.26,7.05a3.26,3.26,0,0,0,3.86,2.41l6.18-.12c.94,0,2-.13,2.53-.93a2.88,2.88,0,0,0,.19-1.82q-.36-3-.7-5.89l-.06-.69.19,0A4.92,4.92,0,0,0,410.53,340Zm-29,.84a2.21,2.21,0,0,0-.42-1.52,7.21,7.21,0,0,0-8.94-2.44,20.63,20.63,0,0,0-10.39,2.36,4.92,4.92,0,0,0,3.59,2.65l-.3,1c.66,1.87,1.32,3.73,2,5.6a1.46,1.46,0,0,0,2,1.24l8.56-1.33a3.76,3.76,0,0,0,1.89-.65c1.52-1.22.49-3.72.64-5.66A1.73,1.73,0,0,0,381.53,340.81Zm-17.77-63a2,2,0,0,0,.7-2.83,2.91,2.91,0,0,0-1.72-.75,45.81,45.81,0,0,0-14.12-.34,4.1,4.1,0,0,0-3,1.39c-.58.88,0,2.39,1,2.39l.27.61a1.07,1.07,0,0,1,1.07.3c.64.65.88,2.08,1.14,3.11.57,2.3,2.91,3.81,5.25,4.16a18,18,0,0,0,7-.8l2-7A2.64,2.64,0,0,0,363.76,277.79Zm-15.45,22c1.68-.39,3.35-1.43,2.75-2.89a2.89,2.89,0,0,0-2.15-1.4,19.06,19.06,0,0,0-15.16,2.82,3.62,3.62,0,0,0,2.71,1.24l.72.81c-1.1,1.69-.17,4.18,1.6,5.16a6.21,6.21,0,0,0,5.81-.3,7.06,7.06,0,0,0,3.8-5.09Zm.77,49.08,1.77-8.68L350,340c.21-1.28-.49-2.77-1.78-2.62V337a72.73,72.73,0,0,0-13.6.38c-1.09.13-2.37.43-2.79,1.44s.12,1.74,1,2.3l-.67.82,4.81,7.84a3.54,3.54,0,0,0,1.27,1.41,3.5,3.5,0,0,0,1.9.19l6.82-.55a2.5,2.5,0,0,0,1.47-.44A2.54,2.54,0,0,0,349.08,348.9Zm-12.08-72c.1-1.29-1.41-2-2.68-2.32a23.5,23.5,0,0,0-14.8,1.65,1.53,1.53,0,0,0,1.51,1.37l.62,1-.1.36c-.3,4.51,5,8.37,9.22,6.68,2.85-1.14,4.59-4.17,5-7.22A2,2,0,0,0,337,276.85ZM324.16,298.5c1.1-1.68-1.25-3.5-3.2-4a31.65,31.65,0,0,0-10.35-.9c-2.06.16-4.64,1.13-4.58,3.19.05,1.49,1.48,2.42,2.9,3l.61.24.22.19c-1.61,1.85-.53,5.08,1.68,6.15s4.95.37,6.91-1.11a20,20,0,0,0,4.59-5.71l-.07-.22A2.23,2.23,0,0,0,324.16,298.5Zm-3.28,43.22a3.26,3.26,0,0,0,0-4.15l-.67-.14a30.28,30.28,0,0,0-19.51,2.05A7.63,7.63,0,0,0,304.3,343l-.16.31c-1.39,1.86-.52,4.73,1.34,6.13s4.36,1.6,6.67,1.39a62.65,62.65,0,0,1,6.93-.73c.58,0,1.26,0,1.62-.44a1.77,1.77,0,0,0,.25-1.14C320.93,346.28,320.9,344,320.88,341.72Zm-31.21.92a3.56,3.56,0,0,0,1-3.26c-.44-1.58-2.7-2.46-3.85-1.3l0,.14a17.54,17.54,0,0,0-15.83,3.52c.51.22,1,.43,1.55.62l-.59,2,2.58,7.38a35.3,35.3,0,0,1,13.09-1.19c.66.06,1.46.08,1.82-.47a1.85,1.85,0,0,0,.2-1C289.59,347,289.64,344.79,289.67,342.64Zm-9.12-63.43c1.1-.5,1.89-1.91,1.28-3a3.19,3.19,0,0,0-2.47-1.2,34.78,34.78,0,0,0-12.33.56c-.88.2-1.8,1.52-.91,1.69l.38.88a1,1,0,0,0-.71.55c-.13.28.06.51.31.64.48,1.68.95,3.36,1.43,5a3.77,3.77,0,0,0,.78,1.65,3.65,3.65,0,0,0,2.18.87c2.43.39,5.08.58,7.2-.67s3.17-4.5,1.42-6.24l0-.49A3.83,3.83,0,0,0,280.55,279.21ZM246,320c.52-1.37-1-2.62-2.41-3.11a14.69,14.69,0,0,0-15.06,3.59,2.65,2.65,0,0,0,2.81,1l.08.31a4.05,4.05,0,0,0,1,4.95,6.44,6.44,0,0,0,5.18,1.25,9.35,9.35,0,0,0,7.49-7.08A1.89,1.89,0,0,0,246,320Zm-9.65-20.28a11.08,11.08,0,0,0,2.82-2.29c-3.16-3.89-9.25-2.93-14.09-1.6A3.3,3.3,0,0,0,223,297a2.82,2.82,0,0,0-.12,2.18l.09.36q.66,2.56,1.34,5.13a3.34,3.34,0,0,0,1.5,2.42,3.24,3.24,0,0,0,1.61.12,15.32,15.32,0,0,0,6.36-1.55c1.9-1.11,3.34-3.34,2.82-5.48ZM232,344a3.66,3.66,0,0,0,2-3.84c-.52-2.1-3.14-2.78-5.31-2.85a30.77,30.77,0,0,0-13.18,2.56,5,5,0,0,0-2.39,1.72,2.16,2.16,0,0,0-.08,2.22,1.67,1.67,0,0,0,.44.44l.05.45c1.36,1.13,1.55,3.12,2.45,4.65,2.25,3.83,7.79,3.54,12.16,2.77a3.32,3.32,0,0,0,2.09-.91,3.37,3.37,0,0,0,.55-1.45C231.22,347.88,231.61,346,232,344ZM226.2,279.2a11.08,11.08,0,0,0,2.82-2.29c-3.17-3.89-9.25-2.93-14.09-1.6a3.3,3.3,0,0,0-2.06,1.17,2.87,2.87,0,0,0-.13,2.18l.09.36q.67,2.57,1.34,5.13a3.32,3.32,0,0,0,1.51,2.42,3.2,3.2,0,0,0,1.6.12,15.32,15.32,0,0,0,6.36-1.55c1.91-1.11,3.34-3.34,2.83-5.48ZM212,299.08a2.66,2.66,0,0,0-.76-3.4,6.89,6.89,0,0,0-3.58-1.22,47.89,47.89,0,0,0-7.28-.4c-1.81,0-3.75.24-5.13,1.41s-1.75,3.64-.29,4.7l.63.66v.06l2.1,6.57,8.58.16a2,2,0,0,0,1.47-.36,2.07,2.07,0,0,0,.46-1.45c.08-1.8.15-3.59.23-5.39l.85-.12A3.88,3.88,0,0,0,212,299.08Zm-.64,21.38a10.51,10.51,0,0,0,2.82-2.28c-3.16-3.9-9.25-2.93-14.09-1.61a3.34,3.34,0,0,0-2.06,1.18,2.89,2.89,0,0,0-.12,2.17l.09.36c.45,1.71.89,3.42,1.34,5.13a2.49,2.49,0,0,0,3.11,2.55,15.33,15.33,0,0,0,6.36-1.56c1.9-1.11,3.34-3.34,2.82-5.48Zm-12.52-41c.76-.37,1.4-1,1.23-1.75a2.06,2.06,0,0,0-.64-.94c-3.29-3.07-8.41-2.87-12.84-2.08a6.53,6.53,0,0,0-3.54,1.44,2.52,2.52,0,0,0-.46,3.13l-1.42.9a12.18,12.18,0,0,0,15.34,6.34,2.71,2.71,0,0,0,1.14-.75,3.11,3.11,0,0,0,.5-1.49c.25-1.57.49-3.14.74-4.71Zm-14.05,42c.76-.38,1.4-1,1.22-1.75a1.89,1.89,0,0,0-.63-.93c-3.29-3.08-8.41-2.88-12.84-2.09a6.56,6.56,0,0,0-3.55,1.44,2.53,2.53,0,0,0-.45,3.13l-1.42.9a12.17,12.17,0,0,0,15.34,6.34,2.71,2.71,0,0,0,1.14-.75,3.08,3.08,0,0,0,.5-1.49c.25-1.57.49-3.14.74-4.71Zm-.6-24.81c.41-2.48-2.65-4-5.15-4.31a23.1,23.1,0,0,0-8.24.58,7.15,7.15,0,0,0-4.08,2.26c-1,1.25-1,3.32.27,4.25l.13.71L169,306.8l10.11.14a1.84,1.84,0,0,0,2.33-1.77,50,50,0,0,0,.83-6.21A3.21,3.21,0,0,0,184.16,296.67ZM172.5,344.2a3.14,3.14,0,0,0,1.37-3.83c-.74-1.47-2.7-1.71-4.34-1.76l-8.73-.29a12.17,12.17,0,0,0-4.74.48,4.08,4.08,0,0,0-2.78,3.55,2.24,2.24,0,0,0,.22.95l-1.06.35a25.3,25.3,0,0,0,2.78,7.67,2.11,2.11,0,0,0,2.46,1.26l12.36-.33c.27-2.46.53-4.91.8-7.36A5.26,5.26,0,0,0,172.5,344.2Zm-16.08-23.87a10.75,10.75,0,0,0,2.82-2.29c-3.16-3.89-9.25-2.93-14.09-1.6a3.28,3.28,0,0,0-2.06,1.17,2.92,2.92,0,0,0-.12,2.18l.09.36c.45,1.71.89,3.42,1.34,5.13a3.32,3.32,0,0,0,1.51,2.42,3.19,3.19,0,0,0,1.6.12,15.32,15.32,0,0,0,6.36-1.55c1.9-1.11,3.34-3.34,2.82-5.48Zm.05-21.08a2.81,2.81,0,0,0-1.25-3.25,7.75,7.75,0,0,0-3.62-1c-4.49-.43-9.65-.27-12.64,3.11a2.47,2.47,0,0,0-.77,1.83,1.2,1.2,0,0,0,.35.7h-.39L137,302.19a11.32,11.32,0,0,0,3.28,5.63l13.85-.45,1-6.88A2.36,2.36,0,0,0,156.47,299.25ZM142.81,338c.2-2.59-3.22-3.7-5.81-3.82a103.19,103.19,0,0,0-17.13.64,10,10,0,0,0-4.57,1.37,3.64,3.64,0,0,0-1.57,4.16,2.36,2.36,0,0,0,1.71,1.32c-.18,1.7-.37,3.41-.55,5.12,2.37-.24,3.65,2.86,5.87,3.73a7,7,0,0,0,3,.22l15.57-1.21c.29-2.66.57-5.32.86-8l-2.09-.13C140.19,341.06,142.65,340.08,142.81,338Z"/><path class="cls-5" d="M468.6,180.94a102.59,102.59,0,0,1,1.63,21.28l-.68.3-.14-.3a16.38,16.38,0,0,0-9-8.23,25.06,25.06,0,0,1-.61-9.9c.11-.77.25-1.53.43-2.28a2.24,2.24,0,0,1,.64-1.29,2.34,2.34,0,0,1,1.57-.35l6.17.08Z"/><path class="cls-5" d="M459.5,184.05l.3,0a25.06,25.06,0,0,0,.61,9.9,10.73,10.73,0,0,0-6.52-.35,9.55,9.55,0,0,0-2.08-1.55,46.67,46.67,0,0,0-.22-6.37l.65-.06A29.67,29.67,0,0,0,459.5,184.05Z"/><path class="cls-4" d="M122.89,232.48l-3.33.39-.31,0a154.42,154.42,0,0,1,0-23.95c.44-4.71,1.57-9.85,4.17-13.61l2.09.52q47.33,1.05,94.66,1.56,6.43.08,12.89.13,56.57.54,113.15.33,52.15-.19,104.29-1l3.7-.06,1.61-.7a14.83,14.83,0,0,1,1.64,3.74c1,3.47.93,7.15.86,10.76q-.21,10.75-.42,21.51h-.26c-.09.34-.18.68-.26,1l-.52-.13q-132.13-2.83-264.3,1.18c-23.25.7-46.61,1.56-69.67-1.4Z"/><path class="cls-3" d="M451.81,192.09c0,.69-.06,1.38-.12,2.06l.07.38a8.92,8.92,0,0,1,2.13-.89,11.93,11.93,0,0,1,2,2.44l-1.61.7-3.7.06c-3.36-4.32-8.86-6.57-14.31-7.3s-11.17-.08-16.75.27c-1.19.07-2.39.13-3.58.18l0-1.1q.12-12.78.25-25.55c7.57.17,18.94,1.5,25.25,3.77a12.94,12.94,0,0,1,5,2.79,12.45,12.45,0,0,1,2.53,4.45,45.73,45.73,0,0,1,2.69,11.37A46.67,46.67,0,0,1,451.81,192.09Z"/><path class="cls-4" d="M436.23,189.54c5.45.73,10.95,3,14.31,7.3q-52.14.82-104.29,1v-2.25a11.08,11.08,0,0,1,2.13-3c4.52-4.54,12.72-5,19.58-4.56,16,1,32,2.6,47.95,2,1.19-.05,2.39-.11,3.58-.18C425.06,189.46,430.68,188.81,436.23,189.54Z"/><path class="cls-3" d="M427.91,242.62c2,.14,4.4,1.34,3.91,3.47-.32,1.43-1.82,2-3.08,2.2a75.79,75.79,0,0,1-12.9,1.42,3.47,3.47,0,0,0,1.48-1.21c1.61-2.37-.23-6.19-3.08-6.4H414v0a85.74,85.74,0,0,1,14,0Z"/><path class="cls-6" d="M414.24,242.1c2.85.21,4.69,4,3.08,6.4a3.47,3.47,0,0,1-1.48,1.21c-1.25,0-2.5,0-3.76,0a3.68,3.68,0,0,1-1.84-1.73c-1.2-2.5,1-5.88,3.75-5.88Z"/><path class="cls-3" d="M267.45,164.94a10,10,0,0,0,2.27-3.72,46.76,46.76,0,0,0,3.1-21.92c-.31-3.14-2.73-7.22-5.52-5.73a4.84,4.84,0,0,0-1.93,2.66A39.73,39.73,0,0,0,262.61,152C262.74,156.59,264.39,161.75,267.45,164.94Zm148.66-1.6q-.14,12.78-.25,25.55l0,1.1c-16,.64-32-1-47.95-2-6.86-.42-15.06,0-19.58,4.56l-.82-.87q-57.32,1.62-114.67.27l-1.72,1c-.69-1.24-1.39-2.48-2.08-3.73a7.31,7.31,0,0,0-2.19-2.75,7.23,7.23,0,0,0-3.69-.79h-.34q-29.94-1-59.89-.44v-.37q-.33-13.46-.67-26.9L160,64.46l249.87-2a8.36,8.36,0,0,1,4.65.88c2.31,1.5,2.53,4.74,2.51,7.5Q416.54,117.1,416.11,163.34Zm-129.64-3A43.71,43.71,0,0,0,295,123.25c-.39-1.66-1.07-3.5-2.65-4.13-2.74-1.08-5.1,2.23-6.07,5a75.34,75.34,0,0,0-3.83,17.62c-.43,4.65-.41,9.47,1.27,13.83A16.3,16.3,0,0,0,286.47,160.33ZM237.11,136.4a20.45,20.45,0,0,0-5.86,9.36c-1.65,5.34-1.58,11-1.5,16.61,0,2.82.92,6.55,3.74,6.62s3.88-3.84,3.89-6.74Q237.44,149.32,237.11,136.4Zm67.38,25.11c3.65-2.94,6.66-7.35,8.82-11.53,4.22-8.17,7.75-17.94,4-26.33-1.17-2.62-3.39-5.14-6.26-5.22-3.86-.09-6.32,4-7.54,7.7a56.75,56.75,0,0,0-2.24,26.29A21.27,21.27,0,0,0,304.49,161.51Zm37.68-18.86a21.36,21.36,0,0,0-1.46-2.76c-2.07-3.28-5.15-6.2-9-6.92s-8.3,1.39-9.21,5.17a6.18,6.18,0,0,0,.57,4.29,25.43,25.43,0,0,0-6.66,13.25c-.36,2.1-.27,4.64,1.34,6a4.52,4.52,0,0,0,.28-1.18c3.16,7.92,15.36,9.15,21.37,3.09C344.7,158.23,345.22,149.57,342.17,142.65Z"/><path class="cls-6" d="M412.08,249.7c1.26,0,2.51,0,3.76,0A4.69,4.69,0,0,1,412.08,249.7Z"/><path class="cls-3" d="M414,242.06v0c-2.74,0-4.95,3.38-3.75,5.88a3.68,3.68,0,0,0,1.84,1.73,74.29,74.29,0,0,1-8-.63c-1.36-.18-3-.71-3.28-2.25-.34-2,1.86-3.13,3.58-3.46A86.81,86.81,0,0,1,414,242.06Z"/><path class="cls-7" d="M400.68,360.91c1.55,2.15,1.32,5,1,7.68q-.58,5.19-1.18,10.38-105.45,2.8-210.95,2.14a9.51,9.51,0,0,0,.62-3.88q.11-6.92.2-13.82c0-1.26.13-2.7,1.14-3.46a4.14,4.14,0,0,1,2.51-.55l197.22-1.49C394.7,357.89,398.68,358.13,400.68,360.91Z"/><path class="cls-4" d="M347.55,191.72l.82.87a11.08,11.08,0,0,0-2.13,3v2.25q-56.58.21-113.15-.33v-1.1l-2-3.49,1.72-1Q290.21,193.34,347.55,191.72Z"/><path class="cls-7" d="M249.85,238.41v-.33l80.85.27a8,8,0,0,1,3.83.64c3,1.57,2.85,5.8,2.31,9.13a3.28,3.28,0,0,1-3.87,3.5,773.94,773.94,0,0,1-85.47-2.32,1.74,1.74,0,0,1-1.95-2,12.43,12.43,0,0,1,.4-6A4.59,4.59,0,0,1,249.85,238.41Z"/><path class="cls-4" d="M231.16,193l2,3.49v1.1q-6.45,0-12.89-.13l0-2.16-31.17-.51a234.61,234.61,0,0,1,33.77-8.26l0-.81h.34a7.23,7.23,0,0,1,3.69.79,7.31,7.31,0,0,1,2.19,2.75C229.77,190.47,230.47,191.71,231.16,193Z"/><path class="cls-4" d="M132.26,187.25a21.94,21.94,0,0,1,11-2.78c4.43-.05,8.9.66,13.31.59v.31l6.45-.14q29.94-.6,59.89.44l0,.81a234.61,234.61,0,0,0-33.77,8.26l31.17.51,0,2.16q-47.34-.51-94.66-1.56l-2.09-.52a12.44,12.44,0,0,1,4.81-4.23h0A11.64,11.64,0,0,1,132.26,187.25Z"/><path class="cls-3" d="M170.64,282.23c1.1,1.3.42,3.56-1,4.56s-3.47,1.1-5.31,1.08a11.26,11.26,0,0,1-4.62-.71,4,4,0,0,1-2.54-3.64l.22-1.33.67.11a31.35,31.35,0,0,0,11.26-.36,5.7,5.7,0,0,0,1.07-.33Z"/><path class="cls-6" d="M166.56,239.71a12.44,12.44,0,0,1,.34,5.21,5,5,0,0,1-3.41,4c-3.16.73-5.82-3.54-4.35-6.43C160.43,239.89,163.77,239,166.56,239.71Z"/><path class="cls-3" d="M127.66,167.59c0-.51,0-1,0-1.52l1.49,0a31.73,31.73,0,0,1,15.3-2.11c1.92.21,3.94.58,5.7-.21s2.7-2.34,4-3.64c1-1,5.64-2.11,8.24-2.11q.33,13.46.67,26.9v.37l-6.45.14v-.31c-4.41.07-8.88-.64-13.31-.59a21.94,21.94,0,0,0-11,2.78q0-5.13.08-10.24c0-2.1-.52-4.86-2.6-5.09-1.31-.15-2.88.85-3.83-.08s.31-2.73.31-4.2Z"/><path class="cls-3" d="M155.15,300.49a7.29,7.29,0,0,1-3,.42l-13.66-.26a1.2,1.2,0,0,1-.35-.7,2.47,2.47,0,0,1,.77-1.83c3-3.38,8.15-3.54,12.64-3.11a7.75,7.75,0,0,1,3.62,1,2.81,2.81,0,0,1,1.25,3.25A2.36,2.36,0,0,1,155.15,300.49Z"/><path class="cls-3" d="M138.54,300.65l13.66.26a7.29,7.29,0,0,0,3-.42l-1,6.88-13.85.45a11.32,11.32,0,0,1-3.28-5.63l1.15-1.55Z"/><path class="cls-3" d="M140.17,278.88,140,279a2.17,2.17,0,0,0-.55.54,8.89,8.89,0,0,1-6.33,1.88,25.06,25.06,0,0,1-7.46-2l-.59-.46A11.29,11.29,0,0,1,140.17,278.88Z"/><path class="cls-3" d="M139.48,279.58c-1,1.39-.85,3.82-2.08,5.23-1,1.16-2.71,1.34-4.25,1.45l-5.71.38a4.32,4.32,0,0,1-1.48-.08c-2.27-.69-1.74-4-.74-6.18l.47-.95a25.06,25.06,0,0,0,7.46,2A8.89,8.89,0,0,0,139.48,279.58Z"/><path class="cls-3" d="M132.78,318.94l-.12.14a1.89,1.89,0,0,0-.55.54,8.91,8.91,0,0,1-6.36,1.9,25.22,25.22,0,0,1-7.46-2l-.59-.46A11.29,11.29,0,0,1,132.78,318.94Z"/><path class="cls-5" d="M123.51,156.88l.22,2.62a34.5,34.5,0,0,1-3.94.11,1.15,1.15,0,0,1-1.36-1.33,11.88,11.88,0,0,1,.47-5.41c.7-1.68,2.49-3.06,4.27-2.66A19.68,19.68,0,0,1,123.51,156.88Z"/><path class="cls-5" d="M49,170.21c-.25-.09-.51-.18-.76-.29a2,2,0,0,1-1.32-1.18,2.3,2.3,0,0,1,.74-1.85,16.1,16.1,0,0,0,1.22-1.79l42.84-1.55c6.11-.22,13.43.18,16.55,5.44a12.14,12.14,0,0,0,1.8,2.86c1.18,1.11,2.74,1.23,4.4,1.12a25.12,25.12,0,0,1-9.55,2.55c.49-2.42.27-5.23-1.52-6.94-2.3-2.2-6-1.66-9.09-1a189.61,189.61,0,0,1-37.88,3.57A23.75,23.75,0,0,1,49,170.21Z"/><path class="cls-3" d="M110.07,199.35q-1,5-1.9,9.91l-1.59-.29c-2.27-7.64-1.7-15.79-1.1-23.73a10.54,10.54,0,0,1,1.23-5,4.51,4.51,0,0,1,.48-.6l1.41.09A14.48,14.48,0,0,1,113.69,191a13.89,13.89,0,0,1-2.8,8.54Z"/><path class="cls-5" d="M106.58,209l1.59.29q-.9,5-1.71,10l-1.77-.29c-3.23,2.06-7.79-.26-9.48-3.7S93.9,207.77,94.3,204l1.8-16.8c.29-2.74.67-5.7,2.57-7.7s5.87-2.16,7,.36l1,.45a10.54,10.54,0,0,0-1.23,5C104.88,193.18,104.31,201.33,106.58,209Z"/><path class="cls-5" d="M48.87,165.1a16.1,16.1,0,0,1-1.22,1.79,2.3,2.3,0,0,0-.74,1.85,2,2,0,0,0,1.32,1.18c.25.11.51.2.76.29l-5.05,1.16a1.16,1.16,0,0,1-1.7-1.29,46.87,46.87,0,0,1,2.76-18,3.23,3.23,0,0,1,1.18-1.79c1.22-.73,2.76.35,3.54,1.55C52.29,155.75,51.35,161,48.87,165.1Z"/><path class="cls-8" d="M128.27,191.1a12.44,12.44,0,0,0-4.81,4.23c-2.6,3.76-3.73,8.9-4.17,13.61a154.42,154.42,0,0,0,0,23.95c.89,14.34,2.75,28.7,1.84,43-1.88,29.56-15.37,57.23-19.31,86.58a56.16,56.16,0,0,0-.52,13.14"/><path class="cls-8" d="M128.88,190.83q-.3.12-.6.27"/><path class="cls-8" d="M99.9,375.42c.36.25.72.48,1.09.7,6.71,4,15.18,3.94,23.07,3.69l54.93-1.7c1.74-.05,3.79,0,4.78,1.47.63.92.66,2.2,1.46,3,1.11,1.09,3.14.47,4-.82a3.2,3.2,0,0,0,.34-.63,9.51,9.51,0,0,0,.62-3.88q.11-6.92.2-13.82c0-1.26.13-2.7,1.14-3.46a4.14,4.14,0,0,1,2.51-.55l197.22-1.49c3.43,0,7.41.22,9.41,3,1.55,2.15,1.32,5,1,7.68q-.58,5.19-1.18,10.38c0,.43-.09.85-.14,1.28"/><path class="cls-8" d="M399.54,380.72l.9-.11h0l4.41-.56c-1.26-2.14,2.22-3.84,4.7-3.93l56.8-2.05c4.6-.16,10.18-1,11.92-5.24a11.46,11.46,0,0,0,.53-4.74c-.81-22.52-9-44-15.58-65.55-6.43-21.22-11.29-44-5.81-65.43.08-.34.17-.68.26-1"/><path class="cls-8" d="M457.89,234.26c0-.72,0-1.45,0-2.17q.21-10.77.42-21.51c.07-3.61.14-7.29-.86-10.76a14.83,14.83,0,0,0-1.64-3.74,11.93,11.93,0,0,0-2-2.44,9.55,9.55,0,0,0-2.08-1.55,9,9,0,0,0-.88-.43"/><path class="cls-8" d="M122.92,232.75c23.06,3,46.42,2.1,69.67,1.4q132.11-4,264.3-1.18"/><path class="cls-8" d="M119.56,232.87l3.33-.39,3.32-.38"/><path class="cls-8" d="M110.69,196.39c-.21,1-.42,2-.62,3q-1,5-1.9,9.91t-1.71,10c-1.36,8.28-2.56,16.59-3.76,24.89q-9.2,63.57-18.4,127.15c-.5,3.5-.94,7.33.66,10.42.12.23.26.46.4.68,2.4,3.69,7.28,4.71,11.64,5.33,53.21,7.48,107.26,2,161,1.49,68.6-.67,137.4,6.75,205.68.11,9.79-1,19.91-2.33,28.21-7.61a17.65,17.65,0,0,0,6-5.83,18.6,18.6,0,0,0,2.07-9c0-.9,0-1.81,0-2.7-1.06-47.95-28.08-92.64-28.07-140.59,0-7.12.54-14.56-2.37-21l-.14-.3a16.38,16.38,0,0,0-9-8.23,10.73,10.73,0,0,0-6.52-.35,8.92,8.92,0,0,0-2.13.89"/><path class="cls-8" d="M188.89,381.11h.69q105.48.67,210.95-2.14l2.35-.06"/><path class="cls-8" d="M125.55,195.85q47.33,1.05,94.66,1.56,6.43.08,12.89.13,56.57.54,113.15.33,52.15-.19,104.29-1l3.7-.06"/><path class="cls-8" d="M83.37,382.2q.51,13.17,1,26.34c.09,2.29.2,4.69,1.37,6.67,2.32,4,7.65,4.62,12.23,4.86,72,3.78,144.1,7.56,216.09,4,54.92-2.71,109.79-9.69,164.7-6.94,5.73.29,12.29.37,16.19-3.84,2.27-2.45,3.11-5.87,3.77-9.14a160.92,160.92,0,0,0,3-37.29"/><path class="cls-8" d="M161.6,184.55a26.28,26.28,0,0,1-5.08.51c-4.41.07-8.88-.64-13.31-.59a21.94,21.94,0,0,0-11,2.78,11.64,11.64,0,0,0-4,3.85h0a11.56,11.56,0,0,0-.64,1.21"/><path class="cls-8" d="M107.47,179.39l-.28.28a4.51,4.51,0,0,0-.48.6,10.54,10.54,0,0,0-1.23,5c-.6,7.94-1.17,16.09,1.1,23.73"/><path class="cls-8" d="M108.6,179.76A14.48,14.48,0,0,1,113.69,191a13.89,13.89,0,0,1-2.8,8.54"/><path class="cls-8" d="M105.67,179.82c-1.13-2.52-5.1-2.36-7-.36s-2.28,5-2.57,7.7L94.3,204c-.4,3.81-.77,7.85.91,11.29s6.25,5.76,9.48,3.7"/><path class="cls-8" d="M116.44,193.59c0-.85,0-1.69,0-2.54a71.65,71.65,0,0,1,1.67-15.24,26.56,26.56,0,0,1,.83-3.06,11,11,0,0,1,1.54-3,6.23,6.23,0,0,1,5.65-2.73,1.83,1.83,0,0,1,.11.66c0,1.47-1.36,3.17-.31,4.2s2.52-.07,3.83.08c2.08.23,2.61,3,2.6,5.09q0,5.12-.08,10.24c0,.31,0,.62,0,.93"/><path class="cls-8" d="M139.58,185.93q8.47-.35,16.94-.56l6.45-.14q29.94-.6,59.89.44h.34a7.23,7.23,0,0,1,3.69.79,7.31,7.31,0,0,1,2.19,2.75c.69,1.25,1.39,2.49,2.08,3.73l2,3.49"/><path class="cls-8" d="M346.24,195.62a11.08,11.08,0,0,1,2.13-3c4.52-4.54,12.72-5,19.58-4.56,16,1,32,2.6,47.95,2,1.19-.05,2.39-.11,3.58-.18,5.58-.35,11.2-1,16.75-.27s10.95,3,14.31,7.3l.19.24"/><path class="cls-8" d="M115.13,172.64c-.22.12-.44.23-.67.33a25.12,25.12,0,0,1-9.55,2.55c.49-2.42.27-5.23-1.52-6.94-2.3-2.2-6-1.66-9.09-1a189.61,189.61,0,0,1-37.88,3.57,23.75,23.75,0,0,1-7.43-.9c-.25-.09-.51-.18-.76-.29a2,2,0,0,1-1.32-1.18,2.3,2.3,0,0,1,.74-1.85,16.1,16.1,0,0,0,1.22-1.79c2.48-4.11,3.42-9.35.85-13.29-.78-1.2-2.32-2.28-3.54-1.55A3.23,3.23,0,0,0,45,152.05a46.87,46.87,0,0,0-2.76,18,1.16,1.16,0,0,0,1.7,1.29L49,170.21l1.16-.27"/><path class="cls-8" d="M127.71,168.92c0-.44,0-.89,0-1.33s0-1,0-1.52q-.12-3.56-.13-7.11a33.86,33.86,0,0,1-3.75.54,34.5,34.5,0,0,1-3.94.11,1.15,1.15,0,0,1-1.36-1.33,11.88,11.88,0,0,1,.47-5.41c.7-1.68,2.49-3.06,4.27-2.66a19.68,19.68,0,0,1,.34,6.67"/><path class="cls-8" d="M129.1,166a31.73,31.73,0,0,1,15.3-2.11c1.92.21,3.94.58,5.7-.21s2.7-2.34,4-3.64c1-1,5.64-2.11,8.24-2.11a4,4,0,0,1,1.41.19"/><path class="cls-8" d="M413.91,163.31c.69,0,1.42,0,2.2,0,7.57.17,18.94,1.5,25.25,3.77a12.94,12.94,0,0,1,5,2.79,12.45,12.45,0,0,1,2.53,4.45,45.73,45.73,0,0,1,2.69,11.37,46.67,46.67,0,0,1,.22,6.37c0,.69-.06,1.38-.12,2.06"/><path class="cls-8" d="M468.89,180.25h-.28l-6.17-.08a2.34,2.34,0,0,0-1.57.35,2.24,2.24,0,0,0-.64,1.29c-.18.75-.32,1.51-.43,2.28a25.06,25.06,0,0,0,.61,9.9s0,.11,0,.16"/><path class="cls-8" d="M468.6,180.94a102.59,102.59,0,0,1,1.63,21.28"/><path class="cls-8" d="M459.5,184.05a29.67,29.67,0,0,1-7.26,1.61"/><path class="cls-8" d="M232.88,192q57.33,1.35,114.67-.27"/><path class="cls-8" d="M163,184.86q-.33-13.46-.67-26.9L160,64.46l249.87-2a8.36,8.36,0,0,1,4.65.88c2.31,1.5,2.53,4.74,2.51,7.5q-.47,46.24-.9,92.48-.14,12.78-.25,25.55"/><path class="cls-8" d="M166.56,239.71l-.06-.24"/><path class="cls-8" d="M166.56,239.71c-2.79-.76-6.13.18-7.42,2.73-1.47,2.89,1.19,7.16,4.35,6.43a5,5,0,0,0,3.41-4A12.44,12.44,0,0,0,166.56,239.71Z"/><path class="cls-8" d="M167.61,240.07a6.51,6.51,0,0,0-1.05-.36"/><path class="cls-8" d="M429.67,242.19c-.57-.06-1.14-.11-1.71-.14a85.74,85.74,0,0,0-14,0,86.81,86.81,0,0,0-9.62,1.3c-1.72.33-3.92,1.48-3.58,3.46.27,1.54,1.92,2.07,3.28,2.25a74.29,74.29,0,0,0,8,.63c1.26,0,2.51,0,3.76,0a75.79,75.79,0,0,0,12.9-1.42c1.26-.24,2.76-.77,3.08-2.2.49-2.13-1.93-3.33-3.91-3.47l-.35,0"/><path class="cls-8" d="M414.24,242.1c2.85.21,4.69,4,3.08,6.4a3.47,3.47,0,0,1-1.48,1.21,4.69,4.69,0,0,1-3.76,0,3.68,3.68,0,0,1-1.84-1.73c-1.2-2.5,1-5.88,3.75-5.88h.25"/><path class="cls-8" d="M247.56,238.07h2.29l80.85.27a8,8,0,0,1,3.83.64c3,1.57,2.85,5.8,2.31,9.13a3.28,3.28,0,0,1-3.87,3.5,773.94,773.94,0,0,1-85.47-2.32,1.74,1.74,0,0,1-1.95-2,12.43,12.43,0,0,1,.4-6,4.59,4.59,0,0,1,3.9-2.88,2.89,2.89,0,0,1,.92.14"/><path class="cls-8" d="M133.67,286.33a3,3,0,0,0,2.15,4.62c.84,0,1.77-.28,2.47.17,2,1.3-1.52,5.36.57,6.5"/><path class="cls-8" d="M47.56,165.15l1.31-.05,42.84-1.55c6.11-.22,13.43.18,16.55,5.44a12.14,12.14,0,0,0,1.8,2.86c1.18,1.11,2.74,1.23,4.4,1.12a39.88,39.88,0,0,1,4.19-.25l.27,0c.4.07.79.25.85.63s-.92.5-.71.08"/><path class="cls-8" d="M182.94,342.25a.71.71,0,0,0-.34.5,1.2,1.2,0,0,0,.38,1.08,2.22,2.22,0,0,0,1.27.45l.47,0,9.9.65a12.06,12.06,0,0,0,4.07-.2c.19-.06.38-.12.57-.2a3.55,3.55,0,0,0,2.37-3.63c-.4-2.21-3.21-2.89-5.46-2.93-5-.1-10.48.85-13.57,4.74l0,0"/><path class="cls-8" d="M154.92,344.13c.55.11,1.1.21,1.66.3a58.08,58.08,0,0,0,11.63.76,12.85,12.85,0,0,0,2.63-.3,5.26,5.26,0,0,0,1.66-.69,3.14,3.14,0,0,0,1.37-3.83c-.74-1.47-2.7-1.71-4.34-1.76l-8.73-.29a12.17,12.17,0,0,0-4.74.48,4.08,4.08,0,0,0-2.78,3.55,2.24,2.24,0,0,0,.22.95,2.39,2.39,0,0,0,3,1.41"/><path class="cls-8" d="M116.91,340.19l.79.22a46.24,46.24,0,0,0,20.43,1c2.06-.36,4.52-1.34,4.68-3.42.2-2.59-3.22-3.7-5.81-3.82a103.19,103.19,0,0,0-17.13.64,10,10,0,0,0-4.57,1.37,3.64,3.64,0,0,0-1.57,4.16,2.36,2.36,0,0,0,1.71,1.32,1.89,1.89,0,0,0,2.13-.79"/><path class="cls-8" d="M214.86,343.8q5.92.57,11.87.91a10.65,10.65,0,0,0,5-.51L232,344a3.66,3.66,0,0,0,2-3.84c-.52-2.1-3.14-2.78-5.31-2.85a30.77,30.77,0,0,0-13.18,2.56,5,5,0,0,0-2.39,1.72,2.16,2.16,0,0,0-.08,2.22,1.67,1.67,0,0,0,.44.44"/><path class="cls-8" d="M244.9,343.55h.44l1.2,0a62.54,62.54,0,0,0,14-1.57l1.06-.25a3.22,3.22,0,0,0,2.29-1.35c.8-1.56-1.14-3.12-2.83-3.62a18.21,18.21,0,0,0-13.67,1.39,4.36,4.36,0,0,0-2.37,2.42,1.87,1.87,0,0,0,1.5,2.35l.26,0"/><path class="cls-8" d="M288.07,338.64c-.44-.16-.88-.3-1.33-.42a17.54,17.54,0,0,0-15.83,3.52c.51.22,1,.43,1.55.62a33.52,33.52,0,0,0,11.42,2.07,9.22,9.22,0,0,0,4.76-.95,4.17,4.17,0,0,0,1-.84,3.56,3.56,0,0,0,1-3.26c-.44-1.58-2.7-2.46-3.85-1.3"/><path class="cls-8" d="M320.25,337.43a30.28,30.28,0,0,0-19.51,2.05A7.63,7.63,0,0,0,304.3,343a10.63,10.63,0,0,0,2.49.91,25.53,25.53,0,0,0,7.76.17c1.93-.16,4-.35,5.5-1.52a3.48,3.48,0,0,0,.83-.88,3.26,3.26,0,0,0,0-4.15"/><path class="cls-8" d="M348.23,337a72.73,72.73,0,0,0-13.6.38c-1.09.13-2.37.43-2.79,1.44s.12,1.74,1,2.3a6.82,6.82,0,0,0,3.08.92l8.48.41c1.76.08,3.75.09,5-1.15A2.28,2.28,0,0,0,350,340c.21-1.28-.49-2.77-1.78-2.62"/><path class="cls-8" d="M373.55,336.94q-.69-.07-1.38-.09a20.63,20.63,0,0,0-10.39,2.36,4.92,4.92,0,0,0,3.59,2.65,16.85,16.85,0,0,0,4.06.39l9.26-.06a6.59,6.59,0,0,0,1.45-.17,1.73,1.73,0,0,0,1.39-1.21,2.21,2.21,0,0,0-.42-1.52,7.21,7.21,0,0,0-8.94-2.44,6.47,6.47,0,0,0-.91.55"/><path class="cls-8" d="M410.06,337.75a35.61,35.61,0,0,0-10-2.31c-3.44-.11-7.08.92-9.36,3.5.66.22,1.32.41,2,.59a42,42,0,0,0,14.92,1.32l.19,0a4.92,4.92,0,0,0,2.74-.86,1.86,1.86,0,0,0,.39-2.58"/><path class="cls-8" d="M434.87,337.55l-.58-.23a16.54,16.54,0,0,0-15.53,2,11.26,11.26,0,0,0,2.42,1.54c3.8,1.81,8.51,1.66,12.84,1.39a8,8,0,0,0,1.69-.23,2.77,2.77,0,0,0,1.55-.93c1.33-1.7-.5-3.86-2.41-5.13a6.89,6.89,0,0,0-.62-.38"/><path class="cls-8" d="M467.56,333.6a130.3,130.3,0,0,0-14.92.23c-2.65.19-5.72.74-6.94,3.1a4,4,0,0,0,2.85,1.69,13.84,13.84,0,0,0,2.48.21l16.5.17c1.2,0,2.64-.12,3.31-1.06a2.54,2.54,0,0,0,.16-.28,2.05,2.05,0,0,0-.07-1.76,6.64,6.64,0,0,0-1.52-1.95"/><path class="cls-8" d="M448.36,339.49c-1.3,1.71-.19,4.37,1.67,5.45s4.13,1,6.28.95l15-.55a43.64,43.64,0,0,1-.43-7.4q0-1,.09-2c0-.11,0-.23,0-.34"/><path class="cls-8" d="M171,343.56c0,.44-.09.89-.14,1.33-.27,2.45-.53,4.9-.8,7.36l-12.36.33a2.11,2.11,0,0,1-2.46-1.26,25.3,25.3,0,0,1-2.78-7.67"/><path class="cls-8" d="M184,345.92c-1.66,1.85-.56,5,1.53,6.37s4.73,1.36,7.21,1.34l4.46,0a1.62,1.62,0,0,0,2.09-2c-.18-2.24-.35-4.47-.53-6.7"/><path class="cls-8" d="M213.58,344.74c1.36,1.13,1.55,3.12,2.45,4.65,2.25,3.83,7.79,3.54,12.16,2.77a3.32,3.32,0,0,0,2.09-.91,3.37,3.37,0,0,0,.55-1.45c.39-1.92.78-3.85,1.18-5.76.12-.6.25-1.19.37-1.79"/><path class="cls-8" d="M245.34,343.61c.56,2.4,1.13,4.8,1.69,7.2l10,.14a1.82,1.82,0,0,0,2.28-1.84c.42-2.31.83-4.62,1.25-6.93"/><path class="cls-8" d="M271.87,344.34l2.58,7.38a35.3,35.3,0,0,1,13.09-1.19c.66.06,1.46.08,1.82-.47a1.85,1.85,0,0,0,.2-1c0-2.15.08-4.31.11-6.46,0-.36,0-.71,0-1.07"/><path class="cls-8" d="M304.14,343.35c-1.39,1.86-.52,4.73,1.34,6.13s4.36,1.6,6.67,1.39a62.65,62.65,0,0,1,6.93-.73c.58,0,1.26,0,1.62-.44a1.77,1.77,0,0,0,.25-1.14c0-2.28-.05-4.57-.07-6.84,0-.5,0-1,0-1.49"/><path class="cls-8" d="M332.17,341.89l4.81,7.84a3.54,3.54,0,0,0,1.27,1.41,3.5,3.5,0,0,0,1.9.19l6.82-.55a2.5,2.5,0,0,0,1.47-.44,2.54,2.54,0,0,0,.64-1.44l1.77-8.68"/><path class="cls-8" d="M365.07,342.82c.66,1.87,1.32,3.73,2,5.6a1.46,1.46,0,0,0,2,1.24l8.56-1.33a3.76,3.76,0,0,0,1.89-.65c1.52-1.22.49-3.72.64-5.66a2.43,2.43,0,0,1,.76-1.78"/><path class="cls-8" d="M392.34,340.84l3.26,7.05a3.26,3.26,0,0,0,3.86,2.41l6.18-.12c.94,0,2-.13,2.53-.93a2.88,2.88,0,0,0,.19-1.82q-.36-3-.7-5.89"/><path class="cls-8" d="M445.49,314.11a35.25,35.25,0,0,0-10-2.31c-3.43-.11-7.07.92-9.35,3.5.66.22,1.32.41,2,.59A42,42,0,0,0,443,317.21l.19,0a4.92,4.92,0,0,0,2.74-.87,1.85,1.85,0,0,0,.39-2.57"/><path class="cls-8" d="M427.77,317.2l3.26,7.05a3.25,3.25,0,0,0,3.86,2.41l6.18-.12c.94,0,2-.13,2.52-.93a2.75,2.75,0,0,0,.19-1.82l-.69-5.89"/><path class="cls-8" d="M420.22,342.22q3.24,4.2,6.47,8.39a24,24,0,0,1,9.73-1.81,15.33,15.33,0,0,1,0-9.85"/><path class="cls-8" d="M115.67,339.57c-.08.7-.15,1.4-.23,2.1-.18,1.7-.37,3.41-.55,5.12,2.37-.24,3.65,2.86,5.87,3.73a7,7,0,0,0,3,.22l15.57-1.21c.29-2.66.57-5.32.86-8"/><path class="cls-8" d="M156.35,282l1,.19.67.11a31.35,31.35,0,0,0,11.26-.36,5.7,5.7,0,0,0,1.07-.33c1.82-.71,3.5-2.22,2.68-3.84a3.4,3.4,0,0,0-1.65-1.38,15.47,15.47,0,0,0-9.82-1.23,6.33,6.33,0,0,0-4,2.22c-.89,1.29-.77,3.35.58,4.14"/><path class="cls-8" d="M157.15,283.52a4,4,0,0,0,2.54,3.64,11.26,11.26,0,0,0,4.62.71c1.84,0,3.8,0,5.31-1.08s2.12-3.26,1-4.56l-.17-.18"/><path class="cls-8" d="M183.65,279.9a27.06,27.06,0,0,0,14.37-.13,5.17,5.17,0,0,0,.79-.31c.76-.37,1.4-1,1.23-1.75a2.06,2.06,0,0,0-.64-.94c-3.29-3.07-8.41-2.87-12.84-2.08a6.53,6.53,0,0,0-3.54,1.44,2.52,2.52,0,0,0-.46,3.13,1.64,1.64,0,0,0,.29.3"/><path class="cls-8" d="M181.14,280.16a12.18,12.18,0,0,0,15.34,6.34,2.71,2.71,0,0,0,1.14-.75,3.11,3.11,0,0,0,.5-1.49c.25-1.57.49-3.14.74-4.71"/><path class="cls-8" d="M169.6,321.93a27.06,27.06,0,0,0,14.37-.14,4.31,4.31,0,0,0,.79-.31c.76-.38,1.4-1,1.22-1.75a1.89,1.89,0,0,0-.63-.93c-3.29-3.08-8.41-2.88-12.84-2.09a6.56,6.56,0,0,0-3.55,1.44,2.53,2.53,0,0,0-.45,3.13,1.7,1.7,0,0,0,.29.31"/><path class="cls-8" d="M167.09,322.18a12.17,12.17,0,0,0,15.34,6.34,2.71,2.71,0,0,0,1.14-.75,3.08,3.08,0,0,0,.5-1.49c.25-1.57.49-3.14.74-4.71"/><path class="cls-8" d="M138.15,300.64h.39l13.66.26a7.29,7.29,0,0,0,3-.42,2.36,2.36,0,0,0,1.32-1.24,2.81,2.81,0,0,0-1.25-3.25,7.75,7.75,0,0,0-3.62-1c-4.49-.43-9.65-.27-12.64,3.11a2.47,2.47,0,0,0-.77,1.83,1.2,1.2,0,0,0,.35.7.92.92,0,0,0,1.1.23"/><path class="cls-8" d="M137,302.19a11.32,11.32,0,0,0,3.28,5.63l13.85-.45,1-6.88c0-.1,0-.2,0-.3"/><path class="cls-8" d="M167.6,299.4a30.51,30.51,0,0,0,12,.44,8.45,8.45,0,0,0,2.71-.88,3.21,3.21,0,0,0,1.85-2.29c.41-2.48-2.65-4-5.15-4.31a23.1,23.1,0,0,0-8.24.58,7.15,7.15,0,0,0-4.08,2.26c-1,1.25-1,3.32.27,4.25"/><path class="cls-8" d="M167.09,300.16,169,306.8l10.11.14a1.84,1.84,0,0,0,2.33-1.77,50,50,0,0,0,.83-6.21.13.13,0,0,0,0-.06"/><path class="cls-8" d="M166.31,288.91a6.84,6.84,0,0,0,.25,4.1"/><path class="cls-8" d="M191.64,288.86c.62,2,1.25,4,1.87,6"/><path class="cls-8" d="M195.56,300.83a64.09,64.09,0,0,0,12.84-.41l.85-.12a3.88,3.88,0,0,0,2.72-1.22,2.66,2.66,0,0,0-.76-3.4,6.89,6.89,0,0,0-3.58-1.22,47.89,47.89,0,0,0-7.28-.4c-1.81,0-3.75.24-5.13,1.41s-1.75,3.64-.29,4.7"/><path class="cls-8" d="M195.56,300.89l2.1,6.57,8.58.16a2,2,0,0,0,1.47-.36,2.07,2.07,0,0,0,.46-1.45c.08-1.8.15-3.59.23-5.39,0-.29,0-.58,0-.87"/><path class="cls-8" d="M213.11,278.59a12.29,12.29,0,0,0,13.09.61,11.08,11.08,0,0,0,2.82-2.29c-3.17-3.89-9.25-2.93-14.09-1.6a3.3,3.3,0,0,0-2.06,1.17,2.87,2.87,0,0,0-.13,2.18l.09.36q.67,2.57,1.34,5.13a3.32,3.32,0,0,0,1.51,2.42,3.2,3.2,0,0,0,1.6.12,15.32,15.32,0,0,0,6.36-1.55c1.91-1.11,3.34-3.34,2.83-5.48"/><path class="cls-8" d="M198.25,319.86a12.25,12.25,0,0,0,13.08.6,10.51,10.51,0,0,0,2.82-2.28c-3.16-3.9-9.25-2.93-14.09-1.61a3.34,3.34,0,0,0-2.06,1.18,2.89,2.89,0,0,0-.12,2.17l.09.36c.45,1.71.89,3.42,1.34,5.13a2.49,2.49,0,0,0,3.11,2.55,15.33,15.33,0,0,0,6.36-1.56c1.9-1.11,3.34-3.34,2.82-5.48"/><path class="cls-8" d="M223.23,299.13a12.27,12.27,0,0,0,13.08.61,11.08,11.08,0,0,0,2.82-2.29c-3.16-3.89-9.25-2.93-14.09-1.6A3.3,3.3,0,0,0,223,297a2.82,2.82,0,0,0-.12,2.18l.09.36q.66,2.56,1.34,5.13a3.34,3.34,0,0,0,1.5,2.42,3.24,3.24,0,0,0,1.61.12,15.32,15.32,0,0,0,6.36-1.55c1.9-1.11,3.34-3.34,2.82-5.48"/><path class="cls-8" d="M143.34,319.72a12.27,12.27,0,0,0,13.08.61,10.75,10.75,0,0,0,2.82-2.29c-3.16-3.89-9.25-2.93-14.09-1.6a3.28,3.28,0,0,0-2.06,1.17,2.92,2.92,0,0,0-.12,2.18l.09.36c.45,1.71.89,3.42,1.34,5.13a3.32,3.32,0,0,0,1.51,2.42,3.19,3.19,0,0,0,1.6.12,15.32,15.32,0,0,0,6.36-1.55c1.9-1.11,3.34-3.34,2.82-5.48"/><path class="cls-8" d="M239,279.3l.56.14h.05a25.93,25.93,0,0,0,11.09.24c1.91-.38,4.24-2.27,3-3.75a2.81,2.81,0,0,0-1.53-.78,31.39,31.39,0,0,0-9.46-1c-1.57.08-3.38.43-4.15,1.8a2.12,2.12,0,0,0,1.17,2.82,1.08,1.08,0,0,0,1-.18"/><path class="cls-8" d="M239.53,279.66c-.63,3.61,2.75,7.21,6.42,7.25s7.17-3.79,5.89-7.21"/><path class="cls-8" d="M266.78,279.11c.12.4-.34.43-.68.26s-.44-.36-.31-.64a1,1,0,0,1,.71-.55,3.33,3.33,0,0,1,1.22,0L277,279.4a10.89,10.89,0,0,0,2.13.13,3.83,3.83,0,0,0,1.46-.32c1.1-.5,1.89-1.91,1.28-3a3.19,3.19,0,0,0-2.47-1.2,34.78,34.78,0,0,0-12.33.56c-.88.2-1.8,1.52-.91,1.69"/><path class="cls-8" d="M265.94,278.8c.05.19.11.38.16.57.48,1.68.95,3.36,1.43,5a3.77,3.77,0,0,0,.78,1.65,3.65,3.65,0,0,0,2.18.87c2.43.39,5.08.58,7.2-.67s3.17-4.5,1.42-6.24"/><path class="cls-8" d="M292.23,278.84l1.3.05c.48,0,1,0,1.42.05a87,87,0,0,0,10.83-.41l.54-.07a2.93,2.93,0,0,0,2.37-1.29c.75-1.49-.93-3.08-2.5-3.66a13.06,13.06,0,0,0-13.94,3.38,1.65,1.65,0,0,0,1.31,1.32"/><path class="cls-8" d="M294.93,278.21c0,.24,0,.49,0,.73a12.15,12.15,0,0,0,2.46,6.57,6.43,6.43,0,0,0,8.91-7.05,4.59,4.59,0,0,0-.21-.87"/><path class="cls-8" d="M313.22,320.41l1.3,0c.47,0,.94,0,1.42.05a89.28,89.28,0,0,0,10.84-.4l.53-.07a2.93,2.93,0,0,0,2.37-1.29c.75-1.5-.93-3.08-2.5-3.67a13.07,13.07,0,0,0-13.94,3.39,1.64,1.64,0,0,0,1.31,1.31"/><path class="cls-8" d="M315.92,319.79c0,.24,0,.48,0,.72a12.11,12.11,0,0,0,2.47,6.57,6.42,6.42,0,0,0,8.9-7,4.59,4.59,0,0,0-.21-.87"/><path class="cls-8" d="M321.65,278.54a25.55,25.55,0,0,0,12.85.29,5.63,5.63,0,0,0,1.3-.47,2,2,0,0,0,1.2-1.51c.1-1.29-1.41-2-2.68-2.32a23.5,23.5,0,0,0-14.8,1.65,1.53,1.53,0,0,0,1.51,1.37,1.32,1.32,0,0,0,.48-.09"/><path class="cls-8" d="M321.55,278.9c-.3,4.51,5,8.37,9.22,6.68,2.85-1.14,4.59-4.17,5-7.22l0-.2"/><path class="cls-8" d="M348.72,278.54l11.86-.11a7,7,0,0,0,2.71-.39,2.64,2.64,0,0,0,.47-.25,2,2,0,0,0,.7-2.83,2.91,2.91,0,0,0-1.72-.75,45.81,45.81,0,0,0-14.12-.34,4.1,4.1,0,0,0-3,1.39c-.58.88,0,2.39,1,2.39a.82.82,0,0,0,.26,0"/><path class="cls-8" d="M346.85,278.26a1.07,1.07,0,0,1,1.07.3c.64.65.88,2.08,1.14,3.11.57,2.3,2.91,3.81,5.25,4.16a18,18,0,0,0,7-.8l2-7c.1-.38.21-.76.32-1.14"/><path class="cls-8" d="M374.3,277.22l.1,0,.11,0a38.94,38.94,0,0,0,15.73,0c.85-.18,1.7-.39,2.54-.63,0-2.4-3.24-3.13-5.64-3.08l-9.23.19a5.09,5.09,0,0,0-3.35.87,1.91,1.91,0,0,0-.16,2.67l.1.07a1,1,0,0,0,.31.16"/><path class="cls-8" d="M372.91,277.63c.54-.35,1-.12,1.46.36a6.27,6.27,0,0,1,1.05,2,7.6,7.6,0,0,0,14.82-2.81,2.44,2.44,0,0,0,0-.27"/><path class="cls-8" d="M400.24,278.12a34.48,34.48,0,0,0,14.86-1.43c.41-.12.81-.26,1.21-.41-1.69-2.49-5.11-3.31-8.07-2.76s-5.57,2.2-8.11,3.82"/><path class="cls-8" d="M438.75,280.58a2.25,2.25,0,0,1-.08.24c-.57,1.93-1,4.16.23,5.7,1.09,1.34,3,1.56,4.48,2.49a5.38,5.38,0,0,1,1,7.73,4,4,0,0,1-.41.41"/><path class="cls-8" d="M400.2,278.23a19.59,19.59,0,0,1,1.49,6.54,98.57,98.57,0,0,0,13.2-.13,21.93,21.93,0,0,1,.49-7.13"/><path class="cls-8" d="M434.9,274.05l.18,0a66.38,66.38,0,0,0,13.59.13l.17,0a2.72,2.72,0,0,0,2.29-1.07c.7-1.37-1.13-2.65-2.63-3a24.51,24.51,0,0,0-11-.08,5.34,5.34,0,0,0-2.75,1.27,2.14,2.14,0,0,0-.28,2.78"/><path class="cls-8" d="M435,274.84a16,16,0,0,1,1.32,5.82l2.35.16,7.52.52a1.52,1.52,0,0,0,2-1.67c.16-1.82.31-3.63.46-5.45"/><path class="cls-8" d="M418.17,299.79l.24,0a29.5,29.5,0,0,0,12.2,0,8,8,0,0,0,1.51-.47c1.57-.66,2.93-1.81,2.69-3.39s-2-2.4-3.6-2.76a22.34,22.34,0,0,0-15.74,2.23,10.81,10.81,0,0,1,2.94,4.38,10.57,10.57,0,0,1,.65,3.29c2.48.72,5.05,1.45,7.61,1.09s5.1-2.12,5.52-4.67"/><path class="cls-8" d="M374.12,318.35a31.65,31.65,0,0,0,14.86.47,4.58,4.58,0,0,0,2.39-1.23,1.49,1.49,0,0,0,.36-1.27c-.2-1-1.35-1.45-2.34-1.68a32.18,32.18,0,0,0-17.82,1,2.77,2.77,0,0,0,2.34,2.4l-.17.24c-1.34,2.14.05,5.27,2.3,6.53s5.19,1.2,7.87,1c2-.12,4.3-.39,5.44-2,1.26-1.83.75-4.88,2.47-6a3.22,3.22,0,0,1,.37-.2"/><path class="cls-8" d="M256.36,318.51l.79.29a21.72,21.72,0,0,0,2.09.61,25.75,25.75,0,0,0,12.64,0,3,3,0,0,0,2.33-1.55c.59-1.61-1.51-2.88-3.21-3.14a17.72,17.72,0,0,0-13.76,3.8"/><path class="cls-8" d="M259.18,319.64c-1,2.95,1.44,6.15,4.38,7.17s6.15.47,9.2-.1a18.16,18.16,0,0,1,2-8.55"/><path class="cls-8" d="M336.15,318.11c.26.1.53.2.79.28.69.25,1.38.45,2.09.63a26,26,0,0,0,12.64,0A3.1,3.1,0,0,0,354,317.5c.59-1.62-1.5-2.89-3.21-3.15a17.72,17.72,0,0,0-13.76,3.8"/><path class="cls-8" d="M339,319.25c-1,2.94,1.44,6.15,4.38,7.17s6.15.46,9.2-.11a18.18,18.18,0,0,1,2-8.55"/><path class="cls-8" d="M386.66,297.73l.79.29a21.72,21.72,0,0,0,2.09.61,25.75,25.75,0,0,0,12.64,0,3,3,0,0,0,2.33-1.55c.59-1.61-1.5-2.88-3.21-3.14a17.72,17.72,0,0,0-13.76,3.8"/><path class="cls-8" d="M389.48,298.86c-1,2.95,1.44,6.15,4.38,7.17s6.15.47,9.2-.1a18.16,18.16,0,0,1,2-8.55"/><path class="cls-8" d="M361.85,298.52l.79.28c.69.25,1.39.45,2.1.63a26,26,0,0,0,12.63,0,3.06,3.06,0,0,0,2.33-1.56c.59-1.61-1.5-2.88-3.2-3.14a17.73,17.73,0,0,0-13.77,3.8"/><path class="cls-8" d="M364.68,299.66c-1,2.94,1.44,6.15,4.37,7.17s6.15.46,9.21-.11a17.92,17.92,0,0,1,2-8.55"/><path class="cls-8" d="M232.73,321.34c.23.08.46.16.7.22a17.87,17.87,0,0,0,10.59-.13,4.73,4.73,0,0,0,1.06-.46,1.89,1.89,0,0,0,.88-1c.52-1.37-1-2.62-2.41-3.11a14.69,14.69,0,0,0-15.06,3.59,2.65,2.65,0,0,0,2.81,1l.24-.06"/><path class="cls-8" d="M231.38,321.85a4.05,4.05,0,0,0,1,4.95,6.44,6.44,0,0,0,5.18,1.25,9.35,9.35,0,0,0,7.49-7.08,1,1,0,0,0,0-.17"/><path class="cls-8" d="M118.29,319.49a25.22,25.22,0,0,0,7.46,2,8.91,8.91,0,0,0,6.36-1.9,7,7,0,0,0,.55-.54l.12-.14a11.29,11.29,0,0,0-15.08.09"/><path class="cls-8" d="M117.83,320.44c-1,2.14-1.53,5.49.74,6.18a4,4,0,0,0,1.47.07l5.72-.38c1.53-.1,3.23-.28,4.25-1.44,1.24-1.42,1-3.86,2.1-5.25a1.89,1.89,0,0,1,.55-.54,1.45,1.45,0,0,1,.26-.17"/><path class="cls-8" d="M125.69,279.43a25.06,25.06,0,0,0,7.46,2,8.89,8.89,0,0,0,6.33-1.88A7,7,0,0,0,140,279l.14-.16a11.29,11.29,0,0,0-15.07.09"/><path class="cls-8" d="M125.22,280.38c-1,2.15-1.53,5.49.74,6.18a4.32,4.32,0,0,0,1.48.08l5.71-.38c1.54-.11,3.24-.29,4.25-1.45,1.23-1.41,1-3.84,2.08-5.23A2.17,2.17,0,0,1,140,279a1.34,1.34,0,0,1,.28-.18"/><path class="cls-8" d="M286.5,317.93a25.16,25.16,0,0,0,7.46,2,8.94,8.94,0,0,0,6.33-1.89,5.9,5.9,0,0,0,.57-.55l.12-.14a11.26,11.26,0,0,0-15.07.09"/><path class="cls-8" d="M286,318.88c-1,2.15-1.53,5.5.74,6.18a4.1,4.1,0,0,0,1.48.08l5.72-.38c1.53-.1,3.23-.29,4.24-1.44,1.23-1.41,1-3.85,2.08-5.24a2.13,2.13,0,0,1,.57-.55,1.45,1.45,0,0,1,.26-.17"/><path class="cls-8" d="M338.79,300.48l8.41-.49a6.36,6.36,0,0,0,1.11-.17c1.68-.39,3.35-1.43,2.75-2.89a2.89,2.89,0,0,0-2.15-1.4,19.06,19.06,0,0,0-15.16,2.82,3.62,3.62,0,0,0,2.71,1.24,3.11,3.11,0,0,0,.43,0"/><path class="cls-8" d="M337.18,300.4c-1.1,1.69-.17,4.18,1.6,5.16a6.21,6.21,0,0,0,5.81-.3,7.06,7.06,0,0,0,3.8-5.09"/><path class="cls-8" d="M309.56,299.57l11.61-.05a7.43,7.43,0,0,0,1.7-.16,2.23,2.23,0,0,0,1.29-.86c1.1-1.68-1.25-3.5-3.2-4a31.65,31.65,0,0,0-10.35-.9c-2.06.16-4.64,1.13-4.58,3.19.05,1.49,1.48,2.42,2.9,3l.61.24"/><path class="cls-8" d="M309.76,300.25c-1.61,1.85-.53,5.08,1.68,6.15s4.95.37,6.91-1.11a20,20,0,0,0,4.59-5.71"/><path class="cls-8" d="M404.23,319.35l11.62-.05a7.26,7.26,0,0,0,1.68-.17,2.2,2.2,0,0,0,1.3-.85c1.1-1.68-1.25-3.51-3.2-4a31.66,31.66,0,0,0-10.35-.91c-2.06.16-4.64,1.13-4.58,3.2.05,1.49,1.48,2.41,2.91,3l.61.24"/><path class="cls-8" d="M404.44,320c-1.62,1.86-.54,5.08,1.67,6.16s4.95.37,6.91-1.12a20,20,0,0,0,4.59-5.7"/><path class="cls-8" d="M282.24,298.86A20.34,20.34,0,0,0,292.49,300a5.34,5.34,0,0,0,.65-.13c1.34-.31,2.69-1,2.81-2.35.16-1.79-2-2.76-3.75-3.17-2.46-.6-5-1.19-7.51-.63s-4.77,2.6-4.76,5.12v0"/><path class="cls-8" d="M279.57,298.87l.15.19c1.26,1.69.52,4.41,1.88,6.07a4.44,4.44,0,0,0,3.79,1.3,8.83,8.83,0,0,0,7.76-6.5"/><path class="cls-8" d="M250.62,297.57c-.1-.32-.66-.06-.61.27s.4.52.7.65a26.88,26.88,0,0,0,2.77,1,28.21,28.21,0,0,0,9.79,1.2,6.64,6.64,0,0,0,3.64-1l.27-.22a2.64,2.64,0,0,0,.72-3.14,3.65,3.65,0,0,0-1.64-1.3,14.14,14.14,0,0,0-11-.44,3.57,3.57,0,0,0-2.43,2.17,4,4,0,0,0,.46,2.37l.15.37,2.52,6a2.44,2.44,0,0,0,1,1.31,2.41,2.41,0,0,0,1.36.11,16.6,16.6,0,0,0,6.53-1.71c2-1.14,3.47-3.36,3.08-5.59"/><path class="cls-8" d="M217.8,290.15c.72,2.49,1.43,5,2.15,7.48"/><path class="cls-8" d="M248,288.17l1.86,16.1"/><path class="cls-8" d="M276.15,290.21a52.67,52.67,0,0,0-.23,16.05"/><path class="cls-8" d="M303.61,290.22q-.74,8.67-1.46,17.33"/><path class="cls-8" d="M328.66,286.86a93,93,0,0,1-.55,16.68"/><path class="cls-8" d="M354.83,286.94q0,7.57,0,15.15c0,.48.06,1.06.48,1.3s1-.46.61-.7"/><path class="cls-8" d="M382.55,287.54l-.75,18"/><path class="cls-8" d="M409.51,286.88q-1.39,8.33-2.78,16.65"/><path class="cls-8" d="M443,300.59a31.65,31.65,0,0,0,14.86.47,5.13,5.13,0,0,0,2.05-.91,1.59,1.59,0,0,0,.69-1.59c-.19-1-1.34-1.45-2.33-1.68a32.19,32.19,0,0,0-17.83,1,2.78,2.78,0,0,0,2.35,2.4l-.17.24c-1.35,2.14.05,5.27,2.3,6.53s5.19,1.2,7.87,1c2-.12,4.3-.39,5.44-2s.81-4.48,2.15-5.77a2.25,2.25,0,0,1,.69-.46"/><path class="cls-8" d="M222.83,186.48a234.61,234.61,0,0,0-33.77,8.26l31.17.51"/><path class="cls-9" d="M304.49,161.51a10.4,10.4,0,0,0,2.8,2.73c3.47,2.25,9.13,1,10.49-2.6a4.52,4.52,0,0,0,.28-1.18c3.16,7.92,15.36,9.15,21.37,3.09,5.27-5.32,5.79-14,2.74-20.9a21.36,21.36,0,0,0-1.46-2.76c-2.07-3.28-5.15-6.2-9-6.92s-8.3,1.39-9.21,5.17a6.18,6.18,0,0,0,.57,4.29,9.26,9.26,0,0,0,7.13,4.82c4.36.42,8.53-1.83,11.94-4.6l.31-.25a41.67,41.67,0,0,0,11.71-15.77"/><path class="cls-9" d="M304.49,161.51c3.65-2.94,6.66-7.35,8.82-11.53,4.22-8.17,7.75-17.94,4-26.33-1.17-2.62-3.39-5.14-6.26-5.22-3.86-.09-6.32,4-7.54,7.7a56.75,56.75,0,0,0-2.24,26.29A21.27,21.27,0,0,0,304.49,161.51Z"/><path class="cls-9" d="M286.47,160.33a12.62,12.62,0,0,0,7,4.4c4.07.82,7.77-.63,11-3.22"/><path class="cls-9" d="M286.47,160.33A43.71,43.71,0,0,0,295,123.25c-.39-1.66-1.07-3.5-2.65-4.13-2.74-1.08-5.1,2.23-6.07,5a75.34,75.34,0,0,0-3.83,17.62c-.43,4.65-.41,9.47,1.27,13.83A16.3,16.3,0,0,0,286.47,160.33Z"/><path class="cls-9" d="M267.45,164.94a9.43,9.43,0,0,0,6.48,3.08c4.26.18,8-2.68,10.93-5.82.56-.61,1.09-1.23,1.61-1.87"/><path class="cls-9" d="M267.45,164.94a10,10,0,0,0,2.27-3.72,46.76,46.76,0,0,0,3.1-21.92c-.31-3.14-2.73-7.22-5.52-5.73a4.84,4.84,0,0,0-1.93,2.66A39.73,39.73,0,0,0,262.61,152C262.74,156.59,264.39,161.75,267.45,164.94Z"/><path class="cls-9" d="M237.11,136.4a13.91,13.91,0,0,1,4.75-2.8,6.21,6.21,0,0,1,4-.24c2.86,1,3.68,4.55,4.2,7.53a91,91,0,0,0,4.45,16.22c1,2.72,2.26,5.49,4.49,7.36s5.71,2.54,8,.79a4.16,4.16,0,0,0,.39-.32"/><path class="cls-9" d="M237.11,136.4q.33,12.91.27,25.85c0,2.9-1,6.8-3.89,6.74s-3.7-3.8-3.74-6.62c-.08-5.58-.15-11.27,1.5-16.61A20.45,20.45,0,0,1,237.11,136.4Z"/><path class="cls-9" d="M235.7,103.55q1,16.41,1.41,32.85"/><path class="cls-9" d="M332.59,141.2a5.47,5.47,0,0,0-5.43-1.59,8.89,8.89,0,0,0-3.75,2.5l-.31.32a25.43,25.43,0,0,0-6.66,13.25c-.36,2.1-.27,4.64,1.34,6l.28.21"/><path class="cls-8" d="M347.57,163.54c-.58-.49-1.4.79-.72,1.12l1.11-1.35"/></g></g></svg>